<?xml version="1.0" standalone="no"?>
<!DOCTYPE svg PUBLIC "-//W3C//DTD SVG 20010904//EN"
 "http://www.w3.org/TR/2001/REC-SVG-20010904/DTD/svg10.dtd">
<svg version="1.0" xmlns="http://www.w3.org/2000/svg"
 width="176.000000pt" height="197.000000pt" viewBox="0 0 176.000000 197.000000"
 preserveAspectRatio="xMidYMid meet">

<g transform="translate(0.000000,197.000000) scale(0.100000,-0.100000)"
fill="#000000" stroke="none">
<path d="M606 1734 c-124 -45 -188 -122 -190 -230 -1 -40 -5 -64 -12 -64 -17
0 -26 26 -33 94 l-6 60 -38 -34 c-70 -61 -96 -148 -73 -240 8 -32 8 -34 -9
-20 -10 8 -26 33 -36 54 l-17 39 -22 -42 c-31 -61 -36 -128 -15 -190 9 -29 15
-54 12 -57 -2 -3 -18 11 -35 30 -36 41 -42 33 -42 -52 0 -60 24 -126 53 -151
10 -7 17 -17 17 -22 0 -17 -29 -9 -58 16 l-30 25 5 -42 c8 -70 35 -137 71
-174 37 -39 36 -54 -3 -36 -32 15 -31 6 3 -49 66 -102 167 -165 285 -176 74
-7 86 -18 32 -29 -57 -10 -148 0 -194 23 l-42 21 34 -42 c86 -104 252 -214
383 -252 52 -15 54 -15 91 9 85 55 155 150 191 262 63 191 24 327 -173 615
-103 150 -135 209 -159 289 -31 107 -14 240 44 338 29 50 29 50 -34 27z"/>
<path d="M1012 1093 c-22 -16 -58 -51 -80 -78 l-40 -50 42 -86 c49 -100 66
-166 66 -253 0 -91 -18 -166 -60 -253 l-38 -78 63 68 c74 79 125 178 180 347
50 156 97 249 157 310 36 37 44 50 31 50 -10 0 -53 11 -96 25 -106 34 -172 33
-225 -2z"/>
</g>
</svg>
