<?xml version="1.0" standalone="no"?>
<!DOCTYPE svg PUBLIC "-//W3C//DTD SVG 20010904//EN"
 "http://www.w3.org/TR/2001/REC-SVG-20010904/DTD/svg10.dtd">
<svg version="1.0" xmlns="http://www.w3.org/2000/svg"
 width="1168.000000pt" height="680.000000pt" viewBox="0 0 1168.000000 680.000000"
 preserveAspectRatio="xMidYMid meet">

<g transform="translate(0.000000,680.000000) scale(0.100000,-0.100000)"
fill="#000000" stroke="none">
<path d="M0 6559 c0 -212 2 -242 17 -257 16 -16 16 -17 0 -20 -20 -4 -22 -18
-4 -25 9 -4 9 -6 0 -6 -9 -1 -13 -25 -13 -86 l0 -85 5840 0 5840 0 0 360 0
360 -5840 0 -5840 0 0 -241z m11205 181 c3 -5 17 -10 31 -10 18 0 24 -5 24
-23 0 -13 5 -28 11 -34 7 -7 7 -17 1 -29 -6 -11 -13 -27 -16 -36 -4 -15 -17
-18 -66 -18 -66 0 -84 15 -61 51 8 15 8 23 0 38 -16 24 -5 51 20 51 11 0 23 5
26 10 3 6 10 10 15 10 5 0 12 -4 15 -10z m-505 -26 c0 -8 14 -20 31 -26 28
-10 29 -11 13 -29 -10 -11 -14 -27 -11 -39 4 -17 2 -20 -11 -14 -9 4 -24 7
-32 7 -8 0 -23 -3 -32 -7 -13 -6 -15 -3 -11 14 3 12 -1 28 -11 39 -16 18 -15
19 13 29 17 6 31 18 31 26 0 9 5 16 10 16 6 0 10 -7 10 -16z m-10470 -21 c0
-18 -6 -23 -25 -23 -26 0 -34 14 -12 24 6 3 -4 4 -23 3 -33 -2 -35 -4 -35 -37
0 -31 3 -35 30 -38 19 -3 33 2 42 14 19 25 25 12 7 -14 -19 -28 -58 -28 -84
-2 -44 44 -9 100 59 97 36 -1 41 -4 41 -24z m349 18 c17 -11 7 -41 -13 -41
-19 0 -29 17 -22 35 6 17 15 18 35 6z m311 -15 c0 -8 10 -16 23 -18 17 -2 23
-11 25 -35 2 -19 -1 -33 -7 -33 -6 0 -11 14 -11 31 0 38 -24 35 -28 -4 -6 -47
-22 -29 -22 23 0 28 5 50 10 50 6 0 10 -6 10 -14z m200 0 c0 -8 10 -16 23 -18
17 -2 22 -10 22 -33 0 -27 -4 -30 -32 -33 l-33 -3 0 50 c0 28 5 51 10 51 6 0
10 -6 10 -14z m-435 -6 c-3 -5 -17 -10 -31 -10 -13 0 -24 5 -24 10 0 6 14 10
31 10 17 0 28 -4 24 -10z m396 3 c5 -53 2 -83 -7 -83 -12 0 -23 58 -16 79 4
12 22 15 23 4z m215 -8 c9 -8 11 -15 5 -15 -6 0 -11 -12 -11 -26 0 -21 4 -24
20 -19 12 4 20 2 20 -5 0 -6 -12 -10 -27 -8 -22 2 -29 9 -34 33 -5 29 -2 55 8
55 2 0 11 -7 19 -15z m-406 -14 c0 -5 -8 -8 -17 -7 -12 1 -18 -6 -18 -19 0
-13 6 -20 18 -19 9 1 17 -2 17 -7 0 -16 -39 -9 -49 8 -12 23 4 53 29 53 11 0
20 -4 20 -9z m148 -28 c3 -31 1 -33 -27 -33 -36 0 -44 28 -11 37 11 3 20 10
20 15 0 6 -7 8 -15 4 -8 -3 -15 -1 -15 5 0 6 10 9 23 7 17 -2 23 -11 25 -35z
m207 2 c0 -27 -3 -30 -30 -30 -21 0 -31 5 -33 18 -6 33 6 49 35 45 24 -3 28
-8 28 -33z m160 0 c0 -27 -3 -30 -30 -30 -21 0 -31 5 -33 18 -6 33 6 49 35 45
24 -3 28 -8 28 -33z m83 -2 c2 -19 -1 -33 -7 -33 -6 0 -11 14 -11 30 0 17 -4
30 -10 30 -5 0 -10 -13 -10 -30 0 -16 -4 -30 -10 -30 -5 0 -10 16 -10 36 0 33
2 35 28 32 22 -2 28 -8 30 -35z m55 16 c3 11 10 21 16 21 7 0 4 -15 -6 -37
-22 -48 -33 -63 -45 -63 -6 0 -5 7 2 15 10 12 10 21 1 41 -17 38 -13 52 8 25
18 -23 18 -23 24 -2z m92 -14 c0 -27 -3 -30 -30 -30 -21 0 -31 5 -33 18 -6 33
6 49 35 45 24 -3 28 -8 28 -33z m35 0 c0 -19 -4 -35 -10 -35 -5 0 -10 16 -10
35 0 19 5 35 10 35 6 0 10 -16 10 -35z m79 -2 c-1 -36 -2 -36 -8 -9 -9 41 -31
46 -31 7 0 -17 -4 -31 -10 -31 -5 0 -10 16 -10 35 0 32 2 35 30 35 28 0 30 -2
29 -37z m101 28 c0 -5 -8 -8 -17 -7 -12 1 -18 -6 -18 -19 0 -13 6 -20 18 -19
9 1 17 -2 17 -7 0 -16 -39 -9 -49 8 -12 23 4 53 29 53 11 0 20 -4 20 -9z m75
-26 c0 -27 -3 -30 -30 -30 -21 0 -31 5 -33 18 -6 33 6 49 35 45 24 -3 28 -8
28 -33z m123 -2 c2 -19 -1 -33 -7 -33 -6 0 -11 14 -11 30 0 40 -19 38 -27 -2
l-7 -33 -6 29 c-6 38 -24 40 -28 4 -5 -41 -22 -34 -22 8 l0 35 53 -3 c51 -3
52 -4 55 -35z m-1363 -17 c0 -22 -14 -29 -34 -17 -19 12 -6 43 16 39 10 -2 18
-12 18 -22z m-55 4 c0 -5 -14 -10 -31 -10 -17 0 -28 4 -24 10 3 6 17 10 31 10
13 0 24 -4 24 -10z m1160 -10 c0 -5 -4 -10 -10 -10 -5 0 -10 5 -10 10 0 6 5
10 10 10 6 0 10 -4 10 -10z m-735 -331 l0 -74 -75 0 -75 0 -3 34 c-2 20 2 37
9 42 8 5 10 12 3 21 -5 8 -2 6 8 -4 11 -12 31 -18 62 -18 44 0 46 1 40 25 -8
31 2 58 19 52 8 -2 12 -27 12 -78z m2170 71 c3 -5 15 -10 26 -10 12 0 19 -7
19 -19 0 -11 5 -23 10 -26 6 -3 10 -11 10 -17 0 -6 -9 -1 -19 11 -11 12 -22
18 -25 13 -3 -6 1 -12 9 -16 23 -8 20 -66 -3 -66 -10 0 -23 -5 -30 -12 -9 -9
-16 -8 -29 5 -11 11 -13 17 -5 17 7 0 12 9 12 20 0 13 -7 20 -20 20 -11 0 -20
-5 -20 -12 0 -8 -6 -6 -17 5 -13 13 -14 20 -5 29 7 7 12 20 12 30 0 11 7 18
19 18 11 0 23 5 26 10 3 6 10 10 15 10 5 0 12 -4 15 -10z m-2920 -20 c-4 -6
-11 -8 -16 -5 -5 3 -6 -1 -3 -9 4 -11 -2 -19 -17 -25 -13 -5 -18 -10 -10 -10
11 -1 11 -4 0 -18 -10 -13 -8 -13 10 2 13 11 27 29 31 39 6 18 9 16 25 -12 13
-22 21 -28 27 -19 5 7 8 -1 8 -20 l0 -33 -60 0 -60 0 0 60 0 60 36 0 c21 0 33
-4 29 -10z m177 -32 l16 -33 12 33 c17 46 30 39 29 -15 -1 -42 -2 -44 -9 -18
l-7 30 -11 -27 c-6 -16 -14 -28 -17 -28 -3 0 -11 12 -17 28 l-11 27 -7 -30
c-7 -26 -8 -24 -9 18 -1 55 9 60 31 15z m712 24 c2 -4 -8 -8 -22 -7 -23 0 -27
-4 -27 -30 0 -20 5 -31 18 -33 20 -4 24 24 5 31 -7 3 -3 6 10 6 19 1 23 -4 20
-21 -2 -18 -10 -23 -32 -23 -36 0 -52 33 -30 64 15 21 48 28 58 13z m226 -37
c0 -25 -4 -45 -10 -45 -5 0 -10 20 -10 45 0 25 5 45 10 45 6 0 10 -20 10 -45z
m265 -5 c0 -38 -4 -50 -15 -50 -11 0 -15 12 -15 50 0 38 4 50 15 50 11 0 15
-12 15 -50z m166 10 c12 0 19 7 19 20 0 11 5 20 10 20 6 0 10 -20 10 -45 0
-25 -4 -45 -10 -45 -5 0 -10 9 -10 20 0 29 -37 27 -43 -2 -2 -13 -4 0 -4 27 0
28 2 40 4 28 3 -15 12 -23 24 -23z m682 -27 c11 -13 15 -23 9 -23 -6 0 -14 5
-18 11 -4 8 -9 7 -15 -2 -5 -9 -8 5 -7 36 0 28 3 39 5 25 3 -14 14 -35 26 -47z
m72 35 l7 -33 9 33 c5 17 13 32 18 32 5 0 12 -15 16 -32 l7 -33 10 34 c5 18
11 31 14 28 8 -7 -15 -87 -25 -87 -5 0 -12 15 -16 33 l-7 32 -9 -32 c-13 -45
-24 -41 -36 12 -6 25 -7 45 -3 45 4 0 11 -15 15 -32z m245 -13 c0 -41 -2 -45
-25 -45 -14 0 -25 6 -26 13 0 10 -2 10 -6 0 -8 -22 -23 -14 -23 12 0 14 -4 25
-10 25 -5 0 -10 -11 -10 -25 0 -14 -4 -25 -10 -25 -5 0 -10 14 -10 30 0 25 4
30 24 30 13 0 27 -8 31 -17 6 -17 7 -17 16 0 6 9 17 17 24 17 8 0 15 7 15 15
0 8 2 15 5 15 3 0 5 -20 5 -45z m970 31 c28 -35 -11 -93 -47 -70 -36 22 -23
84 17 84 10 0 23 -7 30 -14z m378 2 c29 -29 7 -78 -35 -78 -21 0 -23 5 -23 45
0 40 2 45 23 45 13 0 28 -5 35 -12z m724 0 c-7 -7 -12 -26 -12 -43 0 -17 5
-36 12 -43 8 -8 8 -12 1 -12 -13 0 -23 23 -23 55 0 32 10 55 23 55 7 0 7 -4
-1 -12z m46 5 c-22 -6 -23 -19 -2 -27 26 -10 13 -51 -16 -53 -22 -1 -22 -1 -2
4 25 5 31 43 7 43 -8 0 -15 9 -15 20 0 14 6 20 23 19 16 -1 18 -2 5 -6z m62
-5 l-25 -10 23 -9 c12 -4 22 -12 22 -17 0 -4 9 -8 20 -9 11 -1 20 3 20 8 0 6
-4 7 -10 4 -15 -9 -12 7 5 29 19 25 23 20 27 -27 2 -36 -11 -63 -19 -39 -6 15
-35 16 -50 1 -20 -20 -43 -2 -43 34 0 39 6 47 34 46 19 0 18 -1 -4 -11z m114
-4 c13 -33 3 -94 -15 -94 -5 0 -3 12 3 26 9 19 9 33 1 55 -6 16 -8 29 -3 29 4
0 11 -7 14 -16z m86 -59 c10 0 17 14 21 40 l7 40 -2 -45 c-1 -41 -3 -45 -26
-45 -23 0 -25 4 -26 45 l-2 45 7 -40 c4 -26 11 -40 21 -40z m273 68 c-27 -5
-31 -32 -5 -34 16 -1 16 -2 0 -6 -27 -7 -22 -33 6 -33 30 0 42 16 26 35 -9 11
-9 15 -1 15 6 0 11 -5 11 -11 0 -8 4 -8 13 0 11 8 14 5 14 -19 0 -24 -3 -27
-14 -19 -9 8 -13 8 -13 0 0 -6 -16 -11 -35 -11 -35 0 -35 0 -35 45 0 43 1 45
28 44 23 -2 24 -2 5 -6z m959 -5 c-7 -7 -12 -26 -12 -43 0 -17 5 -36 12 -43 8
-8 8 -12 1 -12 -13 0 -23 23 -23 55 0 32 10 55 23 55 7 0 7 -4 -1 -12z m46 5
c-22 -6 -23 -19 -2 -27 26 -10 13 -51 -16 -53 -22 -1 -22 -1 -2 4 25 5 31 43
7 43 -8 0 -15 9 -15 20 0 14 6 20 23 19 16 -1 18 -2 5 -6z m62 -5 l-25 -10 23
-9 c12 -4 22 -12 22 -17 0 -4 9 -8 20 -9 11 -1 20 3 20 8 0 6 -4 7 -10 4 -15
-9 -12 7 5 29 19 25 23 20 27 -27 2 -36 -11 -63 -19 -39 -6 15 -35 16 -50 1
-20 -20 -43 -2 -43 34 0 39 6 47 34 46 19 0 18 -1 -4 -11z m114 -4 c13 -33 3
-94 -15 -94 -5 0 -3 12 3 26 9 19 9 33 1 55 -6 16 -8 29 -3 29 4 0 11 -7 14
-16z m86 -59 c10 0 17 14 21 40 l7 40 -2 -45 c-1 -41 -3 -45 -26 -45 -23 0
-25 4 -26 45 l-2 45 7 -40 c4 -26 11 -40 21 -40z m273 68 c-27 -5 -31 -32 -5
-34 16 -1 16 -2 0 -6 -27 -7 -22 -33 6 -33 30 0 42 16 26 35 -9 11 -9 15 -1
15 6 0 11 -5 11 -11 0 -8 4 -8 13 0 11 8 14 5 14 -19 0 -24 -3 -27 -14 -19 -9
8 -13 8 -13 0 0 -6 -16 -11 -35 -11 -35 0 -35 0 -35 45 0 43 1 45 28 44 23 -2
24 -2 5 -6z m970 0 c-27 -5 -31 -32 -5 -34 15 -1 15 -2 0 -6 -9 -2 -19 -14
-21 -26 -2 -12 -5 -1 -6 26 -1 45 0 47 27 46 23 -2 24 -2 5 -6z m297 -18 c12
-32 -6 -65 -35 -65 -33 0 -52 38 -35 69 14 28 60 25 70 -4z m31 -20 c0 -15 4
-12 15 13 8 17 16 32 19 32 2 0 9 -15 14 -32 l9 -33 7 33 c4 17 11 32 15 32 4
0 3 -20 -3 -45 -12 -53 -23 -57 -36 -12 l-9 32 -7 -32 c-4 -18 -11 -33 -16
-33 -8 0 -29 63 -29 85 0 18 20 -20 21 -40z m138 23 c5 -13 12 -34 16 -48 6
-20 5 -23 -6 -12 -16 15 -49 16 -49 0 0 -6 -3 -9 -6 -6 -8 8 17 88 28 88 5 0
12 -10 17 -22z m75 13 c4 -5 -3 -7 -14 -4 -27 7 -26 -11 2 -29 14 -9 19 -20
15 -31 -7 -18 -47 -24 -47 -6 0 5 5 7 10 4 6 -3 15 -3 21 1 8 5 4 13 -11 24
-15 11 -21 23 -17 34 7 17 32 22 41 7z m74 -19 c3 -17 -2 -25 -17 -29 -11 -3
-22 -12 -24 -22 -3 -9 -5 6 -6 32 -1 45 1 48 22 45 14 -2 23 -11 25 -26z m179
-39 c-2 -16 -4 -5 -4 22 0 28 2 40 4 28 2 -13 2 -35 0 -50z m560 61 c-3 -3
-12 -4 -19 -1 -8 3 -5 6 6 6 11 1 17 -2 13 -5z m217 -2 c2 -4 -8 -8 -22 -7
-23 0 -27 -4 -27 -30 0 -20 5 -31 18 -33 20 -4 24 24 5 31 -7 3 -3 6 10 6 19
1 23 -4 20 -21 -2 -18 -10 -23 -32 -23 -36 0 -52 33 -30 64 15 21 48 28 58 13z
m627 -13 c17 -33 -4 -71 -38 -67 -30 3 -44 32 -32 66 11 29 54 30 70 1z m186
-46 c-2 -16 -4 -5 -4 22 0 28 2 40 4 28 2 -13 2 -35 0 -50z m133 7 c0 -33 -4
-60 -10 -60 -6 0 -10 27 -10 60 0 33 4 60 10 60 6 0 10 -27 10 -60z m-8378 26
c28 -1 33 -5 33 -26 0 -22 -4 -25 -41 -27 -39 -2 -42 0 -46 26 -5 36 1 58 12
41 5 -7 23 -13 42 -14z m171 12 c4 -10 8 -9 16 2 14 20 23 8 25 -34 1 -39 -17
-45 -22 -8 -2 12 -8 22 -14 22 -6 0 -8 -11 -5 -25 6 -33 -15 -28 -24 6 -6 26
-1 49 11 49 5 0 11 -6 13 -12z m1246 -16 c-13 -5 -11 -40 4 -45 7 -4 6 -6 -4
-6 -11 -1 -18 9 -21 27 -6 41 0 54 17 39 7 -7 9 -13 4 -15z m6350 0 c-13 -5
-11 -40 4 -45 7 -4 6 -6 -4 -6 -11 -1 -18 9 -21 27 -6 41 0 54 17 39 7 -7 9
-13 4 -15z m1446 8 c17 -19 17 -21 0 -40 -10 -11 -23 -20 -28 -20 -6 0 -2 9 8
20 17 19 17 21 0 40 -10 11 -14 20 -8 20 5 0 18 -9 28 -20z m45 0 c12 -22 -2
-60 -22 -60 -6 0 -4 8 5 18 15 16 15 20 1 40 -8 12 -11 22 -5 22 6 0 15 -9 21
-20z m-10810 -31 c0 -26 -3 -30 -22 -27 -30 4 -35 28 -7 35 22 6 22 7 3 14
-18 7 -17 8 4 8 18 1 22 -4 22 -30z m74 16 c8 -22 -4 -45 -24 -45 -10 0 -21
-8 -23 -17 -3 -10 -5 3 -6 30 -1 43 1 47 23 47 13 0 26 -7 30 -15z m41 6 c-18
-7 -18 -8 -1 -18 21 -12 13 -33 -12 -32 -14 0 -14 2 2 8 18 7 18 8 3 14 -25
10 -21 37 6 36 20 0 21 -1 2 -8z m582 -26 c2 -25 1 -26 -5 -7 -4 13 -11 23
-17 23 -5 0 -13 -10 -17 -23 -6 -22 -6 -21 -7 5 -1 34 -21 36 -21 2 0 -14 -4
-25 -10 -25 -5 0 -10 14 -10 31 0 29 1 30 43 27 39 -3 42 -5 44 -33z m61 2 c3
-23 0 -27 -22 -27 -33 0 -35 29 -4 38 21 5 21 6 2 14 -18 8 -18 8 1 5 14 -1
21 -11 23 -30z m29 -14 c-3 -10 -5 -2 -5 17 0 19 2 27 5 18 2 -10 2 -26 0 -35z
m568 17 c0 -18 -6 -26 -23 -28 -24 -4 -38 18 -28 44 3 9 15 14 28 12 17 -2 23
-10 23 -28z m45 -17 c0 -7 -4 -13 -10 -13 -5 0 -10 3 -10 8 0 4 -3 18 -6 32
-6 24 -6 25 9 5 9 -11 17 -26 17 -32z m20 30 c1 -16 2 -16 17 2 15 19 15 19 8
-10 -9 -40 -13 -42 -30 -19 -17 22 -19 44 -5 44 6 0 10 -8 10 -17z m264 1 c12
-31 6 -44 -18 -44 -34 0 -41 16 -15 33 19 14 20 15 2 20 -15 4 -15 5 3 6 12 0
25 -6 28 -15z m144 -16 c3 -24 0 -28 -22 -28 -30 0 -36 27 -9 37 15 6 15 7 -3
15 -16 6 -15 7 6 5 19 -1 26 -8 28 -29z m45 22 c-13 -5 -23 -14 -23 -20 0 -6
10 -15 23 -20 l22 -9 -23 0 c-12 -1 -25 6 -28 14 -10 24 4 45 28 44 l23 0 -22
-9z m77 6 c0 -2 -7 -7 -16 -10 -8 -3 -12 -2 -9 4 6 10 25 14 25 6z m170 -26
c0 -16 -4 -30 -10 -30 -5 0 -10 14 -10 30 0 17 5 30 10 30 6 0 10 -13 10 -30z
m668 23 c-10 -2 -18 -13 -18 -24 0 -11 7 -19 18 -20 11 0 12 -2 4 -6 -7 -3
-19 1 -27 7 -19 15 -2 51 23 49 16 -1 16 -2 0 -6z m75 -7 c4 -10 -3 -16 -21
-19 l-27 -3 25 -11 c25 -12 25 -12 2 -12 -24 -1 -38 20 -28 44 7 19 42 20 49
1z m64 -21 c2 -25 1 -26 -5 -7 -4 13 -11 23 -17 23 -5 0 -13 -10 -17 -23 -5
-19 -6 -18 -7 10 -1 29 2 33 22 30 17 -2 22 -10 24 -33z m113 20 c15 -18 -2
-45 -30 -45 -23 0 -34 28 -19 46 15 18 33 18 49 -1z m42 6 c-10 -6 -10 -10 2
-21 20 -16 11 -30 -17 -29 -20 0 -20 1 -4 8 17 6 17 8 3 20 -18 15 -12 31 12
31 13 0 14 -2 4 -9z m215 -26 c2 -25 1 -26 -5 -7 -4 13 -11 23 -17 23 -5 0
-13 -10 -17 -23 -5 -19 -6 -18 -7 10 -1 29 2 33 22 30 17 -2 22 -10 24 -33z
m49 17 c18 32 17 8 -1 -36 -8 -20 -20 -36 -26 -36 -8 0 -8 4 0 14 9 11 9 20 2
35 -6 11 -11 26 -10 33 0 7 5 3 11 -10 l12 -23 12 23z m79 -12 c0 -18 -6 -26
-23 -28 -13 -2 -25 3 -28 12 -10 26 4 48 28 44 17 -2 23 -10 23 -28z m35 0 c0
-16 -4 -30 -10 -30 -5 0 -10 14 -10 30 0 17 5 30 10 30 6 0 10 -13 10 -30z
m64 14 c9 -24 7 -44 -4 -44 -5 0 -10 11 -10 25 0 14 -4 25 -10 25 -5 0 -10
-11 -10 -25 0 -14 -4 -25 -10 -25 -5 0 -10 14 -10 30 0 25 4 30 24 30 13 0 27
-7 30 -16z m191 -14 c0 -20 -5 -25 -25 -25 -18 0 -26 6 -28 23 -5 30 -22 28
-22 -3 0 -14 -4 -25 -10 -25 -5 0 -10 13 -10 30 0 29 1 29 48 27 43 -2 47 -4
47 -27z m73 2 c3 -17 -2 -25 -17 -29 -12 -3 -21 -12 -21 -19 0 -8 -4 -14 -10
-14 -5 0 -10 21 -10 46 0 44 1 45 28 42 19 -2 28 -9 30 -26z m372 18 c13 -9
13 -11 0 -20 -22 -15 -30 -12 -30 10 0 22 8 25 30 10z m545 0 c-18 -7 -19 -8
-2 -15 25 -10 21 -35 -5 -34 -22 0 -22 1 -3 9 18 7 19 8 3 15 -26 10 -22 35 5
34 21 0 21 -1 2 -9z m75 -4 c0 -8 -10 -16 -22 -19 -23 -4 -23 -4 2 -15 25 -11
25 -11 2 -11 -24 -1 -38 20 -28 44 7 19 46 20 46 1z m43 7 c-7 -2 -13 -16 -13
-29 0 -13 -4 -24 -10 -24 -5 0 -10 14 -10 30 0 25 4 30 23 29 12 0 16 -3 10
-6z m215 -21 c3 -17 -2 -25 -17 -29 -12 -3 -21 -12 -21 -19 0 -8 -4 -14 -10
-14 -5 0 -10 21 -10 46 0 44 1 45 28 42 19 -2 28 -9 30 -26z m70 11 c2 -8 -5
-13 -17 -13 -28 0 -27 -17 2 -23 20 -4 19 -4 -4 -6 -31 -1 -46 24 -28 46 14
16 40 14 47 -4z m34 5 c-5 -7 -12 -22 -15 -33 -3 -13 -5 -9 -6 13 -1 23 3 32
15 32 12 0 14 -3 6 -12z m25 -35 c-3 -10 -5 -2 -5 17 0 19 2 27 5 18 2 -10 2
-26 0 -35z m71 30 c2 -8 -5 -13 -17 -13 -28 0 -27 -17 2 -23 l22 -4 -23 -2
c-25 -1 -38 20 -28 45 7 18 37 15 44 -3z m66 1 c9 -24 7 -44 -4 -44 -5 0 -10
11 -10 25 0 14 -4 25 -10 25 -5 0 -10 -11 -10 -25 0 -14 -4 -25 -10 -25 -5 0
-10 14 -10 30 0 25 4 30 24 30 13 0 27 -7 30 -16z m396 6 c13 -9 13 -11 0 -20
-22 -15 -30 -12 -30 10 0 22 8 25 30 10z m545 0 c-18 -7 -19 -8 -2 -15 25 -10
21 -35 -5 -34 -22 0 -22 1 -3 9 18 7 19 8 3 15 -26 10 -22 35 5 34 21 0 21 -1
2 -9z m75 -4 c0 -8 -10 -16 -22 -19 -23 -4 -23 -4 2 -15 25 -11 25 -11 2 -11
-24 -1 -38 20 -28 44 7 19 46 20 46 1z m43 7 c-7 -2 -13 -16 -13 -29 0 -13 -4
-24 -10 -24 -5 0 -10 14 -10 30 0 25 4 30 23 29 12 0 16 -3 10 -6z m215 -21
c3 -17 -2 -25 -17 -29 -12 -3 -21 -12 -21 -19 0 -8 -4 -14 -10 -14 -5 0 -10
21 -10 46 0 44 1 45 28 42 19 -2 28 -9 30 -26z m70 11 c2 -8 -5 -13 -17 -13
-28 0 -27 -17 2 -23 20 -4 19 -4 -4 -6 -31 -1 -46 24 -28 46 14 16 40 14 47
-4z m34 5 c-5 -7 -12 -22 -15 -33 -3 -13 -5 -9 -6 13 -1 23 3 32 15 32 12 0
14 -3 6 -12z m25 -35 c-3 -10 -5 -2 -5 17 0 19 2 27 5 18 2 -10 2 -26 0 -35z
m71 30 c2 -8 -5 -13 -17 -13 -28 0 -27 -17 2 -23 l22 -4 -23 -2 c-25 -1 -38
20 -28 45 7 18 37 15 44 -3z m66 1 c9 -24 7 -44 -4 -44 -5 0 -10 11 -10 25 0
14 -4 25 -10 25 -5 0 -10 -11 -10 -25 0 -14 -4 -25 -10 -25 -5 0 -10 14 -10
30 0 25 4 30 24 30 13 0 27 -7 30 -16z m396 6 c13 -9 13 -11 0 -20 -22 -15
-30 -12 -30 10 0 22 8 25 30 10z m222 -2 c-5 -7 -12 -22 -15 -33 -3 -13 -5 -9
-6 13 -1 23 3 32 15 32 12 0 14 -3 6 -12z m66 -5 c2 -8 -5 -13 -17 -13 -28 0
-27 -17 2 -23 l22 -4 -23 -2 c-25 -1 -38 20 -28 45 7 18 37 15 44 -3z m62 3
c0 -8 -10 -16 -22 -19 -23 -4 -23 -4 2 -15 25 -11 25 -11 2 -11 -24 -1 -38 20
-28 44 7 19 46 20 46 1z m515 -7 c4 12 9 21 11 18 3 -2 0 -17 -6 -33 -11 -28
-12 -28 -26 -10 -8 11 -14 27 -14 35 1 11 5 7 14 -8 l14 -24 7 22z m52 -26 c6
-2 13 8 16 24 4 26 4 26 6 -5 1 -29 -2 -33 -21 -30 -18 2 -23 10 -25 33 -2 27
-1 28 5 6 4 -14 13 -26 19 -28z m122 15 c-2 -32 -2 -32 -6 -5 -5 33 -25 31
-34 -4 -6 -21 -7 -21 -8 9 -1 28 2 32 24 32 22 0 25 -4 24 -32z m69 15 c2 -8
-5 -13 -17 -13 -28 0 -27 -17 2 -23 20 -4 19 -4 -4 -6 -31 -1 -46 24 -28 46
14 16 40 14 47 -4z m34 5 c-5 -7 -12 -22 -15 -33 -3 -13 -5 -9 -6 13 -1 23 3
32 15 32 12 0 14 -3 6 -12z m668 -2 c0 -8 -10 -16 -22 -19 -23 -4 -23 -4 2
-15 25 -11 25 -11 2 -11 -24 -1 -38 20 -28 44 7 19 46 20 46 1z m68 -18 c2
-16 -1 -28 -7 -28 -6 0 -11 11 -11 25 0 14 -4 25 -10 25 -5 0 -10 -11 -10 -25
0 -14 -4 -25 -10 -25 -5 0 -10 14 -10 31 0 27 3 30 28 27 21 -2 28 -9 30 -30z
m62 18 c0 -8 -10 -16 -22 -19 -23 -4 -23 -4 2 -15 25 -11 25 -11 2 -11 -24 -1
-38 20 -28 44 7 19 46 20 46 1z m43 7 c-7 -2 -13 -16 -13 -29 0 -13 -4 -24
-10 -24 -5 0 -10 14 -10 30 0 25 4 30 23 29 12 0 16 -3 10 -6z m57 -24 c0 -26
-3 -30 -22 -27 -30 4 -35 28 -7 35 22 6 22 7 3 14 -18 7 -17 8 4 8 18 1 22 -4
22 -30z m67 -16 c-3 -10 -5 -2 -5 17 0 19 2 27 5 18 2 -10 2 -26 0 -35z m73
32 c15 -18 -2 -45 -30 -45 -23 0 -34 28 -19 46 15 18 33 18 49 -1z m67 -20 c2
-25 1 -26 -5 -7 -4 13 -11 23 -17 23 -5 0 -13 -10 -17 -23 -5 -19 -6 -18 -7
10 -1 29 2 33 22 30 17 -2 22 -10 24 -33z m165 23 c-5 -7 -12 -22 -15 -33 -3
-13 -5 -9 -6 13 -1 23 3 32 15 32 12 0 14 -3 6 -12z m66 -20 c3 -24 0 -28 -22
-28 -30 0 -36 27 -9 37 15 6 15 7 -3 15 -16 6 -15 7 6 5 19 -1 26 -8 28 -29z
m45 22 c-13 -5 -23 -14 -23 -20 0 -6 10 -15 23 -20 l22 -9 -23 0 c-12 -1 -25
6 -28 14 -10 24 4 45 28 44 l23 0 -22 -9z m105 -7 c2 -8 -5 -13 -17 -13 -28 0
-27 -17 2 -23 20 -4 19 -4 -4 -6 -31 -1 -46 24 -28 46 14 16 40 14 47 -4z
m-6731 -9 c-3 -3 -12 -4 -19 -1 -8 3 -5 6 6 6 11 1 17 -2 13 -5z m5283 -24 c0
-5 -4 -10 -10 -10 -5 0 -10 5 -10 10 0 6 5 10 10 10 6 0 10 -4 10 -10z m30 0
c0 -5 -4 -10 -10 -10 -5 0 -10 5 -10 10 0 6 5 10 10 10 6 0 10 -4 10 -10z
m1510 0 c0 -5 -4 -10 -10 -10 -5 0 -10 5 -10 10 0 6 5 10 10 10 6 0 10 -4 10
-10z m30 0 c0 -5 -4 -10 -10 -10 -5 0 -10 5 -10 10 0 6 5 10 10 10 6 0 10 -4
10 -10z"/>
<path d="M11145 6660 l0 -50 48 0 47 0 0 50 0 50 -47 0 -48 0 0 -50z"/>
<path d="M10680 6680 c0 -5 -7 -10 -15 -10 -13 0 -13 -3 -3 -20 7 -11 20 -20
28 -20 8 0 21 9 28 20 10 17 10 20 -3 20 -8 0 -15 5 -15 10 0 6 -4 10 -10 10
-5 0 -10 -4 -10 -10z"/>
<path d="M555 6690 c3 -5 8 -10 11 -10 2 0 4 5 4 10 0 6 -5 10 -11 10 -5 0 -7
-4 -4 -10z"/>
<path d="M1093 6654 c-8 -22 15 -44 26 -25 10 16 4 41 -10 41 -5 0 -12 -7 -16
-16z"/>
<path d="M970 6630 c0 -5 5 -10 10 -10 6 0 10 5 10 10 0 6 -4 10 -10 10 -5 0
-10 -4 -10 -10z"/>
<path d="M1173 6654 c-8 -20 13 -42 27 -28 12 12 3 44 -11 44 -5 0 -12 -7 -16
-16z"/>
<path d="M1333 6654 c-8 -20 13 -42 27 -28 12 12 3 44 -11 44 -5 0 -12 -7 -16
-16z"/>
<path d="M1560 6645 c0 -16 6 -25 15 -25 9 0 15 9 15 25 0 16 -6 25 -15 25 -9
0 -15 -9 -15 -25z"/>
<path d="M1853 6654 c-8 -20 13 -42 27 -28 12 12 3 44 -11 44 -5 0 -12 -7 -16
-16z"/>
<path d="M630 6630 c0 -5 5 -10 11 -10 5 0 7 5 4 10 -3 6 -8 10 -11 10 -2 0
-4 -4 -4 -10z"/>
<path d="M885 6263 c3 -8 5 -20 5 -27 0 -13 63 -19 90 -9 8 4 18 7 23 7 4 1 7
4 7 9 0 4 -3 7 -7 6 -3 0 -10 6 -15 14 -11 21 -111 20 -103 0z m50 -13 c0 -7
-6 -15 -12 -17 -8 -3 -13 4 -13 17 0 13 5 20 13 18 6 -3 12 -11 12 -18z m45 0
c0 -21 -15 -27 -25 -10 -7 12 2 30 16 30 5 0 9 -9 9 -20z"/>
<path d="M3190 6329 c0 -5 5 -7 10 -4 6 3 10 8 10 11 0 2 -4 4 -10 4 -5 0 -10
-5 -10 -11z"/>
<path d="M276 6255 c4 -8 11 -15 16 -15 6 0 5 6 -2 15 -7 8 -14 15 -16 15 -2
0 -1 -7 2 -15z"/>
<path d="M2780 6280 c0 -11 7 -20 15 -20 8 0 15 9 15 20 0 11 -7 20 -15 20 -8
0 -15 -9 -15 -20z"/>
<path d="M3740 6315 c-17 -21 -2 -50 26 -50 14 0 19 7 19 30 0 34 -24 45 -45
20z"/>
<path d="M4120 6296 c0 -39 18 -48 41 -20 15 18 2 47 -25 52 -12 3 -16 -4 -16
-32z"/>
<path d="M4985 6290 c-8 -13 4 -32 16 -25 12 8 12 35 0 35 -6 0 -13 -4 -16
-10z"/>
<path d="M6525 6290 c-8 -13 4 -32 16 -25 12 8 12 35 0 35 -6 0 -13 -4 -16
-10z"/>
<path d="M8224 6316 c-10 -26 0 -51 21 -51 16 0 20 7 20 30 0 33 -30 49 -41
21z"/>
<path d="M8427 6305 c-8 -20 -4 -29 11 -24 5 2 6 13 2 23 -6 19 -7 19 -13 1z"/>
<path d="M8560 6310 c0 -13 5 -20 13 -17 6 2 12 10 12 17 0 7 -6 15 -12 18 -8
2 -13 -5 -13 -18z"/>
<path d="M10124 6316 c-10 -26 0 -51 21 -51 16 0 20 7 20 30 0 33 -30 49 -41
21z"/>
<path d="M2080 6280 c0 -11 5 -20 10 -20 6 0 10 9 10 20 0 11 -4 20 -10 20 -5
0 -10 -9 -10 -20z"/>
<path d="M2114 6289 c-10 -17 13 -36 27 -22 12 12 4 33 -11 33 -5 0 -12 -5
-16 -11z"/>
<path d="M540 6270 c0 -5 5 -10 10 -10 6 0 10 5 10 10 0 6 -4 10 -10 10 -5 0
-10 -4 -10 -10z"/>
<path d="M605 6290 c-7 -12 2 -30 16 -30 5 0 9 9 9 20 0 21 -15 27 -25 10z"/>
<path d="M1295 6270 c-3 -5 -2 -10 4 -10 5 0 13 5 16 10 3 6 2 10 -4 10 -5 0
-13 -4 -16 -10z"/>
<path d="M1884 6289 c-10 -17 13 -36 27 -22 12 12 4 33 -11 33 -5 0 -12 -5
-16 -11z"/>
<path d="M2220 6270 c0 -5 5 -10 10 -10 6 0 10 5 10 10 0 6 -4 10 -10 10 -5 0
-10 -4 -10 -10z"/>
<path d="M2360 6270 c0 -5 4 -10 9 -10 6 0 13 5 16 10 3 6 -1 10 -9 10 -9 0
-16 -4 -16 -10z"/>
<path d="M3570 6280 c0 -11 7 -20 15 -20 8 0 15 9 15 20 0 11 -7 20 -15 20 -8
0 -15 -9 -15 -20z"/>
<path d="M3954 6289 c-10 -17 13 -36 27 -22 12 12 4 33 -11 33 -5 0 -12 -5
-16 -11z"/>
<path d="M4244 6289 c-10 -17 13 -36 27 -22 12 12 4 33 -11 33 -5 0 -12 -5
-16 -11z"/>
<path d="M4320 6280 c0 -13 5 -20 13 -17 6 2 12 10 12 17 0 7 -6 15 -12 18 -8
2 -13 -5 -13 -18z"/>
<path d="M5318 6293 c7 -3 16 -2 19 1 4 3 -2 6 -13 5 -11 0 -14 -3 -6 -6z"/>
<path d="M5570 6280 c0 -13 5 -20 13 -17 6 2 12 10 12 17 0 7 -6 15 -12 18 -8
2 -13 -5 -13 -18z"/>
<path d="M5778 6293 c7 -3 16 -2 19 1 4 3 -2 6 -13 5 -11 0 -14 -3 -6 -6z"/>
<path d="M6858 6293 c7 -3 16 -2 19 1 4 3 -2 6 -13 5 -11 0 -14 -3 -6 -6z"/>
<path d="M7110 6280 c0 -13 5 -20 13 -17 6 2 12 10 12 17 0 7 -6 15 -12 18 -8
2 -13 -5 -13 -18z"/>
<path d="M7318 6293 c7 -3 16 -2 19 1 4 3 -2 6 -13 5 -11 0 -14 -3 -6 -6z"/>
<path d="M8068 6293 c7 -3 16 -2 19 1 4 3 -2 6 -13 5 -11 0 -14 -3 -6 -6z"/>
<path d="M8128 6293 c7 -3 16 -2 19 1 4 3 -2 6 -13 5 -11 0 -14 -3 -6 -6z"/>
<path d="M9588 6293 c7 -3 16 -2 19 1 4 3 -2 6 -13 5 -11 0 -14 -3 -6 -6z"/>
<path d="M9718 6293 c7 -3 16 -2 19 1 4 3 -2 6 -13 5 -11 0 -14 -3 -6 -6z"/>
<path d="M9820 6270 c0 -5 5 -10 10 -10 6 0 10 5 10 10 0 6 -4 10 -10 10 -5 0
-10 -4 -10 -10z"/>
<path d="M9950 6280 c0 -11 7 -20 15 -20 8 0 15 9 15 20 0 11 -7 20 -15 20 -8
0 -15 -9 -15 -20z"/>
<path d="M10250 6270 c0 -5 4 -10 9 -10 6 0 13 5 16 10 3 6 -1 10 -9 10 -9 0
-16 -4 -16 -10z"/>
<path d="M11100 5920 c-18 -18 -20 -33 -20 -160 0 -196 -29 -180 318 -180
l278 0 1 180 1 180 -279 0 c-266 0 -280 -1 -299 -20z m266 -168 l35 -62 -80 0
-80 0 37 65 c20 36 41 64 45 62 4 -1 24 -30 43 -65z m203 37 c12 -13 21 -17
26 -10 10 18 43 13 55 -8 14 -28 13 -31 -15 -31 -14 0 -25 -5 -25 -11 0 -6 9
-8 20 -4 11 4 20 2 20 -4 0 -17 -57 -13 -64 5 -5 14 -7 14 -22 0 -8 -9 -29
-16 -45 -16 -28 0 -29 1 -29 50 0 49 1 50 30 50 17 0 37 -9 49 -21z"/>
<path d="M11510 5760 c0 -23 4 -30 20 -30 16 0 20 7 20 30 0 23 -4 30 -20 30
-16 0 -20 -7 -20 -30z"/>
<path d="M10189 5829 c-27 -10 -49 -46 -49 -80 0 -22 47 -75 57 -65 4 3 -2 13
-13 21 -19 15 -19 15 1 8 20 -6 20 -6 1 15 -13 15 -16 29 -12 47 5 21 12 25
46 25 35 0 40 -3 46 -27 5 -19 2 -30 -10 -39 -10 -7 -16 -22 -14 -36 l3 -23
28 27 c43 43 30 108 -26 128 -16 5 -30 10 -31 9 -1 0 -13 -5 -27 -10z"/>
<path d="M42 5763 l-2 -53 33 1 c29 1 30 2 7 8 -21 6 -26 15 -31 51 l-6 45 -1
-52z"/>
<path d="M10402 5798 c-16 -16 -15 -63 2 -77 7 -6 25 -10 40 -9 20 2 26 8 26
25 0 17 -6 23 -22 22 -19 0 -20 -2 -6 -7 23 -9 7 -35 -18 -30 -14 2 -19 12
-19 38 0 29 4 36 23 38 12 2 22 -1 22 -7 0 -6 5 -11 11 -11 8 0 8 5 -1 15 -15
18 -42 19 -58 3z"/>
<path d="M10582 5760 c0 -45 1 -50 8 -27 5 15 5 39 0 55 -7 22 -8 17 -8 -28z"/>
<path d="M10637 5784 c-2 -15 -1 -38 3 -53 7 -21 8 -16 9 27 1 56 -4 67 -12
26z"/>
<path d="M10761 5764 c-1 -49 0 -51 27 -50 23 1 27 5 27 31 0 23 -5 31 -22 33
-12 2 -24 11 -26 20 -3 9 -5 -6 -6 -34z m47 -16 c-2 -13 -10 -23 -18 -23 -8 0
-16 10 -18 23 -3 17 2 22 18 22 16 0 21 -5 18 -22z"/>
<path d="M10528 5787 c-7 -21 6 -70 20 -73 7 -1 8 0 2 3 -12 6 -13 50 -1 55 5
2 3 8 -4 15 -10 9 -14 9 -17 0z"/>
<path d="M124 5766 c-11 -29 0 -51 26 -51 21 0 25 5 25 30 0 24 -5 31 -23 33
-13 2 -24 -3 -28 -12z m44 -18 c-2 -13 -10 -23 -18 -23 -8 0 -16 10 -18 23 -3
17 2 22 18 22 16 0 21 -5 18 -22z"/>
<path d="M204 5765 c-8 -20 2 -45 18 -44 10 0 10 2 1 6 -21 8 -15 43 7 43 16
0 19 -6 18 -36 -1 -32 -4 -35 -25 -31 -16 3 -21 1 -15 -5 6 -6 18 -8 28 -6 14
2 20 14 22 46 3 39 2 42 -23 42 -14 0 -28 -7 -31 -15z"/>
<path d="M293 5745 c0 -22 2 -30 4 -17 2 12 2 30 0 40 -3 9 -5 -1 -4 -23z"/>
<path d="M322 5743 c1 -37 1 -37 5 -5 6 42 40 46 46 5 4 -26 4 -26 3 2 -1 25
-6 31 -28 33 -26 3 -28 1 -26 -35z"/>
<path d="M10493 5745 c0 -22 2 -30 4 -17 2 12 2 30 0 40 -3 9 -5 -1 -4 -23z"/>
<path d="M10681 5748 c-1 -30 3 -38 17 -38 11 0 13 3 5 8 -6 4 -13 21 -16 37
-4 27 -4 27 -6 -7z"/>
<path d="M10723 5745 c0 -22 2 -30 4 -17 2 12 2 30 0 40 -3 9 -5 -1 -4 -23z"/>
<path d="M3200 4629 c0 -29 33 -120 43 -116 6 2 16 21 22 43 l12 39 12 -43 c7
-25 17 -42 24 -39 7 2 20 32 29 66 11 43 13 61 5 58 -6 -2 -16 -23 -22 -48
-12 -48 -19 -44 -30 14 -9 49 -26 43 -40 -14 -12 -48 -19 -44 -30 14 -7 33
-25 53 -25 26z"/>
<path d="M3477 4629 c-5 -9 -7 -38 -5 -65 2 -39 7 -50 23 -53 16 -3 17 -1 8
11 -7 7 -13 38 -15 68 -2 36 -6 49 -11 39z"/>
<path d="M4280 4575 c0 -72 17 -90 22 -22 l3 42 23 -42 c34 -65 52 -57 52 22
0 75 -17 89 -22 18 l-3 -48 -28 48 c-16 26 -33 47 -38 47 -5 0 -9 -29 -9 -65z"/>
<path d="M4740 4630 c0 -5 5 -10 10 -10 6 0 10 5 10 10 0 6 -4 10 -10 10 -5 0
-10 -4 -10 -10z"/>
<path d="M4951 4584 c-24 -63 -25 -74 -11 -74 6 0 10 7 10 15 0 22 56 20 69
-2 5 -10 12 -16 15 -13 8 9 -38 130 -50 130 -6 0 -21 -25 -33 -56z m46 -20
c-3 -3 -12 -4 -20 -2 -11 2 -12 9 -5 28 l10 25 11 -23 c5 -12 8 -25 4 -28z"/>
<path d="M5073 4575 c0 -38 2 -53 4 -32 2 20 2 52 0 70 -2 17 -4 1 -4 -38z"/>
<path d="M5175 4626 c-22 -16 -26 -76 -6 -100 17 -20 65 -21 81 -1 16 19 5 34
-12 17 -33 -33 -80 9 -59 54 11 26 40 31 59 12 6 -6 15 -8 19 -4 10 9 -25 36
-47 36 -9 0 -25 -6 -35 -14z"/>
<path d="M5290 4576 c0 -70 17 -92 22 -28 2 25 8 37 18 37 10 0 16 -12 18 -37
4 -47 22 -50 22 -4 0 38 -23 68 -45 60 -9 -4 -15 0 -15 9 0 9 -4 19 -10 22 -6
4 -10 -18 -10 -59z"/>
<path d="M5570 4577 l0 -64 35 -1 c35 -1 55 17 55 52 0 23 -30 47 -51 41 -14
-5 -19 -1 -19 14 0 12 -4 21 -10 21 -6 0 -10 -28 -10 -63z m68 -10 c5 -23 -16
-47 -34 -40 -14 5 -19 44 -7 57 12 12 38 1 41 -17z"/>
<path d="M5860 4595 c0 -25 5 -45 10 -45 6 0 10 20 10 45 0 25 -4 45 -10 45
-5 0 -10 -20 -10 -45z"/>
<path d="M4052 4610 c-7 -12 -8 -20 -2 -20 5 0 10 -16 10 -35 0 -35 22 -57 38
-40 4 4 1 10 -5 12 -7 3 -13 17 -13 33 0 16 6 31 13 33 10 4 10 6 0 6 -7 1
-13 8 -13 16 0 21 -13 19 -28 -5z"/>
<path d="M4617 4618 c-2 -7 -1 -33 2 -58 4 -32 11 -46 24 -48 9 -2 17 1 17 7
0 6 -4 11 -10 11 -5 0 -10 14 -10 30 0 17 5 30 10 30 6 0 5 8 -2 20 -15 23
-24 25 -31 8z"/>
<path d="M5503 4618 c-10 -17 -4 -79 9 -95 12 -15 38 -17 38 -3 0 6 -7 10 -15
10 -19 0 -21 57 -2 62 9 2 8 8 -5 20 -12 13 -19 14 -25 6z"/>
<path d="M5792 4609 c-8 -12 -8 -20 -2 -24 6 -3 10 -20 10 -36 0 -17 6 -32 15
-36 23 -8 33 7 12 18 -20 12 -23 45 -4 56 11 6 10 11 -3 24 -16 15 -18 15 -28
-2z"/>
<path d="M3380 4590 c-23 -23 -24 -33 -10 -61 13 -23 52 -25 70 -4 14 17 7 19
-20 5 -13 -7 -21 -6 -30 5 -11 13 -7 15 24 15 40 0 47 17 20 44 -20 21 -30 20
-54 -4z m43 -15 c1 -5 -6 -11 -15 -13 -11 -2 -18 3 -18 13 0 17 30 18 33 0z"/>
<path d="M3540 4590 c-23 -23 -24 -33 -10 -61 12 -22 52 -25 69 -5 10 12 6 14
-21 13 -34 -2 -46 15 -28 43 8 13 13 13 31 2 27 -17 40 -5 15 14 -26 18 -32
18 -56 -6z"/>
<path d="M3648 4599 c-22 -12 -24 -62 -4 -79 25 -20 60 -8 71 24 8 24 6 31
-14 47 -27 22 -30 22 -53 8z m47 -39 c0 -18 -6 -26 -22 -28 -18 -3 -23 1 -23
21 0 28 9 39 30 35 9 -2 15 -14 15 -28z"/>
<path d="M3763 4602 c-20 -3 -23 -10 -23 -48 0 -54 18 -59 22 -6 4 52 31 50
39 -3 4 -28 7 -32 8 -13 2 38 11 58 27 58 10 0 14 -12 14 -40 0 -22 5 -40 10
-40 6 0 10 17 10 39 0 43 -23 72 -42 53 -6 -6 -18 -8 -27 -4 -9 5 -26 6 -38 4z"/>
<path d="M3916 4597 c-22 -16 -25 -65 -5 -78 21 -13 45 -11 59 6 11 13 8 14
-19 9 -20 -4 -31 -3 -31 5 0 6 14 11 30 11 23 0 30 4 30 20 0 10 -9 24 -19 30
-25 13 -24 13 -45 -3z m44 -22 c0 -8 -9 -15 -20 -15 -11 0 -20 7 -20 15 0 8 9
15 20 15 11 0 20 -7 20 -15z"/>
<path d="M4136 4595 c-32 -32 -14 -85 29 -85 37 0 59 44 37 76 -13 21 -49 25
-66 9z m52 -28 c5 -27 -17 -50 -34 -36 -15 12 -19 41 -7 53 12 12 38 1 41 -17z"/>
<path d="M4420 4590 c-23 -23 -24 -33 -10 -61 13 -23 52 -25 70 -4 14 17 7 19
-20 5 -13 -7 -21 -6 -30 5 -11 13 -7 15 24 15 40 0 47 17 20 44 -20 21 -30 20
-54 -4z m43 -15 c1 -5 -6 -11 -15 -13 -11 -2 -18 3 -18 13 0 17 30 18 33 0z"/>
<path d="M4803 4603 c-25 -10 -14 -41 20 -52 25 -9 29 -14 17 -21 -9 -5 -19
-5 -27 2 -15 13 -28 4 -18 -11 9 -15 50 -14 63 2 13 16 3 34 -22 38 -11 2 -21
10 -24 18 -3 10 2 12 22 7 28 -7 37 8 10 18 -18 7 -23 7 -41 -1z"/>
<path d="M5404 4595 c-18 -14 -17 -14 14 -9 41 8 43 -10 1 -25 -47 -16 -36
-46 18 -47 l41 -1 -5 36 c-5 32 -25 61 -43 61 -3 0 -15 -7 -26 -15z m46 -54
c0 -11 -26 -22 -34 -14 -12 12 -5 23 14 23 11 0 20 -4 20 -9z"/>
<path d="M5698 4599 c-22 -12 -24 -62 -4 -79 25 -20 60 -8 71 24 8 24 6 31
-14 47 -27 22 -30 22 -53 8z m47 -39 c0 -18 -6 -26 -22 -28 -18 -3 -23 1 -23
21 0 28 9 39 30 35 9 -2 15 -14 15 -28z"/>
<path d="M4510 4592 c0 -4 5 -13 11 -19 9 -9 8 -18 -5 -37 -18 -28 -7 -36 14
-11 12 14 15 14 30 0 25 -23 32 -18 15 9 -13 19 -14 29 -5 45 11 22 1 28 -17
10 -8 -8 -13 -8 -17 0 -8 13 -26 15 -26 3z"/>
<path d="M4740 4551 c0 -30 -5 -51 -12 -54 -7 -2 -10 -7 -7 -11 3 -3 14 -4 23
0 12 5 16 19 16 60 0 30 -4 54 -10 54 -5 0 -10 -22 -10 -49z"/>
<path d="M4690 4520 c0 -5 5 -10 10 -10 6 0 10 5 10 10 0 6 -4 10 -10 10 -5 0
-10 -4 -10 -10z"/>
<path d="M5860 4520 c0 -5 5 -10 10 -10 6 0 10 5 10 10 0 6 -4 10 -10 10 -5 0
-10 -4 -10 -10z"/>
<path d="M3218 4283 c12 -2 30 -2 40 0 9 3 -1 5 -23 4 -22 0 -30 -2 -17 -4z"/>
<path d="M5350 4260 c0 -5 5 -10 11 -10 5 0 7 5 4 10 -3 6 -8 10 -11 10 -2 0
-4 -4 -4 -10z"/>
<path d="M6020 4260 c0 -5 5 -10 11 -10 5 0 7 5 4 10 -3 6 -8 10 -11 10 -2 0
-4 -4 -4 -10z"/>
<path d="M7250 4260 c0 -5 5 -10 11 -10 5 0 7 5 4 10 -3 6 -8 10 -11 10 -2 0
-4 -4 -4 -10z"/>
<path d="M3300 4249 c0 -5 5 -7 10 -4 6 3 10 8 10 11 0 2 -4 4 -10 4 -5 0 -10
-5 -10 -11z"/>
<path d="M3595 4250 c-8 -13 3 -30 18 -30 8 0 7 3 -2 9 -7 5 -10 14 -7 20 4 6
5 11 2 11 -3 0 -8 -4 -11 -10z"/>
<path d="M5170 4249 c0 -5 5 -7 10 -4 6 3 10 8 10 11 0 2 -4 4 -10 4 -5 0 -10
-5 -10 -11z"/>
<path d="M5410 4249 c0 -5 5 -7 10 -4 6 3 10 8 10 11 0 2 -4 4 -10 4 -5 0 -10
-5 -10 -11z"/>
<path d="M6720 4249 c0 -5 5 -7 10 -4 6 3 10 8 10 11 0 2 -4 4 -10 4 -5 0 -10
-5 -10 -11z"/>
<path d="M8200 4249 c0 -5 5 -7 10 -4 6 3 10 8 10 11 0 2 -4 4 -10 4 -5 0 -10
-5 -10 -11z"/>
<path d="M3755 4230 c-19 -8 -19 -9 3 -9 12 -1 22 4 22 9 0 6 -1 10 -2 9 -2 0
-12 -4 -23 -9z"/>
<path d="M4760 4228 c0 -4 16 -8 35 -8 19 0 35 2 35 4 0 2 -16 6 -35 8 -19 2
-35 0 -35 -4z"/>
<path d="M4950 4226 c0 -8 4 -17 9 -20 5 -4 7 3 4 14 -6 23 -13 26 -13 6z"/>
<path d="M5300 4230 c-13 -8 -12 -10 3 -10 9 0 17 5 17 10 0 12 -1 12 -20 0z"/>
<path d="M6070 4228 c0 -4 16 -8 35 -8 19 0 35 2 35 4 0 2 -16 6 -35 8 -19 2
-35 0 -35 -4z"/>
<path d="M6361 4224 c0 -11 3 -14 6 -6 3 7 2 16 -1 19 -3 4 -6 -2 -5 -13z"/>
<path d="M6480 4230 c-13 -8 -12 -10 3 -10 9 0 17 5 17 10 0 12 -1 12 -20 0z"/>
<path d="M6580 4228 c0 -5 16 -8 35 -8 19 0 35 3 35 8 0 4 -16 7 -35 7 -19 0
-35 -3 -35 -7z"/>
<path d="M7550 4228 c0 -5 16 -8 35 -8 19 0 35 3 35 8 0 4 -16 7 -35 7 -19 0
-35 -3 -35 -7z"/>
<path d="M4143 4223 c9 -2 25 -2 35 0 9 3 1 5 -18 5 -19 0 -27 -2 -17 -5z"/>
<path d="M5728 4223 c7 -3 16 -2 19 1 4 3 -2 6 -13 5 -11 0 -14 -3 -6 -6z"/>
<path d="M8303 4223 c9 -2 25 -2 35 0 9 3 1 5 -18 5 -19 0 -27 -2 -17 -5z"/>
<path d="M3476 4206 c6 -16 4 -18 -19 -14 -15 3 -24 1 -21 -3 7 -13 42 -11 50
2 3 6 1 16 -5 22 -9 9 -10 7 -5 -7z"/>
<path d="M4396 4206 c6 -16 4 -18 -19 -14 -15 3 -24 1 -21 -3 7 -13 42 -11 50
2 3 6 1 16 -5 22 -9 9 -10 7 -5 -7z"/>
<path d="M7656 4212 c-2 -4 4 -8 14 -8 10 0 16 4 14 8 -3 4 -9 8 -14 8 -5 0
-11 -4 -14 -8z"/>
<path d="M3765 4200 c-3 -5 -1 -10 4 -10 6 0 11 5 11 10 0 6 -2 10 -4 10 -3 0
-8 -4 -11 -10z"/>
<path d="M3625 4190 c-16 -7 -17 -9 -3 -9 9 -1 20 4 23 9 7 11 7 11 -20 0z"/>
<path d="M4138 4188 c5 -5 16 -8 23 -6 8 3 3 7 -10 11 -17 4 -21 3 -13 -5z"/>
<path d="M4448 4188 c5 -5 16 -8 23 -6 8 3 3 7 -10 11 -17 4 -21 3 -13 -5z"/>
<path d="M4537 4189 c7 -7 15 -10 18 -7 3 3 -2 9 -12 12 -14 6 -15 5 -6 -5z"/>
<path d="M4688 4188 c5 -5 16 -8 23 -6 8 3 3 7 -10 11 -17 4 -21 3 -13 -5z"/>
<path d="M4795 4190 c-16 -7 -17 -9 -3 -9 9 -1 20 4 23 9 7 11 7 11 -20 0z"/>
<path d="M5115 4190 c-16 -7 -17 -9 -3 -9 9 -1 20 4 23 9 7 11 7 11 -20 0z"/>
<path d="M5445 4190 c-16 -7 -17 -9 -3 -9 9 -1 20 4 23 9 7 11 7 11 -20 0z"/>
<path d="M5535 4190 c-16 -7 -17 -9 -3 -9 9 -1 20 4 23 9 7 11 7 11 -20 0z"/>
<path d="M5698 4188 c5 -5 16 -8 23 -6 8 3 3 7 -10 11 -17 4 -21 3 -13 -5z"/>
<path d="M5915 4190 c-16 -7 -17 -9 -3 -9 9 -1 20 4 23 9 7 11 7 11 -20 0z"/>
<path d="M6105 4190 c-16 -7 -17 -9 -3 -9 9 -1 20 4 23 9 7 11 7 11 -20 0z"/>
<path d="M6335 4190 c-16 -7 -17 -9 -3 -9 9 -1 20 4 23 9 7 11 7 11 -20 0z"/>
<path d="M6598 4188 c5 -5 16 -8 23 -6 8 3 3 7 -10 11 -17 4 -21 3 -13 -5z"/>
<path d="M6755 4190 c-16 -7 -17 -9 -3 -9 9 -1 20 4 23 9 7 11 7 11 -20 0z"/>
<path d="M7568 4188 c5 -5 16 -8 23 -6 8 3 3 7 -10 11 -17 4 -21 3 -13 -5z"/>
<path d="M7878 4188 c5 -5 16 -8 23 -6 8 3 3 7 -10 11 -17 4 -21 3 -13 -5z"/>
<path d="M8325 4190 c-16 -7 -17 -9 -3 -9 9 -1 20 4 23 9 7 11 7 11 -20 0z"/>
<path d="M3968 4183 c7 -3 16 -2 19 1 4 3 -2 6 -13 5 -11 0 -14 -3 -6 -6z"/>
<path d="M5278 4183 c7 -3 16 -2 19 1 4 3 -2 6 -13 5 -11 0 -14 -3 -6 -6z"/>
<path d="M6458 4183 c7 -3 16 -2 19 1 4 3 -2 6 -13 5 -11 0 -14 -3 -6 -6z"/>
<path d="M6828 4183 c7 -3 16 -2 19 1 4 3 -2 6 -13 5 -11 0 -14 -3 -6 -6z"/>
<path d="M3940 4046 c0 -2 7 -7 16 -10 8 -3 12 -2 9 4 -6 10 -25 14 -25 6z"/>
<path d="M4010 4046 c0 -2 15 -6 34 -8 19 -2 32 0 30 4 -5 8 -64 12 -64 4z"/>
<path d="M5263 4020 c-32 -28 -48 -55 -20 -31 8 6 17 9 20 6 4 -3 5 -2 2 2 -3
3 5 17 17 30 30 32 19 28 -19 -7z"/>
<path d="M4143 4011 c-25 -21 -30 -33 -10 -25 10 4 43 45 35 44 -2 -1 -13 -9
-25 -19z"/>
<path d="M4641 4004 c0 -11 3 -14 6 -6 3 7 2 16 -1 19 -3 4 -6 -2 -5 -13z"/>
<path d="M3300 3988 c0 -5 16 -8 35 -8 19 0 35 3 35 8 0 4 -16 7 -35 7 -19 0
-35 -3 -35 -7z"/>
<path d="M3770 3986 c0 -8 4 -17 9 -20 5 -4 7 3 4 14 -6 23 -13 26 -13 6z"/>
<path d="M3958 3982 c9 -10 19 -17 21 -16 6 5 -20 34 -30 34 -5 0 -1 -8 9 -18z"/>
<path d="M5050 3988 c0 -4 16 -8 35 -8 19 0 35 2 35 4 0 2 -16 6 -35 8 -19 2
-35 0 -35 -4z"/>
<path d="M3553 3983 c9 -2 25 -2 35 0 9 3 1 5 -18 5 -19 0 -27 -2 -17 -5z"/>
<path d="M4438 3983 c7 -3 16 -2 19 1 4 3 -2 6 -13 5 -11 0 -14 -3 -6 -6z"/>
<path d="M4833 3983 c9 -2 25 -2 35 0 9 3 1 5 -18 5 -19 0 -27 -2 -17 -5z"/>
<path d="M3241 3961 c-8 -5 -9 -11 -3 -15 5 -3 12 1 16 9 6 17 6 18 -13 6z"/>
<path d="M3318 3948 c5 -5 16 -8 23 -6 8 3 3 7 -10 11 -17 4 -21 3 -13 -5z"/>
<path d="M3485 3950 c-16 -7 -17 -9 -3 -9 9 -1 20 4 23 9 7 11 7 11 -20 0z"/>
<path d="M3548 3948 c5 -5 16 -8 23 -6 8 3 3 7 -10 11 -17 4 -21 3 -13 -5z"/>
<path d="M3918 3948 c6 -6 18 -8 28 -6 14 3 12 5 -9 10 -19 3 -25 2 -19 -4z"/>
<path d="M4035 3950 l-30 -8 27 -1 c15 0 30 4 33 9 3 6 5 9 3 9 -2 -1 -16 -5
-33 -9z"/>
<path d="M4408 3948 c5 -5 16 -8 23 -6 8 3 3 7 -10 11 -17 4 -21 3 -13 -5z"/>
<path d="M4598 3948 c5 -5 16 -8 23 -6 8 3 3 7 -10 11 -17 4 -21 3 -13 -5z"/>
<path d="M4750 3949 c0 -5 5 -7 10 -4 6 3 10 8 10 11 0 2 -4 4 -10 4 -5 0 -10
-5 -10 -11z"/>
<path d="M4855 3950 c-16 -7 -17 -9 -3 -9 9 -1 20 4 23 9 7 11 7 11 -20 0z"/>
<path d="M4978 3948 c5 -5 16 -8 23 -6 8 3 3 7 -10 11 -17 4 -21 3 -13 -5z"/>
<path d="M5085 3950 c-16 -7 -17 -9 -3 -9 9 -1 20 4 23 9 7 11 7 11 -20 0z"/>
<path d="M5365 3950 c3 -5 8 -10 11 -10 2 0 4 5 4 10 0 6 -5 10 -11 10 -5 0
-7 -4 -4 -10z"/>
<path d="M3740 3726 c0 -2 15 -6 34 -8 19 -2 32 0 30 4 -5 8 -64 12 -64 4z"/>
<path d="M4745 3720 c-3 -6 1 -7 9 -4 18 7 21 14 7 14 -6 0 -13 -4 -16 -10z"/>
<path d="M3250 3700 c0 -5 5 -10 11 -10 5 0 7 5 4 10 -3 6 -8 10 -11 10 -2 0
-4 -4 -4 -10z"/>
<path d="M4110 3700 c0 -5 5 -10 11 -10 5 0 7 5 4 10 -3 6 -8 10 -11 10 -2 0
-4 -4 -4 -10z"/>
<path d="M5535 3700 c-3 -5 -1 -10 4 -10 6 0 11 5 11 10 0 6 -2 10 -4 10 -3 0
-8 -4 -11 -10z"/>
<path d="M6695 3700 c-3 -5 -1 -10 4 -10 6 0 11 5 11 10 0 6 -2 10 -4 10 -3 0
-8 -4 -11 -10z"/>
<path d="M6930 3700 c0 -5 5 -10 11 -10 5 0 7 5 4 10 -3 6 -8 10 -11 10 -2 0
-4 -4 -4 -10z"/>
<path d="M7195 3700 c-3 -5 -1 -10 4 -10 6 0 11 5 11 10 0 6 -2 10 -4 10 -3 0
-8 -4 -11 -10z"/>
<path d="M7895 3700 c-3 -5 -1 -10 4 -10 6 0 11 5 11 10 0 6 -2 10 -4 10 -3 0
-8 -4 -11 -10z"/>
<path d="M5595 3690 c-8 -13 3 -30 18 -30 8 0 7 3 -2 9 -7 5 -10 14 -7 20 4 6
5 11 2 11 -3 0 -8 -4 -11 -10z"/>
<path d="M6300 3657 c4 -41 5 -41 8 -8 2 18 0 37 -5 42 -5 5 -6 -11 -3 -34z"/>
<path d="M6340 3689 c0 -5 5 -7 10 -4 6 3 10 8 10 11 0 2 -4 4 -10 4 -5 0 -10
-5 -10 -11z"/>
<path d="M7441 3684 c0 -11 3 -14 6 -6 3 7 2 16 -1 19 -3 4 -6 -2 -5 -13z"/>
<path d="M3753 3673 c9 -2 23 -2 30 0 6 3 -1 5 -18 5 -16 0 -22 -2 -12 -5z"/>
<path d="M3970 3670 c-13 -8 -12 -10 3 -10 9 0 17 5 17 10 0 12 -1 12 -20 0z"/>
<path d="M4540 3668 c0 -4 16 -8 35 -8 19 0 35 2 35 4 0 2 -16 6 -35 8 -19 2
-35 0 -35 -4z"/>
<path d="M5350 3668 c0 -4 16 -8 35 -8 19 0 35 2 35 4 0 2 -16 6 -35 8 -19 2
-35 0 -35 -4z"/>
<path d="M6401 3662 c-1 -13 -10 -26 -23 -32 -16 -6 -18 -9 -7 -9 22 -1 42 24
36 46 -4 14 -5 13 -6 -5z"/>
<path d="M6856 3655 c-16 -25 -16 -25 2 -14 10 6 19 18 19 25 0 19 -2 18 -21
-11z"/>
<path d="M8070 3668 c0 -4 16 -8 35 -8 19 0 35 2 35 4 0 2 -16 6 -35 8 -19 2
-35 0 -35 -4z"/>
<path d="M8435 3670 c-19 -8 -19 -9 3 -9 12 -1 22 4 22 9 0 6 -1 10 -2 9 -2 0
-12 -4 -23 -9z"/>
<path d="M3533 3663 c9 -2 25 -2 35 0 9 3 1 5 -18 5 -19 0 -27 -2 -17 -5z"/>
<path d="M3853 3663 c9 -2 25 -2 35 0 9 3 1 5 -18 5 -19 0 -27 -2 -17 -5z"/>
<path d="M4323 3663 c9 -2 25 -2 35 0 9 3 1 5 -18 5 -19 0 -27 -2 -17 -5z"/>
<path d="M5042 3645 c0 -16 2 -22 5 -12 2 9 2 23 0 30 -3 6 -5 -1 -5 -18z"/>
<path d="M6573 3663 c9 -2 25 -2 35 0 9 3 1 5 -18 5 -19 0 -27 -2 -17 -5z"/>
<path d="M6763 3663 c9 -2 25 -2 35 0 9 3 1 5 -18 5 -19 0 -27 -2 -17 -5z"/>
<path d="M7493 3663 c9 -2 25 -2 35 0 9 3 1 5 -18 5 -19 0 -27 -2 -17 -5z"/>
<path d="M7673 3663 c9 -2 25 -2 35 0 9 3 1 5 -18 5 -19 0 -27 -2 -17 -5z"/>
<path d="M7838 3663 c7 -3 16 -2 19 1 4 3 -2 6 -13 5 -11 0 -14 -3 -6 -6z"/>
<path d="M4805 3641 c-6 -5 -19 -11 -30 -14 -19 -4 -19 -5 1 -6 12 0 27 6 34
14 14 16 10 20 -5 6z"/>
<path d="M8445 3640 c-3 -5 -1 -10 4 -10 6 0 11 5 11 10 0 6 -2 10 -4 10 -3 0
-8 -4 -11 -10z"/>
<path d="M3357 3629 c7 -7 15 -10 18 -7 3 3 -2 9 -12 12 -14 6 -15 5 -6 -5z"/>
<path d="M3528 3628 c5 -5 16 -8 23 -6 8 3 3 7 -10 11 -17 4 -21 3 -13 -5z"/>
<path d="M3618 3628 c5 -5 16 -8 23 -6 8 3 3 7 -10 11 -17 4 -21 3 -13 -5z"/>
<path d="M3848 3628 c5 -5 16 -8 23 -6 8 3 3 7 -10 11 -17 4 -21 3 -13 -5z"/>
<path d="M4055 3630 c-16 -7 -17 -9 -3 -9 9 -1 20 4 23 9 7 11 7 11 -20 0z"/>
<path d="M4345 3630 c-16 -7 -17 -9 -3 -9 9 -1 20 4 23 9 7 11 7 11 -20 0z"/>
<path d="M4480 3629 c0 -5 5 -7 10 -4 6 3 10 8 10 11 0 2 -4 4 -10 4 -5 0 -10
-5 -10 -11z"/>
<path d="M4575 3630 c-16 -7 -17 -9 -3 -9 9 -1 20 4 23 9 7 11 7 11 -20 0z"/>
<path d="M4858 3628 c5 -5 16 -8 23 -6 8 3 3 7 -10 11 -17 4 -21 3 -13 -5z"/>
<path d="M5115 3630 c-16 -7 -17 -9 -3 -9 9 -1 20 4 23 9 7 11 7 11 -20 0z"/>
<path d="M5205 3630 c-16 -7 -17 -9 -3 -9 9 -1 20 4 23 9 7 11 7 11 -20 0z"/>
<path d="M5385 3630 c-16 -7 -17 -9 -3 -9 9 -1 20 4 23 9 7 11 7 11 -20 0z"/>
<path d="M5547 3629 c7 -7 15 -10 18 -7 3 3 -2 9 -12 12 -14 6 -15 5 -6 -5z"/>
<path d="M5625 3630 c-16 -7 -17 -9 -3 -9 9 -1 20 4 23 9 7 11 7 11 -20 0z"/>
<path d="M5898 3628 c5 -5 16 -8 23 -6 8 3 3 7 -10 11 -17 4 -21 3 -13 -5z"/>
<path d="M6055 3630 c-16 -7 -17 -9 -3 -9 9 -1 20 4 23 9 7 11 7 11 -20 0z"/>
<path d="M6118 3628 c5 -5 16 -8 23 -6 8 3 3 7 -10 11 -17 4 -21 3 -13 -5z"/>
<path d="M6595 3630 c-16 -7 -17 -9 -3 -9 9 -1 20 4 23 9 7 11 7 11 -20 0z"/>
<path d="M6707 3629 c7 -7 15 -10 18 -7 3 3 -2 9 -12 12 -14 6 -15 5 -6 -5z"/>
<path d="M6785 3630 c-16 -7 -17 -9 -3 -9 9 -1 20 4 23 9 7 11 7 11 -20 0z"/>
<path d="M7040 3629 c0 -5 5 -7 10 -4 6 3 10 8 10 11 0 2 -4 4 -10 4 -5 0 -10
-5 -10 -11z"/>
<path d="M7207 3629 c7 -7 15 -10 18 -7 3 3 -2 9 -12 12 -14 6 -15 5 -6 -5z"/>
<path d="M7515 3630 c-16 -7 -17 -9 -3 -9 9 -1 20 4 23 9 7 11 7 11 -20 0z"/>
<path d="M7695 3630 c-16 -7 -17 -9 -3 -9 9 -1 20 4 23 9 7 11 7 11 -20 0z"/>
<path d="M7808 3628 c5 -5 16 -8 23 -6 8 3 3 7 -10 11 -17 4 -21 3 -13 -5z"/>
<path d="M7907 3629 c7 -7 15 -10 18 -7 3 3 -2 9 -12 12 -14 6 -15 5 -6 -5z"/>
<path d="M8010 3629 c0 -5 5 -7 10 -4 6 3 10 8 10 11 0 2 -4 4 -10 4 -5 0 -10
-5 -10 -11z"/>
<path d="M8105 3630 c-16 -7 -17 -9 -3 -9 9 -1 20 4 23 9 7 11 7 11 -20 0z"/>
<path d="M8218 3628 c6 -6 18 -8 28 -6 14 3 12 5 -9 10 -19 3 -25 2 -19 -4z"/>
<path d="M8498 3628 c5 -5 16 -8 23 -6 8 3 3 7 -10 11 -17 4 -21 3 -13 -5z"/>
<path d="M3458 3623 c7 -3 16 -2 19 1 4 3 -2 6 -13 5 -11 0 -14 -3 -6 -6z"/>
<path d="M3948 3623 c7 -3 16 -2 19 1 4 3 -2 6 -13 5 -11 0 -14 -3 -6 -6z"/>
<path d="M4238 3623 c7 -3 16 -2 19 1 4 3 -2 6 -13 5 -11 0 -14 -3 -6 -6z"/>
<path d="M4400 3476 c0 -8 7 -16 15 -20 13 -4 14 -2 5 14 -13 23 -20 26 -20 6z"/>
<path d="M4487 3471 c-4 -17 -3 -21 5 -13 5 5 8 16 6 23 -3 8 -7 3 -11 -10z"/>
<path d="M4628 3483 c12 -2 30 -2 40 0 9 3 -1 5 -23 4 -22 0 -30 -2 -17 -4z"/>
<path d="M7210 3486 c0 -2 7 -7 16 -10 8 -3 12 -2 9 4 -6 10 -25 14 -25 6z"/>
<path d="M7280 3486 c0 -2 15 -6 34 -8 19 -2 32 0 30 4 -5 8 -64 12 -64 4z"/>
<path d="M3640 3460 c0 -5 5 -10 11 -10 5 0 7 5 4 10 -3 6 -8 10 -11 10 -2 0
-4 -4 -4 -10z"/>
<path d="M5205 3460 c-3 -5 -1 -10 4 -10 6 0 11 5 11 10 0 6 -2 10 -4 10 -3 0
-8 -4 -11 -10z"/>
<path d="M6275 3460 c-3 -5 -1 -10 4 -10 6 0 11 5 11 10 0 6 -2 10 -4 10 -3 0
-8 -4 -11 -10z"/>
<path d="M7413 3451 c-25 -21 -30 -33 -10 -25 10 4 43 45 35 44 -2 -1 -13 -9
-25 -19z"/>
<path d="M6191 3444 c0 -11 3 -14 6 -6 3 7 2 16 -1 19 -3 4 -6 -2 -5 -13z"/>
<path d="M6950 3449 c0 -5 5 -7 10 -4 6 3 10 8 10 11 0 2 -4 4 -10 4 -5 0 -10
-5 -10 -11z"/>
<path d="M7810 3449 c0 -5 5 -7 10 -4 6 3 10 8 10 11 0 2 -4 4 -10 4 -5 0 -10
-5 -10 -11z"/>
<path d="M8130 3417 c4 -41 5 -41 8 -8 2 18 0 37 -5 42 -5 5 -6 -11 -3 -34z"/>
<path d="M3511 3424 c0 -11 3 -14 6 -6 3 7 2 16 -1 19 -3 4 -6 -2 -5 -13z"/>
<path d="M4080 3428 c0 -4 16 -8 35 -8 19 0 35 2 35 4 0 2 -16 6 -35 8 -19 2
-35 0 -35 -4z"/>
<path d="M4790 3428 c0 -5 16 -8 35 -8 19 0 35 3 35 8 0 4 -16 7 -35 7 -19 0
-35 -3 -35 -7z"/>
<path d="M6040 3428 c0 -5 16 -8 35 -8 19 0 35 3 35 8 0 4 -16 7 -35 7 -19 0
-35 -3 -35 -7z"/>
<path d="M7228 3422 c9 -10 19 -17 21 -16 6 5 -20 34 -30 34 -5 0 -1 -8 9 -18z"/>
<path d="M8350 3428 c0 -5 16 -8 35 -8 19 0 35 3 35 8 0 4 -16 7 -35 7 -19 0
-35 -3 -35 -7z"/>
<path d="M5298 3423 c7 -3 16 -2 19 1 4 3 -2 6 -13 5 -11 0 -14 -3 -6 -6z"/>
<path d="M5423 3423 c9 -2 25 -2 35 0 9 3 1 5 -18 5 -19 0 -27 -2 -17 -5z"/>
<path d="M7053 3423 c9 -2 25 -2 35 0 9 3 1 5 -18 5 -19 0 -27 -2 -17 -5z"/>
<path d="M7913 3423 c9 -2 25 -2 35 0 9 3 1 5 -18 5 -19 0 -27 -2 -17 -5z"/>
<path d="M5166 3406 c6 -16 4 -18 -19 -14 -15 3 -24 1 -21 -3 7 -13 42 -11 50
2 3 6 1 16 -5 22 -9 9 -10 7 -5 -7z"/>
<path d="M5746 3406 c6 -16 4 -18 -19 -14 -15 3 -24 1 -21 -3 7 -13 42 -11 50
2 3 6 1 16 -5 22 -9 9 -10 7 -5 -7z"/>
<path d="M7576 3406 c6 -16 4 -18 -19 -14 -15 3 -24 1 -21 -3 7 -13 42 -11 50
2 3 6 1 16 -5 22 -9 9 -10 7 -5 -7z"/>
<path d="M8616 3406 c6 -16 4 -18 -19 -14 -15 3 -24 1 -21 -3 7 -13 42 -11 50
2 3 6 1 16 -5 22 -9 9 -10 7 -5 -7z"/>
<path d="M4451 3401 c-8 -5 -9 -11 -3 -15 5 -3 12 1 16 9 6 17 6 18 -13 6z"/>
<path d="M6667 3399 c7 -7 15 -10 18 -7 3 3 -2 9 -12 12 -14 6 -15 5 -6 -5z"/>
<path d="M3218 3388 c5 -5 16 -8 23 -6 8 3 3 7 -10 11 -17 4 -21 3 -13 -5z"/>
<path d="M3307 3389 c7 -7 15 -10 18 -7 3 3 -2 9 -12 12 -14 6 -15 5 -6 -5z"/>
<path d="M3485 3390 c-16 -7 -17 -9 -3 -9 9 -1 20 4 23 9 7 11 7 11 -20 0z"/>
<path d="M3748 3388 c5 -5 16 -8 23 -6 8 3 3 7 -10 11 -17 4 -21 3 -13 -5z"/>
<path d="M4115 3390 c-16 -7 -17 -9 -3 -9 9 -1 20 4 23 9 7 11 7 11 -20 0z"/>
<path d="M4808 3388 c5 -5 16 -8 23 -6 8 3 3 7 -10 11 -17 4 -21 3 -13 -5z"/>
<path d="M5217 3389 c7 -7 15 -10 18 -7 3 3 -2 9 -12 12 -14 6 -15 5 -6 -5z"/>
<path d="M5268 3388 c5 -5 16 -8 23 -6 8 3 3 7 -10 11 -17 4 -21 3 -13 -5z"/>
<path d="M5418 3388 c5 -5 16 -8 23 -6 8 3 3 7 -10 11 -17 4 -21 3 -13 -5z"/>
<path d="M5805 3390 c3 -5 8 -10 11 -10 2 0 4 5 4 10 0 6 -5 10 -11 10 -5 0
-7 -4 -4 -10z"/>
<path d="M5968 3388 c5 -5 16 -8 23 -6 8 3 3 7 -10 11 -17 4 -21 3 -13 -5z"/>
<path d="M6058 3388 c5 -5 16 -8 23 -6 8 3 3 7 -10 11 -17 4 -21 3 -13 -5z"/>
<path d="M6148 3388 c5 -5 16 -8 23 -6 8 3 3 7 -10 11 -17 4 -21 3 -13 -5z"/>
<path d="M6287 3389 c7 -7 15 -10 18 -7 3 3 -2 9 -12 12 -14 6 -15 5 -6 -5z"/>
<path d="M6515 3390 c-16 -7 -17 -9 -3 -9 9 -1 20 4 23 9 7 11 7 11 -20 0z"/>
<path d="M7075 3390 c-16 -7 -17 -9 -3 -9 9 -1 20 4 23 9 7 11 7 11 -20 0z"/>
<path d="M7188 3388 c6 -6 18 -8 28 -6 14 3 12 5 -9 10 -19 3 -25 2 -19 -4z"/>
<path d="M7305 3390 l-30 -8 27 -1 c15 0 30 4 33 9 3 6 5 9 3 9 -2 -1 -16 -5
-33 -9z"/>
<path d="M7935 3390 c-16 -7 -17 -9 -3 -9 9 -1 20 4 23 9 7 11 7 11 -20 0z"/>
<path d="M8178 3388 c5 -5 16 -8 23 -6 8 3 3 7 -10 11 -17 4 -21 3 -13 -5z"/>
<path d="M8268 3388 c5 -5 16 -8 23 -6 8 3 3 7 -10 11 -17 4 -21 3 -13 -5z"/>
<path d="M8368 3388 c5 -5 16 -8 23 -6 8 3 3 7 -10 11 -17 4 -21 3 -13 -5z"/>
<path d="M4233 3383 c9 -2 25 -2 35 0 9 3 1 5 -18 5 -19 0 -27 -2 -17 -5z"/>
<path d="M4323 3383 c9 -2 25 -2 35 0 9 3 1 5 -18 5 -19 0 -27 -2 -17 -5z"/>
<path d="M4958 3383 c7 -3 16 -2 19 1 4 3 -2 6 -13 5 -11 0 -14 -3 -6 -6z"/>
<path d="M5598 3383 c7 -3 16 -2 19 1 4 3 -2 6 -13 5 -11 0 -14 -3 -6 -6z"/>
<path d="M7638 3383 c7 -3 16 -2 19 1 4 3 -2 6 -13 5 -11 0 -14 -3 -6 -6z"/>
<path d="M4390 3220 c0 -5 5 -10 11 -10 5 0 7 5 4 10 -3 6 -8 10 -11 10 -2 0
-4 -4 -4 -10z"/>
<path d="M4770 3220 c0 -5 5 -10 11 -10 5 0 7 5 4 10 -3 6 -8 10 -11 10 -2 0
-4 -4 -4 -10z"/>
<path d="M5450 3209 c0 -5 5 -7 10 -4 6 3 10 8 10 11 0 2 -4 4 -10 4 -5 0 -10
-5 -10 -11z"/>
<path d="M3460 3190 c-13 -8 -12 -10 3 -10 9 0 17 5 17 10 0 12 -1 12 -20 0z"/>
<path d="M4440 3188 c0 -4 16 -8 35 -8 19 0 35 2 35 4 0 2 -16 6 -35 8 -19 2
-35 0 -35 -4z"/>
<path d="M4625 3190 c-19 -8 -19 -9 3 -9 12 -1 22 4 22 9 0 6 -1 10 -2 9 -2 0
-12 -4 -23 -9z"/>
<path d="M5210 3190 c-13 -8 -12 -10 3 -10 9 0 17 5 17 10 0 12 -1 12 -20 0z"/>
<path d="M6120 3188 c0 -4 16 -8 35 -8 19 0 35 2 35 4 0 2 -16 6 -35 8 -19 2
-35 0 -35 -4z"/>
<path d="M3238 3183 c7 -3 16 -2 19 1 4 3 -2 6 -13 5 -11 0 -14 -3 -6 -6z"/>
<path d="M3583 3183 c9 -2 25 -2 35 0 9 3 1 5 -18 5 -19 0 -27 -2 -17 -5z"/>
<path d="M5553 3183 c9 -2 25 -2 35 0 9 3 1 5 -18 5 -19 0 -27 -2 -17 -5z"/>
<path d="M5878 3183 c7 -3 16 -2 19 1 4 3 -2 6 -13 5 -11 0 -14 -3 -6 -6z"/>
<path d="M5306 3166 c6 -16 4 -18 -19 -14 -15 3 -24 1 -21 -3 7 -13 42 -11 50
2 3 6 1 16 -5 22 -9 9 -10 7 -5 -7z"/>
<path d="M4635 3160 c-3 -5 -1 -10 4 -10 6 0 11 5 11 10 0 6 -2 10 -4 10 -3 0
-8 -4 -11 -10z"/>
<path d="M3208 3148 c5 -5 16 -8 23 -6 8 3 3 7 -10 11 -17 4 -21 3 -13 -5z"/>
<path d="M3365 3150 c3 -5 8 -10 11 -10 2 0 4 5 4 10 0 6 -5 10 -11 10 -5 0
-7 -4 -4 -10z"/>
<path d="M3578 3148 c5 -5 16 -8 23 -6 8 3 3 7 -10 11 -17 4 -21 3 -13 -5z"/>
<path d="M3708 3148 c5 -5 16 -8 23 -6 8 3 3 7 -10 11 -17 4 -21 3 -13 -5z"/>
<path d="M3910 3149 c0 -5 5 -7 10 -4 6 3 10 8 10 11 0 2 -4 4 -10 4 -5 0 -10
-5 -10 -11z"/>
<path d="M4475 3150 c-16 -7 -17 -9 -3 -9 9 -1 20 4 23 9 7 11 7 11 -20 0z"/>
<path d="M4688 3148 c5 -5 16 -8 23 -6 8 3 3 7 -10 11 -17 4 -21 3 -13 -5z"/>
<path d="M4878 3148 c5 -5 16 -8 23 -6 8 3 3 7 -10 11 -17 4 -21 3 -13 -5z"/>
<path d="M5058 3148 c5 -5 16 -8 23 -6 8 3 3 7 -10 11 -17 4 -21 3 -13 -5z"/>
<path d="M5575 3150 c-16 -7 -17 -9 -3 -9 9 -1 20 4 23 9 7 11 7 11 -20 0z"/>
<path d="M5848 3148 c5 -5 16 -8 23 -6 8 3 3 7 -10 11 -17 4 -21 3 -13 -5z"/>
<path d="M6065 3150 c-16 -7 -17 -9 -3 -9 9 -1 20 4 23 9 7 11 7 11 -20 0z"/>
<path d="M6155 3150 c-16 -7 -17 -9 -3 -9 9 -1 20 4 23 9 7 11 7 11 -20 0z"/>
<path d="M3438 3143 c7 -3 16 -2 19 1 4 3 -2 6 -13 5 -11 0 -14 -3 -6 -6z"/>
<path d="M3998 3143 c7 -3 16 -2 19 1 4 3 -2 6 -13 5 -11 0 -14 -3 -6 -6z"/>
<path d="M5188 3143 c7 -3 16 -2 19 1 4 3 -2 6 -13 5 -11 0 -14 -3 -6 -6z"/>
<path d="M3040 2821 c0 -23 23 -91 31 -91 4 0 10 14 14 30 7 32 25 32 25 0 0
-29 19 -34 29 -8 16 44 21 78 12 78 -5 0 -12 -17 -16 -37 -5 -27 -9 -33 -16
-22 -5 8 -9 24 -9 37 0 32 -20 27 -26 -8 -7 -32 -24 -41 -24 -12 0 21 -20 54
-20 33z"/>
<path d="M3183 2780 c0 -31 2 -41 4 -22 6 42 33 44 33 2 0 -16 5 -30 11 -30 6
0 9 14 7 33 -2 24 -8 33 -25 35 -12 2 -24 11 -26 20 -3 9 -4 -8 -4 -38z"/>
<path d="M3740 2780 c0 -27 5 -50 10 -50 6 0 10 14 10 30 0 42 27 40 33 -2 4
-32 4 -32 5 5 2 31 -1 37 -18 37 -11 0 -20 7 -20 15 0 8 -4 15 -10 15 -5 0
-10 -22 -10 -50z"/>
<path d="M6280 2821 c0 -23 23 -91 31 -91 4 0 10 14 14 30 7 32 25 32 25 0 0
-29 19 -34 29 -8 16 44 21 78 12 78 -5 0 -12 -17 -16 -37 -5 -27 -9 -33 -16
-22 -5 8 -9 24 -9 37 0 32 -20 27 -26 -8 -7 -32 -24 -41 -24 -12 0 21 -20 54
-20 33z"/>
<path d="M6423 2780 c0 -31 2 -41 4 -22 6 42 33 44 33 2 0 -16 5 -30 11 -30 6
0 9 14 7 33 -2 24 -8 33 -25 35 -12 2 -24 11 -26 20 -3 9 -4 -8 -4 -38z"/>
<path d="M6882 2780 c0 -41 2 -47 7 -25 3 17 13 30 21 30 8 0 18 -13 21 -30 6
-29 7 -29 8 8 1 33 -2 37 -23 37 -15 0 -26 7 -29 18 -3 9 -5 -8 -5 -38z"/>
<path d="M7543 2811 c-6 -10 -8 -22 -3 -27 5 -5 10 -20 13 -34 4 -21 4 -20 6
8 0 18 6 32 14 32 8 0 7 4 -3 10 -13 9 -13 11 0 20 13 9 13 10 0 10 -8 0 -20
-8 -27 -19z"/>
<path d="M3340 2805 c-9 -11 -9 -15 -1 -15 6 0 11 -13 11 -30 0 -22 5 -30 18
-29 10 0 12 3 5 6 -15 5 -18 50 -4 55 5 2 3 8 -4 15 -10 10 -16 9 -25 -2z"/>
<path d="M3688 2808 c-8 -23 7 -71 22 -76 12 -4 13 -2 3 9 -16 16 -17 46 -2
51 7 2 6 8 -4 16 -12 10 -16 10 -19 0z"/>
<path d="M6580 2805 c-9 -11 -9 -15 -1 -15 6 0 11 -13 11 -30 0 -22 5 -30 18
-29 10 0 12 3 5 6 -15 5 -18 50 -4 55 5 2 3 8 -4 15 -10 10 -16 9 -25 -2z"/>
<path d="M6828 2807 c-8 -22 7 -70 22 -75 12 -4 13 -2 3 9 -15 15 -17 46 -4
51 5 2 3 8 -4 15 -10 9 -14 9 -17 0z"/>
<path d="M3260 2792 c0 -6 9 -8 20 -5 11 3 20 1 20 -5 0 -5 -9 -12 -20 -15
-11 -3 -20 -12 -20 -21 0 -11 9 -15 33 -14 32 1 34 3 28 32 -5 24 -13 32 -34
34 -15 2 -27 -1 -27 -6z m40 -42 c0 -5 -7 -10 -15 -10 -8 0 -15 5 -15 10 0 6
7 10 15 10 8 0 15 -4 15 -10z"/>
<path d="M3430 2792 c0 -6 9 -8 20 -5 11 3 20 1 20 -5 0 -5 -9 -12 -20 -15
-11 -3 -20 -12 -20 -21 0 -11 9 -15 33 -14 32 1 34 3 28 32 -5 24 -13 32 -34
34 -15 2 -27 -1 -27 -6z m40 -42 c0 -5 -7 -10 -15 -10 -8 0 -15 5 -15 10 0 6
7 10 15 10 8 0 15 -4 15 -10z"/>
<path d="M3510 2765 c0 -19 5 -35 10 -35 6 0 10 13 10 29 0 16 6 32 13 34 6 3
2 6 -10 6 -20 1 -23 -4 -23 -34z"/>
<path d="M3565 2780 c-12 -37 41 -71 61 -39 4 7 0 9 -14 5 -11 -4 -23 -2 -27
4 -4 6 4 10 20 10 36 0 30 34 -7 38 -19 2 -28 -2 -33 -18z m45 0 c0 -5 -7 -10
-15 -10 -8 0 -15 5 -15 10 0 6 7 10 15 10 8 0 15 -4 15 -10z"/>
<path d="M3824 2785 c-13 -33 25 -70 48 -47 8 8 5 9 -11 5 -12 -3 -21 -1 -21
6 0 6 12 11 26 11 20 0 25 4 20 16 -3 9 -6 18 -6 20 0 12 -51 2 -56 -11z m46
-5 c0 -5 -7 -10 -15 -10 -8 0 -15 5 -15 10 0 6 7 10 15 10 8 0 15 -4 15 -10z"/>
<path d="M6500 2792 c0 -6 9 -8 20 -5 11 3 20 1 20 -5 0 -5 -9 -12 -20 -15
-11 -3 -20 -12 -20 -21 0 -11 9 -15 33 -14 32 1 34 3 28 32 -5 24 -13 32 -34
34 -15 2 -27 -1 -27 -6z m40 -42 c0 -5 -7 -10 -15 -10 -8 0 -15 5 -15 10 0 6
7 10 15 10 8 0 15 -4 15 -10z"/>
<path d="M6673 2765 c0 -22 2 -30 4 -17 2 12 2 30 0 40 -3 9 -5 -1 -4 -23z"/>
<path d="M6710 2784 c0 -9 9 -18 20 -21 11 -3 20 -10 20 -15 0 -6 -9 -8 -20
-5 -11 3 -20 1 -20 -4 0 -5 11 -9 25 -9 18 0 25 5 25 20 0 11 -6 20 -14 20 -8
0 -18 5 -22 12 -5 8 0 9 14 6 12 -4 22 -2 22 3 0 5 -11 9 -25 9 -16 0 -25 -6
-25 -16z"/>
<path d="M6964 2786 c-15 -39 23 -74 50 -46 8 9 6 11 -11 6 -12 -4 -24 -2 -28
4 -4 6 4 10 19 10 19 0 26 5 26 20 0 15 -7 20 -25 20 -14 0 -28 -6 -31 -14z
m46 -6 c0 -5 -7 -10 -15 -10 -8 0 -15 5 -15 10 0 6 7 10 15 10 8 0 15 -4 15
-10z"/>
<path d="M7081 2753 c0 -27 3 -41 7 -33 4 8 16 15 27 15 15 0 21 8 23 33 3 30
1 32 -27 32 -30 0 -31 -1 -30 -47z m44 12 c0 -28 -29 -25 -33 3 -3 19 0 23 15
20 10 -2 18 -12 18 -23z"/>
<path d="M7171 2763 c2 -35 2 -35 6 -8 3 16 10 33 16 37 8 5 6 8 -5 8 -14 0
-18 -8 -17 -37z"/>
<path d="M7223 2765 c0 -22 2 -30 4 -17 2 12 2 30 0 40 -3 9 -5 -1 -4 -23z"/>
<path d="M7255 2780 c-4 -12 -1 -28 6 -36 15 -18 51 -15 57 6 5 13 3 13 -11 2
-20 -17 -37 -8 -37 20 0 17 4 19 26 14 17 -5 23 -3 19 4 -11 18 -53 11 -60
-10z"/>
<path d="M7335 2780 c-12 -37 41 -71 61 -39 4 7 0 9 -14 5 -11 -4 -23 -2 -27
4 -4 6 4 10 20 10 36 0 30 34 -7 38 -19 2 -28 -2 -33 -18z m45 0 c0 -5 -7 -10
-15 -10 -8 0 -15 5 -15 10 0 6 7 10 15 10 8 0 15 -4 15 -10z"/>
<path d="M7453 2784 c-9 -24 10 -49 38 -49 20 0 24 5 24 30 0 25 -4 30 -28 33
-18 2 -29 -2 -34 -14z m54 -9 c5 -16 -14 -38 -26 -31 -18 12 -13 48 6 44 9 -2
18 -7 20 -13z"/>
<path d="M4567 2610 c-3 -11 -1 -23 4 -26 5 -3 9 6 9 20 0 31 -6 34 -13 6z"/>
<path d="M4767 2623 c-3 -5 5 -8 18 -8 13 0 21 3 18 8 -2 4 -10 7 -18 7 -8 0
-16 -3 -18 -7z"/>
<path d="M6310 2623 c8 -3 22 -11 30 -17 13 -10 13 -9 1 7 -7 9 -21 17 -30 16
-13 0 -14 -1 -1 -6z"/>
<path d="M6381 2626 c2 -2 18 -6 34 -10 22 -5 26 -4 15 4 -14 9 -59 15 -49 6z"/>
<path d="M6482 2618 c-7 -7 -12 -24 -12 -38 0 -47 43 -67 71 -33 13 15 12 15
-7 3 -31 -19 -54 -6 -54 30 0 36 23 49 54 30 19 -12 20 -12 7 3 -16 20 -42 22
-59 5z"/>
<path d="M6608 2623 c7 -3 16 -2 19 1 4 3 -2 6 -13 5 -11 0 -14 -3 -6 -6z"/>
<path d="M6693 2623 c9 -2 23 -2 30 0 6 3 -1 5 -18 5 -16 0 -22 -2 -12 -5z"/>
<path d="M7407 2623 c-4 -3 -7 -11 -7 -17 0 -7 3 -7 8 0 4 7 16 14 27 17 19 5
19 5 -1 6 -11 0 -24 -2 -27 -6z"/>
<path d="M3054 2581 c1 -30 6 -46 16 -48 10 -3 11 -2 3 4 -6 4 -13 26 -16 48
-4 40 -4 40 -3 -4z"/>
<path d="M7441 2587 c-13 -21 -12 -21 5 -5 10 10 16 20 13 22 -3 3 -11 -5 -18
-17z"/>
<path d="M3100 2589 c0 -5 5 -7 10 -4 6 3 10 8 10 11 0 2 -4 4 -10 4 -5 0 -10
-5 -10 -11z"/>
<path d="M3345 2590 c3 -5 8 -10 11 -10 2 0 4 5 4 10 0 6 -5 10 -11 10 -5 0
-7 -4 -4 -10z"/>
<path d="M3659 2562 c5 -34 6 -35 9 -8 2 16 0 32 -5 37 -5 5 -7 -7 -4 -29z"/>
<path d="M3859 2562 c5 -34 6 -35 9 -8 2 16 0 32 -5 37 -5 5 -7 -7 -4 -29z"/>
<path d="M4138 2573 c5 -21 7 -23 10 -9 2 10 0 22 -6 28 -6 6 -7 0 -4 -19z"/>
<path d="M4203 2565 c0 -22 2 -30 4 -17 2 12 2 30 0 40 -3 9 -5 -1 -4 -23z"/>
<path d="M4281 2584 c0 -11 3 -14 6 -6 3 7 2 16 -1 19 -3 4 -6 -2 -5 -13z"/>
<path d="M4445 2589 c-4 -6 -5 -12 -2 -15 2 -3 7 2 10 11 7 17 1 20 -8 4z"/>
<path d="M4525 2589 c-4 -6 -5 -12 -2 -15 2 -3 7 2 10 11 7 17 1 20 -8 4z"/>
<path d="M4648 2569 c2 -16 7 -31 11 -34 4 -2 5 9 3 26 -2 16 -7 31 -11 34 -4
2 -5 -9 -3 -26z"/>
<path d="M6442 2580 c0 -14 2 -19 5 -12 2 6 2 18 0 25 -3 6 -5 1 -5 -13z"/>
<path d="M6926 2570 c1 -44 14 -50 14 -7 0 21 -3 37 -7 37 -5 0 -8 -14 -7 -30z"/>
<path d="M7009 2562 c5 -34 6 -35 9 -8 2 16 0 32 -5 37 -5 5 -7 -7 -4 -29z"/>
<path d="M7133 2565 c0 -22 2 -30 4 -17 2 12 2 30 0 40 -3 9 -5 -1 -4 -23z"/>
<path d="M7325 2590 c-3 -5 -1 -10 4 -10 6 0 11 5 11 10 0 6 -2 10 -4 10 -3 0
-8 -4 -11 -10z"/>
<path d="M6305 2580 c3 -5 13 -10 21 -10 8 0 14 -7 14 -15 0 -18 -31 -20 -50
-2 -12 10 -12 9 -1 -5 7 -10 22 -18 33 -18 27 0 35 30 13 46 -22 16 -39 18
-30 4z"/>
<path d="M3303 2566 c3 -26 33 -44 48 -29 9 9 7 11 -9 6 -16 -4 -24 1 -32 18
-7 17 -9 19 -7 5z"/>
<path d="M3733 2566 c3 -26 33 -44 48 -29 9 9 7 11 -9 6 -16 -4 -24 1 -32 18
-7 17 -9 19 -7 5z"/>
<path d="M3933 2566 c3 -26 33 -44 48 -29 9 9 7 11 -9 6 -16 -4 -24 1 -32 18
-7 17 -9 19 -7 5z"/>
<path d="M4013 2566 c3 -26 33 -44 48 -29 9 9 7 11 -9 6 -16 -4 -24 1 -32 18
-7 17 -9 19 -7 5z"/>
<path d="M6628 2573 c7 -3 16 -2 19 1 4 3 -2 6 -13 5 -11 0 -14 -3 -6 -6z"/>
<path d="M4618 2563 c7 -3 16 -2 19 1 4 3 -2 6 -13 5 -11 0 -14 -3 -6 -6z"/>
<path d="M4093 2550 c2 -8 12 -16 23 -17 13 -2 15 -1 4 4 -8 3 -19 11 -23 17
-6 7 -7 6 -4 -4z"/>
<path d="M4490 2552 c0 -6 -8 -13 -17 -15 -16 -4 -16 -5 -1 -6 18 -1 34 16 24
26 -3 4 -6 1 -6 -5z"/>
<path d="M4523 2550 c2 -8 12 -16 23 -17 13 -2 15 -1 4 4 -8 3 -19 11 -23 17
-6 7 -7 6 -4 -4z"/>
<path d="M7305 2549 c-4 -6 -5 -12 -2 -15 2 -3 7 2 10 11 7 17 1 20 -8 4z"/>
<path d="M7347 2543 c3 -7 6 -13 8 -13 2 0 5 6 8 13 3 8 -1 14 -8 14 -7 0 -11
-6 -8 -14z"/>
<path d="M3157 2538 c2 -5 10 -8 18 -8 8 0 16 3 18 8 3 4 -5 7 -18 7 -13 0
-21 -3 -18 -7z"/>
<path d="M4288 2538 c5 -5 16 -8 23 -6 8 3 3 7 -10 11 -17 4 -21 3 -13 -5z"/>
<path d="M4700 2539 c0 -5 5 -7 10 -4 6 3 10 8 10 11 0 2 -4 4 -10 4 -5 0 -10
-5 -10 -11z"/>
<path d="M7217 2538 c2 -5 10 -8 18 -8 8 0 16 3 18 8 3 4 -5 7 -18 7 -13 0
-21 -3 -18 -7z"/>
<path d="M4618 2533 c7 -3 16 -2 19 1 4 3 -2 6 -13 5 -11 0 -14 -3 -6 -6z"/>
<path d="M6388 2533 c6 -2 18 -2 25 0 6 3 1 5 -13 5 -14 0 -19 -2 -12 -5z"/>
<path d="M6608 2533 c7 -3 16 -2 19 1 4 3 -2 6 -13 5 -11 0 -14 -3 -6 -6z"/>
<path d="M6693 2533 c9 -2 25 -2 35 0 9 3 1 5 -18 5 -19 0 -27 -2 -17 -5z"/>
<path d="M3508 2518 c5 -5 16 -8 23 -6 8 3 3 7 -10 11 -17 4 -21 3 -13 -5z"/>
<path d="M6888 2518 c6 -6 18 -8 28 -6 14 3 12 5 -9 10 -19 3 -25 2 -19 -4z"/>
<path d="M3040 1960 c0 -27 5 -50 10 -50 6 0 10 23 10 50 0 28 -4 50 -10 50
-5 0 -10 -22 -10 -50z"/>
<path d="M3401 1963 c0 -29 3 -53 7 -53 4 0 6 17 4 38 -6 64 -10 69 -11 15z"/>
<path d="M3490 1995 c0 -9 -10 -15 -26 -15 -23 0 -25 -3 -22 -32 3 -28 7 -33
31 -34 26 -1 27 1 27 47 0 27 -2 49 -5 49 -3 0 -5 -7 -5 -15z m0 -44 c0 -11
-5 -23 -11 -27 -15 -9 -33 12 -26 30 9 23 37 20 37 -3z"/>
<path d="M3560 1967 c0 -25 4 -48 9 -51 8 -5 3 84 -5 93 -2 2 -4 -16 -4 -42z"/>
<path d="M3641 1961 c-1 -50 0 -53 13 -35 15 19 15 19 30 -1 8 -11 16 -15 16
-9 0 5 -5 15 -12 22 -8 8 -8 15 2 27 8 9 8 15 2 15 -6 0 -14 -4 -17 -10 -11
-18 -24 -10 -28 18 -2 15 -5 3 -6 -27z"/>
<path d="M4011 1965 c-1 -47 1 -51 23 -53 30 -2 50 21 41 48 -4 13 -15 20 -30
20 -14 0 -25 7 -28 18 -3 9 -5 -6 -6 -33z m49 -14 c0 -11 -5 -23 -11 -27 -15
-9 -33 12 -26 30 9 23 37 20 37 -3z"/>
<path d="M6280 2001 c0 -23 23 -91 31 -91 4 0 10 14 14 30 7 32 25 32 25 0 0
-29 19 -34 29 -8 16 44 21 78 12 78 -5 0 -12 -17 -16 -37 -5 -27 -9 -33 -16
-22 -5 8 -9 24 -9 37 0 32 -20 27 -26 -8 -7 -32 -24 -41 -24 -12 0 21 -20 54
-20 33z"/>
<path d="M6423 1960 c0 -31 2 -41 4 -22 6 42 33 44 33 2 0 -16 5 -30 11 -30 6
0 9 14 7 33 -2 24 -8 33 -25 35 -12 2 -24 11 -26 20 -3 9 -4 -8 -4 -38z"/>
<path d="M3838 1988 c-9 -28 7 -73 27 -75 11 -2 14 0 8 3 -16 7 -17 54 -2 54
6 0 4 7 -5 15 -18 18 -23 19 -28 3z"/>
<path d="M6580 1985 c-9 -11 -9 -15 -1 -15 6 0 11 -13 11 -30 0 -22 5 -30 18
-29 10 0 12 3 5 6 -15 5 -18 50 -4 55 5 2 3 8 -4 15 -10 10 -16 9 -25 -2z"/>
<path d="M3110 1977 c0 -14 23 -67 30 -67 4 0 11 10 14 23 l7 22 10 -24 c11
-29 25 -19 34 24 l6 30 -14 -24 -15 -24 -6 21 c-9 28 -26 29 -26 2 0 -11 -4
-20 -10 -20 -5 0 -10 6 -10 14 0 8 -4 18 -10 21 -5 3 -10 4 -10 2z"/>
<path d="M3234 1966 c-10 -25 0 -51 20 -54 24 -5 46 22 39 48 -6 24 -51 28
-59 6z m46 -15 c0 -11 -5 -23 -11 -27 -15 -9 -33 12 -26 30 9 23 37 20 37 -3z"/>
<path d="M3312 1948 c3 -28 7 -33 31 -34 25 -1 27 2 26 35 -1 35 -2 35 -8 7
-9 -41 -31 -46 -31 -7 0 17 -5 31 -11 31 -6 0 -9 -14 -7 -32z"/>
<path d="M3600 1945 c0 -19 5 -35 10 -35 6 0 10 16 10 35 0 19 -4 35 -10 35
-5 0 -10 -16 -10 -35z"/>
<path d="M3715 1960 c-12 -37 41 -71 61 -39 4 7 0 9 -14 5 -11 -4 -23 -2 -27
4 -4 6 4 10 20 10 36 0 30 34 -7 38 -19 2 -28 -2 -33 -18z m45 0 c0 -5 -7 -10
-15 -10 -8 0 -15 5 -15 10 0 6 7 10 15 10 8 0 15 -4 15 -10z"/>
<path d="M3894 1966 c-10 -26 1 -51 22 -54 27 -4 47 21 39 48 -7 24 -53 28
-61 6z m46 -15 c0 -11 -5 -23 -11 -27 -15 -9 -33 12 -26 30 9 23 37 20 37 -3z"/>
<path d="M4103 1950 c2 -30 6 -35 30 -38 25 -3 27 -1 27 32 0 20 -4 36 -10 36
-5 0 -10 -14 -10 -31 0 -39 -22 -34 -32 7 -6 27 -6 27 -5 -6z"/>
<path d="M4186 1960 c3 -14 7 -35 8 -47 0 -13 4 -23 7 -23 10 0 41 81 34 88
-3 4 -8 -4 -12 -16 -7 -28 -17 -28 -32 1 -11 22 -11 22 -5 -3z"/>
<path d="M6500 1972 c0 -6 9 -8 20 -5 11 3 20 1 20 -5 0 -5 -9 -12 -20 -15
-11 -3 -20 -12 -20 -21 0 -11 9 -15 33 -14 32 1 34 3 28 32 -5 24 -13 32 -34
34 -15 2 -27 -1 -27 -6z m40 -42 c0 -5 -7 -10 -15 -10 -8 0 -15 5 -15 10 0 6
7 10 15 10 8 0 15 -4 15 -10z"/>
<path d="M6670 1972 c0 -6 9 -8 20 -5 11 3 20 1 20 -5 0 -5 -9 -12 -20 -15
-11 -3 -20 -12 -20 -21 0 -11 9 -15 33 -14 32 1 34 3 28 32 -5 24 -13 32 -34
34 -15 2 -27 -1 -27 -6z m40 -42 c0 -5 -7 -10 -15 -10 -8 0 -15 5 -15 10 0 6
7 10 15 10 8 0 15 -4 15 -10z"/>
<path d="M6750 1945 c0 -19 5 -35 10 -35 6 0 10 13 10 29 0 16 6 32 13 34 6 3
2 6 -10 6 -20 1 -23 -4 -23 -34z"/>
<path d="M6805 1960 c-12 -37 41 -71 61 -39 4 7 0 9 -14 5 -11 -4 -23 -2 -27
4 -4 6 4 10 20 10 36 0 30 34 -7 38 -19 2 -28 -2 -33 -18z m45 0 c0 -5 -7 -10
-15 -10 -8 0 -15 5 -15 10 0 6 7 10 15 10 8 0 15 -4 15 -10z"/>
<path d="M6920 1964 c0 -9 9 -18 20 -21 11 -3 20 -10 20 -15 0 -5 -10 -6 -22
-3 -18 6 -20 4 -12 -5 14 -14 46 -10 51 7 3 7 -7 17 -21 23 -34 12 -34 24 0
16 17 -5 23 -3 19 4 -10 17 -55 12 -55 -6z"/>
<path d="M7004 1966 c-10 -25 0 -51 20 -54 24 -5 46 22 39 48 -6 24 -51 28
-59 6z m46 -15 c0 -11 -5 -23 -11 -27 -15 -9 -33 12 -26 30 9 23 37 20 37 -3z"/>
<path d="M7092 1943 c1 -37 1 -37 5 -5 3 18 10 32 18 32 8 0 15 -14 18 -32 l4
-33 1 33 c3 43 32 45 32 2 0 -16 5 -30 11 -30 6 0 9 14 7 33 -3 31 -5 32 -50
35 l-48 3 2 -38z"/>
<path d="M7205 1960 c-12 -37 41 -71 61 -39 4 7 0 9 -14 5 -11 -4 -23 -2 -27
4 -4 6 4 10 20 10 36 0 30 34 -7 38 -19 2 -28 -2 -33 -18z m45 0 c0 -5 -7 -10
-15 -10 -8 0 -15 5 -15 10 0 6 7 10 15 10 8 0 15 -4 15 -10z"/>
<path d="M3080 1795 c-9 -11 -10 -16 -2 -11 8 5 12 -1 12 -18 0 -20 -5 -26
-21 -26 -19 0 -20 2 -8 18 13 15 12 16 -3 3 -25 -19 -22 -31 6 -31 13 0 26 -5
28 -12 8 -23 14 16 8 56 -5 37 -6 38 -20 21z"/>
<path d="M3139 1793 c-13 -16 -12 -17 3 -4 10 7 25 11 33 7 9 -3 13 -2 10 4
-10 15 -31 12 -46 -7z"/>
<path d="M3280 1803 c8 -3 22 -11 30 -17 13 -10 13 -9 1 7 -7 9 -21 17 -30 16
-13 0 -14 -1 -1 -6z"/>
<path d="M3358 1803 c6 -2 18 -2 25 0 6 3 1 5 -13 5 -14 0 -19 -2 -12 -5z"/>
<path d="M3452 1798 c-7 -7 -12 -24 -12 -38 0 -47 43 -67 71 -33 13 15 12 15
-7 3 -31 -19 -54 -6 -54 30 0 36 23 49 54 30 19 -12 20 -12 7 3 -16 20 -42 22
-59 5z"/>
<path d="M3559 1793 c-12 -16 -12 -17 1 -7 8 6 22 14 30 17 13 5 12 6 -1 6 -9
1 -23 -7 -30 -16z"/>
<path d="M3663 1803 c9 -2 23 -2 30 0 6 3 -1 5 -18 5 -16 0 -22 -2 -12 -5z"/>
<path d="M7617 1803 c-15 -14 -6 -34 21 -46 15 -6 30 -16 34 -22 5 -6 8 -5 8
3 0 8 -13 19 -30 25 -37 14 -41 41 -5 35 13 -3 22 -1 19 3 -6 11 -38 12 -47 2z"/>
<path d="M7725 1803 c11 -3 27 -10 35 -17 13 -10 13 -9 1 7 -7 9 -23 16 -35
16 -20 -1 -20 -2 -1 -6z"/>
<path d="M7809 1793 c-13 -16 -12 -17 3 -4 10 7 27 11 38 8 11 -3 18 -1 14 4
-9 15 -41 10 -55 -8z"/>
<path d="M7916 1801 c-4 -5 3 -7 14 -4 11 3 28 -1 38 -8 15 -13 16 -12 3 4
-14 18 -46 23 -55 8z"/>
<path d="M8023 1803 c9 -2 23 -2 30 0 6 3 -1 5 -18 5 -16 0 -22 -2 -12 -5z"/>
<path d="M8097 1803 c-3 -5 5 -8 18 -8 13 0 21 3 18 8 -2 4 -10 7 -18 7 -8 0
-16 -3 -18 -7z"/>
<path d="M3406 1787 c3 -10 9 -15 12 -12 3 3 0 11 -7 18 -10 9 -11 8 -5 -6z"/>
<path d="M6654 1761 c1 -30 6 -46 16 -48 10 -3 11 -2 3 4 -6 4 -13 26 -16 48
-4 40 -4 40 -3 -4z"/>
<path d="M6334 1765 c-3 -8 -4 -20 -2 -27 3 -7 7 -1 10 15 6 29 1 36 -8 12z"/>
<path d="M6376 1767 c3 -10 9 -15 12 -12 3 3 0 11 -7 18 -10 9 -11 8 -5 -6z"/>
<path d="M6734 1765 c-3 -8 -4 -20 -2 -27 3 -7 7 -1 10 15 6 29 1 36 -8 12z"/>
<path d="M6776 1767 c3 -10 9 -15 12 -12 3 3 0 11 -7 18 -10 9 -11 8 -5 -6z"/>
<path d="M6884 1766 c-9 -23 0 -51 16 -52 11 -1 11 0 2 3 -9 3 -12 15 -10 34
5 31 1 38 -8 15z"/>
<path d="M6963 1745 c0 -22 2 -30 4 -17 2 12 2 30 0 40 -3 9 -5 -1 -4 -23z"/>
<path d="M7091 1764 c0 -11 3 -14 6 -6 3 7 2 16 -1 19 -3 4 -6 -2 -5 -13z"/>
<path d="M7280 1769 c0 -5 5 -7 10 -4 6 3 10 8 10 11 0 2 -4 4 -10 4 -5 0 -10
-5 -10 -11z"/>
<path d="M7328 1753 c5 -21 7 -23 10 -9 2 10 0 22 -6 28 -6 6 -7 0 -4 -19z"/>
<path d="M7365 1769 c-4 -6 -5 -12 -2 -15 2 -3 7 2 10 11 7 17 1 20 -8 4z"/>
<path d="M7493 1745 c0 -22 2 -30 4 -17 2 12 2 30 0 40 -3 9 -5 -1 -4 -23z"/>
<path d="M7869 1755 c-3 -21 -11 -31 -29 -36 -22 -6 -22 -7 -4 -8 28 -1 47 22
42 51 -4 20 -5 19 -9 -7z"/>
<path d="M7901 1759 c-1 -34 22 -53 54 -45 29 7 36 46 8 46 -15 0 -16 -2 -3
-10 11 -7 12 -12 3 -21 -19 -19 -47 -6 -54 26 -6 29 -7 29 -8 4z"/>
<path d="M3275 1760 c3 -5 13 -10 21 -10 8 0 14 -7 14 -15 0 -18 -31 -20 -50
-2 -12 10 -12 9 -1 -5 7 -10 22 -18 33 -18 27 0 35 30 13 46 -22 16 -39 18
-30 4z"/>
<path d="M3147 1742 c-24 -27 -21 -32 16 -31 31 2 31 2 4 6 -28 4 -28 5 -11
24 9 10 15 19 12 19 -3 0 -12 -8 -21 -18z"/>
<path d="M3598 1753 c7 -3 16 -2 19 1 4 3 -2 6 -13 5 -11 0 -14 -3 -6 -6z"/>
<path d="M3406 1733 c-6 -14 -5 -15 5 -6 7 7 10 15 7 18 -3 3 -9 -2 -12 -12z"/>
<path d="M7205 1740 c-8 -13 3 -30 18 -30 7 0 6 4 -3 10 -13 9 -13 11 0 20 9
6 10 10 3 10 -6 0 -15 -4 -18 -10z"/>
<path d="M6413 1730 c2 -8 12 -16 23 -17 13 -2 15 -1 4 4 -8 3 -19 11 -23 17
-6 7 -7 6 -4 -4z"/>
<path d="M6827 1723 c3 -7 6 -13 8 -13 2 0 5 6 8 13 3 8 -1 14 -8 14 -7 0 -11
-6 -8 -14z"/>
<path d="M7410 1732 c0 -6 -8 -13 -17 -15 -16 -4 -16 -5 -1 -6 18 -1 34 16 24
26 -3 4 -6 1 -6 -5z"/>
<path d="M7754 1731 c-5 -5 -18 -11 -29 -14 l-20 -5 20 -1 c22 -1 52 15 44 23
-3 3 -10 2 -15 -3z"/>
<path d="M6365 1720 c-16 -7 -17 -9 -3 -9 9 -1 20 4 23 9 7 11 7 11 -20 0z"/>
<path d="M6497 1718 c2 -5 10 -8 18 -8 8 0 16 3 18 8 3 4 -5 7 -18 7 -13 0
-21 -3 -18 -7z"/>
<path d="M6765 1720 c-16 -7 -17 -9 -3 -9 9 -1 20 4 23 9 7 11 7 11 -20 0z"/>
<path d="M7098 1718 c5 -5 16 -8 23 -6 8 3 3 7 -10 11 -17 4 -21 3 -13 -5z"/>
<path d="M3358 1713 c6 -2 18 -2 25 0 6 3 1 5 -13 5 -14 0 -19 -2 -12 -5z"/>
<path d="M3578 1713 c7 -3 16 -2 19 1 4 3 -2 6 -13 5 -11 0 -14 -3 -6 -6z"/>
<path d="M3663 1713 c9 -2 25 -2 35 0 9 3 1 5 -18 5 -19 0 -27 -2 -17 -5z"/>
<path d="M7458 1713 c7 -3 16 -2 19 1 4 3 -2 6 -13 5 -11 0 -14 -3 -6 -6z"/>
<path d="M7638 1713 c7 -3 16 -2 19 1 4 3 -2 6 -13 5 -11 0 -14 -3 -6 -6z"/>
<path d="M8023 1713 c9 -2 23 -2 30 0 6 3 -1 5 -18 5 -16 0 -22 -2 -12 -5z"/>
<path d="M7488 233 c7 -3 16 -2 19 1 4 3 -2 6 -13 5 -11 0 -14 -3 -6 -6z"/>
<path d="M7558 233 c7 -3 16 -2 19 1 4 3 -2 6 -13 5 -11 0 -14 -3 -6 -6z"/>
<path d="M4863 3 c1253 -2 3301 -2 4550 0 1250 1 225 2 -2278 2 -2502 0 -3525
-1 -2272 -2z"/>
</g>
</svg>
