<?xml version="1.0" standalone="no"?>
<!DOCTYPE svg PUBLIC "-//W3C//DTD SVG 20010904//EN"
 "http://www.w3.org/TR/2001/REC-SVG-20010904/DTD/svg10.dtd">
<svg version="1.0" xmlns="http://www.w3.org/2000/svg"
 width="1024.000000pt" height="1024.000000pt" viewBox="0 0 1024.000000 1024.000000"
 preserveAspectRatio="xMidYMid meet">

<g transform="translate(0.000000,1024.000000) scale(0.100000,-0.100000)"
fill="#000000" stroke="none">
<path d="M3420 7790 c0 -18 -7 -20 -62 -20 -77 0 -108 -8 -108 -26 0 -8 -9
-14 -21 -14 -12 0 -23 -8 -26 -19 -3 -13 -17 -22 -43 -26 -35 -6 -39 -10 -45
-45 -4 -26 -13 -40 -26 -43 -11 -3 -19 -14 -19 -26 0 -12 -6 -21 -14 -21 -22
0 -26 -48 -26 -325 l0 -263 -139 -4 c-77 -1 -143 -7 -147 -11 -11 -11 -18
-186 -10 -242 l7 -45 145 0 144 0 0 -274 0 -273 -31 -7 c-17 -3 -85 -6 -150
-6 l-119 0 0 -124 0 -123 31 -7 c17 -3 76 -6 130 -6 81 0 99 -3 99 -15 0 -8 9
-15 20 -15 19 0 20 -7 20 -260 0 -253 -1 -260 -20 -260 -13 0 -20 -7 -20 -20
0 -18 -8 -20 -127 -22 l-128 -3 0 -125 0 -125 128 -3 c119 -2 127 -4 127 -22
0 -13 7 -20 20 -20 19 0 20 -7 20 -254 l0 -253 -31 -7 c-17 -3 -74 -6 -125 -6
-75 0 -94 -3 -94 -14 0 -8 -10 -16 -22 -18 -22 -3 -23 -7 -26 -130 l-3 -128
119 0 c66 0 134 -3 151 -6 l31 -6 0 -274 0 -274 -144 0 -143 0 -7 -31 c-3 -17
-6 -69 -6 -114 0 -45 3 -97 6 -114 l7 -31 112 0 c62 0 127 -3 144 -6 l31 -6 0
-263 c0 -277 4 -325 26 -325 8 0 14 -9 14 -21 0 -12 8 -23 20 -26 14 -4 22
-17 26 -44 6 -34 10 -38 44 -44 26 -4 40 -13 43 -26 3 -11 14 -19 26 -19 12 0
21 -6 21 -14 0 -7 10 -16 23 -20 12 -3 914 -6 2005 -6 1945 0 1982 0 1982 19
0 15 10 21 39 26 27 4 41 13 44 26 3 11 14 19 26 19 14 0 21 6 21 20 0 13 7
20 20 20 15 0 20 7 20 25 0 18 5 25 20 25 15 0 20 7 20 29 0 48 12 91 25 91 8
0 14 24 18 68 9 88 9 4491 1 4571 -4 38 -11 61 -19 61 -13 0 -25 43 -25 91 0
22 -5 29 -20 29 -15 0 -20 7 -20 25 0 18 -5 25 -20 25 -13 0 -20 7 -20 20 0
14 -7 20 -21 20 -12 0 -23 8 -26 19 -3 13 -17 22 -44 26 -29 5 -39 11 -39 26
0 17 -8 19 -85 19 -78 0 -85 2 -85 20 0 20 -7 20 -1835 20 -1828 0 -1835 0
-1835 -20z m3240 -2670 l0 -2390 -1645 0 c-1638 0 -1645 0 -1645 20 0 13 -7
20 -20 20 -13 0 -20 7 -20 20 0 13 -7 20 -20 20 -19 0 -20 7 -20 235 l0 235
114 0 c62 0 128 3 145 6 l31 7 0 123 c0 104 -2 124 -15 124 -8 0 -15 9 -15 20
0 19 -7 20 -130 20 l-130 0 0 280 0 280 145 0 145 0 0 125 c0 108 -2 125 -16
125 -9 0 -18 9 -21 20 -5 19 -14 20 -129 20 l-124 0 0 280 0 280 145 0 145 0
0 130 0 130 -145 0 -145 0 0 280 c0 273 0 280 20 280 11 0 20 7 20 15 0 12 18
15 103 15 158 0 147 -10 147 136 l0 124 -145 0 -145 0 0 280 0 280 145 0 145
0 0 130 c0 109 -2 130 -15 130 -8 0 -15 7 -15 15 0 12 -18 15 -99 15 -54 0
-113 3 -130 6 l-31 7 0 233 c0 227 1 234 20 234 13 0 20 7 20 20 0 13 7 20 20
20 13 0 20 7 20 20 0 20 7 20 1645 20 l1645 0 0 -2390z m510 2371 c0 -13 8
-21 23 -23 l22 -3 3 -2347 2 -2348 -25 0 c-18 0 -25 -5 -25 -20 0 -19 -7 -20
-105 -20 l-105 0 0 2390 0 2390 105 0 c97 0 105 -1 105 -19z"/>
<path d="M4490 6510 c0 -15 -7 -20 -25 -20 -23 0 -25 -4 -25 -45 0 -38 -3 -45
-20 -45 -20 0 -20 -7 -20 -575 0 -568 0 -575 20 -575 17 0 20 -7 20 -45 0 -41
2 -45 25 -45 18 0 25 -5 25 -20 0 -20 7 -20 765 -20 758 0 765 0 765 20 0 14
7 20 21 20 12 0 23 8 26 19 3 11 13 21 24 24 18 5 19 24 19 622 0 598 -1 617
-19 622 -11 3 -21 13 -24 24 -3 11 -14 19 -26 19 -14 0 -21 6 -21 20 0 20 -7
20 -765 20 -758 0 -765 0 -765 -20z m1320 -685 l0 -405 -555 0 -555 0 0 405 0
405 555 0 555 0 0 -405z"/>
<path d="M4440 4540 c0 -13 -7 -20 -20 -20 -19 0 -20 -7 -20 -105 0 -98 1
-105 20 -105 13 0 20 -7 20 -20 0 -20 7 -20 829 -20 l829 0 6 23 c3 12 6 77 6
145 l0 122 -835 0 c-828 0 -835 0 -835 -20z"/>
<path d="M4440 3985 c0 -18 -5 -25 -20 -25 -19 0 -20 -7 -20 -100 0 -93 1
-100 20 -100 15 0 20 -7 20 -25 l0 -25 835 0 835 0 0 119 c0 65 -3 133 -6 150
l-6 31 -829 0 -829 0 0 -25z"/>
</g>
</svg>
