<svg version="1.1" id="Layer_1" xmlns="http://www.w3.org/2000/svg" xmlns:xlink="http://www.w3.org/1999/xlink" x="0px" y="0px"
	 width="100%" viewBox="0 0 1024 1024" enable-background="new 0 0 1024 1024" xml:space="preserve">
<path fill="#FFFFFF" opacity="1.000000" stroke="none" 
	d="
M706.000000,1025.000000 
	C470.666656,1025.000000 235.833328,1025.000000 1.000000,1025.000000 
	C1.000000,683.666687 1.000000,342.333344 1.000000,1.000000 
	C342.333344,1.000000 683.666687,1.000000 1025.000000,1.000000 
	C1025.000000,342.333344 1025.000000,683.666687 1025.000000,1025.000000 
	C918.833313,1025.000000 812.666687,1025.000000 706.000000,1025.000000 
M274.343750,667.641052 
	C274.382172,668.807800 274.420563,669.974487 274.306427,672.047607 
	C274.363434,678.650146 274.420471,685.252747 274.300598,692.673706 
	C273.937225,695.557190 274.922058,696.816162 278.105682,696.768982 
	C285.386414,696.661133 292.672668,696.925476 299.989502,697.970581 
	C300.005157,711.748047 299.980438,725.525879 300.082947,739.302673 
	C300.097229,741.223389 300.737610,743.139404 301.188843,745.785522 
	C302.621216,749.018860 304.053619,752.252258 305.828308,756.258301 
	C305.918915,756.281616 307.169556,756.603516 308.420837,757.644287 
	C308.494690,758.354248 308.568512,759.064148 308.415222,760.413086 
	C309.069824,761.473633 308.025146,764.074463 311.181061,763.734253 
	C312.458679,765.022400 313.646973,766.417053 315.031281,767.577942 
	C318.648682,770.611206 322.071411,774.027649 326.109589,776.360291 
	C329.327728,778.219360 333.338318,778.706604 337.272156,780.580017 
	C340.444122,781.052490 343.615875,781.936157 346.788116,781.938049 
	C467.015900,782.009216 587.243713,781.999512 707.471497,781.998718 
	C709.303162,781.998718 711.170166,782.178284 712.950012,781.868042 
	C713.724243,781.733154 714.319275,780.569336 715.763000,779.644104 
	C720.430176,777.742249 725.313660,776.789734 730.054138,774.573486 
	C738.013550,770.851929 740.720520,764.056519 745.501953,757.492004 
	C746.247559,757.944763 746.993225,758.397522 748.100586,759.069946 
	C747.789734,757.871704 747.564270,757.002808 748.081970,755.719482 
	C748.130432,754.596802 748.178833,753.474182 748.925720,752.031860 
	C749.970642,750.894043 751.753967,749.857239 751.926025,748.599976 
	C752.508911,744.339844 752.722046,740.001587 752.723022,735.693115 
	C752.757751,587.122498 752.754333,438.551849 752.737549,289.981232 
	C752.737122,286.156311 752.464355,282.331848 752.434814,278.506287 
	C752.412598,275.618683 751.049805,274.039520 748.339172,272.799011 
	C748.019226,271.826721 747.699280,270.854462 747.706909,269.501465 
	C747.761475,268.766541 747.816040,268.031616 747.895142,266.966187 
	C746.979065,267.665100 746.470520,268.053040 745.419617,267.797302 
	C741.916443,263.637482 741.804626,256.911896 735.447876,254.865372 
	C733.344604,254.188248 731.387512,253.017181 729.420593,251.965302 
	C725.724670,249.988739 722.119568,247.834091 718.362061,245.986725 
	C717.477112,245.551605 716.136292,246.043579 714.732605,245.331909 
	C712.388184,244.887894 710.043884,244.056564 707.699280,244.055359 
	C587.289612,243.993484 466.879883,244.001907 346.470184,244.005829 
	C344.471863,244.005890 342.428253,243.795807 340.491547,244.151184 
	C339.247406,244.379471 338.160614,245.465271 336.337097,245.982910 
	C334.083130,246.764999 331.812561,247.503143 329.581879,248.346756 
	C328.372131,248.804260 327.242035,249.467987 326.055847,249.993073 
	C319.993378,252.676804 315.599152,257.408600 310.462646,262.080322 
	C307.089539,262.401886 304.081207,266.509155 304.450165,271.290283 
	C303.671173,274.526581 302.892181,277.762909 301.428650,281.388489 
	C300.955231,283.612579 300.093140,285.832977 300.071991,288.061371 
	C299.942596,301.707153 300.003723,315.354767 299.091095,329.244324 
	C292.132782,329.307800 285.174438,329.371246 277.418823,329.131348 
	C272.914886,328.706024 274.022766,331.683533 274.292023,335.099518 
	C274.375946,341.679688 274.459869,348.259888 274.392273,355.682556 
	C273.960266,358.230225 274.969208,359.181091 277.600891,359.159729 
	C285.000427,359.099609 292.401764,359.262390 299.901398,360.227356 
	C299.848602,377.084595 299.795807,393.941864 298.853912,410.893890 
	C292.049866,410.914124 285.245239,410.992584 278.441986,410.928406 
	C275.353912,410.899292 273.613617,411.903107 274.270355,416.198242 
	C274.286621,424.043518 274.302856,431.888763 274.167328,440.589569 
	C273.748352,443.826538 275.099823,444.954224 278.392609,444.854462 
	C285.463715,444.640228 292.545746,444.788727 299.553436,444.788727 
	C299.553436,462.323608 299.553436,479.009064 299.553436,496.138306 
	C291.011932,496.138306 282.910828,496.138306 274.351440,496.138306 
	C274.351440,498.173126 274.351440,499.764526 274.426697,502.244537 
	C274.404297,509.710297 274.381897,517.176086 274.070343,525.496277 
	C274.272522,526.913635 274.474731,528.331055 274.734894,530.154968 
	C283.249603,530.154968 291.354248,530.154968 299.980591,530.154968 
	C299.980591,547.411133 299.980591,564.197327 299.071655,581.222473 
	C292.130646,581.302185 285.189606,581.381897 277.439545,581.162231 
	C272.837769,580.673767 274.236023,583.881287 274.284546,587.168030 
	C274.284546,595.027222 274.284546,602.886414 274.284546,610.984497 
	C276.124268,610.984497 277.564026,610.984497 279.926910,611.154175 
	C286.568146,611.216370 293.209381,611.278625 299.885742,612.234680 
	C299.876404,630.372620 299.867096,648.510498 298.950195,666.800781 
	C291.971313,666.907043 284.992462,667.013245 277.623932,666.592224 
	C276.757843,666.910950 275.891754,667.229736 274.343750,667.641052 
z"/>
<path fill="#020202" opacity="1.000000" stroke="none" 
	d="
M336.997101,779.802856 
	C333.338318,778.706604 329.327728,778.219360 326.109589,776.360291 
	C322.071411,774.027649 318.648682,770.611206 315.031281,767.577942 
	C313.646973,766.417053 312.458679,765.022400 311.138367,763.130676 
	C311.610809,761.986084 312.125946,761.445129 313.027924,760.497864 
	C311.164368,760.190308 309.903351,759.982239 308.642365,759.774109 
	C308.568512,759.064148 308.494690,758.354248 308.640839,756.994385 
	C307.232758,752.228821 305.604675,748.113159 304.073212,743.537476 
	C304.094391,727.731445 304.018921,712.385437 303.951263,696.619873 
	C304.251251,693.162964 302.834869,692.206116 299.867859,692.253052 
	C292.877899,692.363647 285.883240,692.180420 278.902161,691.640442 
	C278.922821,685.665588 279.042175,680.163391 278.895538,674.668274 
	C278.819244,671.809509 279.940369,670.879883 282.706848,670.942566 
	C288.536194,671.074707 294.375702,670.823181 300.201691,671.014221 
	C303.474060,671.121521 304.337097,669.680603 303.971680,666.357971 
	C304.063782,647.830200 304.063782,629.751099 304.063782,611.340820 
	C302.393616,611.340820 301.122101,611.340820 299.850616,611.340820 
	C293.209381,611.278625 286.568146,611.216370 279.440979,610.602234 
	C278.973236,602.038513 278.991394,594.026672 279.475830,585.969604 
	C287.774109,585.924255 295.606140,585.924255 303.957825,585.924255 
	C303.957825,583.825562 303.957825,582.398132 304.040863,580.510132 
	C304.134521,564.761475 304.160675,549.473450 304.147400,534.185364 
	C304.142700,528.765503 301.131012,526.001709 295.615540,525.799561 
	C288.525574,525.539856 281.444427,525.038879 274.359497,524.641846 
	C274.381897,517.176086 274.404297,509.710297 274.748596,501.585663 
	C281.982635,500.639679 288.892853,500.283142 295.807587,500.087646 
	C301.265930,499.933258 304.142883,497.123016 304.150879,491.573456 
	C304.167877,479.789948 304.156158,468.006378 304.156158,456.222839 
	C304.156158,451.148468 304.156128,446.074097 304.156128,440.068054 
	C295.158844,440.068054 287.064545,440.068054 278.956787,439.594727 
	C278.964294,431.087677 278.985229,423.053986 279.468079,414.938354 
	C286.590454,414.761993 293.250854,414.667572 300.312866,414.625458 
	C303.989197,415.313721 304.113678,413.224182 304.114929,410.865906 
	C304.123596,394.620270 304.262634,378.373505 304.063568,362.130707 
	C304.043091,360.462067 302.073792,358.817261 300.852234,356.783112 
	C299.046600,355.957611 297.409058,355.181854 295.746246,355.123230 
	C290.181152,354.927002 284.607056,354.987122 279.001221,354.484772 
	C278.956879,348.899017 279.153198,343.766205 278.869812,338.660004 
	C278.665009,334.969940 279.875885,333.707764 283.617798,333.862793 
	C290.176910,334.134552 296.755402,333.938690 303.598145,333.938690 
	C303.778320,331.966797 303.910004,330.525208 304.089783,328.611115 
	C304.148468,312.744568 304.159119,297.350525 304.437469,281.714905 
	C305.042877,280.425049 305.375397,279.375061 305.719238,278.328827 
	C306.684387,275.391998 307.654175,272.456696 308.612030,269.130737 
	C309.455444,266.523926 310.308929,264.307190 311.162415,262.090424 
	C315.599152,257.408600 319.993378,252.676804 326.055847,249.993073 
	C327.242035,249.467987 328.372131,248.804260 329.581879,248.346756 
	C331.812561,247.503143 334.083130,246.764999 336.777954,246.472763 
	C338.745636,247.372696 340.272369,248.141357 341.799255,248.141785 
	C462.703613,248.176559 583.607971,248.151031 704.512329,248.131378 
	C707.176880,248.130951 709.857727,248.315170 712.496765,248.059631 
	C713.387512,247.973358 714.172058,246.790649 715.005188,246.109039 
	C716.136292,246.043579 717.477112,245.551605 718.362061,245.986725 
	C722.119568,247.834091 725.724670,249.988739 729.420593,251.965302 
	C731.387512,253.017181 733.344604,254.188248 735.447876,254.865372 
	C741.804626,256.911896 741.916443,263.637482 745.673584,268.308655 
	C746.411438,269.174042 746.895325,269.528137 747.379272,269.882202 
	C747.699280,270.854462 748.019226,271.826721 748.167603,273.697876 
	C748.036987,279.592407 748.113647,284.588074 748.113831,289.583771 
	C748.120300,438.520844 748.118042,587.457886 748.123718,736.394958 
	C748.123901,741.713806 748.191162,747.032654 748.227173,752.351501 
	C748.178833,753.474182 748.130432,754.596802 747.444885,755.998596 
	C746.195312,756.827393 745.582764,757.377075 744.970215,757.926758 
	C740.720520,764.056519 738.013550,770.851929 730.054138,774.573486 
	C725.313660,776.789734 720.430176,777.742249 715.263672,779.363892 
	C713.239319,778.671997 711.714417,777.900635 710.189026,777.899780 
	C587.282654,777.826416 464.376190,777.805969 341.469818,777.878723 
	C339.978546,777.879578 338.488007,779.133728 336.997101,779.802856 
M332.650909,525.850098 
	C328.941315,524.559998 331.415100,527.222473 330.972229,528.969910 
	C330.626038,530.196289 329.980438,531.422241 329.978973,532.649048 
	C329.959473,548.747009 330.030945,564.844971 329.980804,581.792786 
	C329.586304,584.793213 330.826538,585.801880 333.890900,585.777893 
	C341.169403,585.720886 348.450745,586.034851 355.766846,587.104919 
	C355.819275,595.019470 355.871674,602.934082 355.021088,611.077820 
	C348.039734,611.176453 341.058380,611.275024 333.219452,611.172363 
	C331.104736,610.886292 329.844086,611.257202 329.869812,613.942078 
	C330.038605,631.574768 330.067169,649.208862 330.068268,667.708862 
	C329.629608,670.531677 331.197449,671.010986 333.579681,670.984558 
	C340.720703,670.905212 347.863373,670.970947 355.551788,671.605957 
	C355.422791,678.457886 355.293762,685.309753 354.200073,692.088135 
	C347.787994,692.078308 341.375885,692.074524 334.963837,692.056152 
	C331.665802,692.046692 329.488525,693.147217 329.938232,697.910095 
	C329.936462,710.463806 329.902222,723.017639 329.976196,735.570923 
	C329.984924,737.054565 330.586853,738.534668 331.004211,740.841675 
	C330.032043,746.470276 333.583801,748.530884 338.122314,750.552063 
	C338.310944,752.731262 339.028961,753.728271 341.951111,752.029541 
	C394.540314,752.039001 447.129547,752.062012 499.718750,752.054321 
	C555.469238,752.046143 611.219666,752.008850 667.828247,752.044312 
	C672.854065,752.578186 671.865112,748.974121 671.865295,746.117432 
	C671.873291,591.646790 671.873047,437.176178 671.862427,282.705566 
	C671.862305,281.046387 671.806274,279.376587 671.615479,277.730408 
	C671.298950,274.999512 669.906677,273.484955 666.014648,273.946075 
	C559.331543,273.943237 452.648468,273.935913 345.965424,273.978607 
	C344.305267,273.979248 342.645386,274.594818 340.247833,275.016693 
	C333.080750,276.446442 330.882050,278.864227 330.758636,285.713226 
	C330.484009,287.105255 329.976074,288.496429 329.971100,289.889404 
	C329.924530,302.938232 329.964111,315.987366 329.878387,329.868195 
	C329.635590,333.112793 330.735413,334.763672 335.142212,333.672668 
	C340.614929,333.694977 346.090179,333.824097 351.559235,333.693604 
	C354.213745,333.630280 355.811035,334.505768 355.745972,337.240448 
	C355.604584,343.185211 355.310303,349.126282 354.127472,355.023834 
	C347.486725,355.020416 340.842346,355.144958 334.206757,354.958588 
	C330.989319,354.868195 329.461243,355.831512 329.983856,360.102509 
	C329.983856,378.183502 329.983856,396.264465 329.983856,414.616058 
	C331.567535,414.616058 332.825592,414.616058 334.993866,414.797577 
	C341.972961,414.909088 348.952087,415.020599 355.819672,416.047119 
	C355.799225,423.965698 355.778778,431.884277 354.883575,440.068817 
	C346.799347,440.068817 338.715118,440.068817 330.070984,440.068817 
	C330.070984,442.188446 330.070984,443.616821 329.947418,445.969635 
	C329.942535,461.513824 329.869690,477.058716 330.023132,492.601349 
	C330.041290,494.440552 331.298584,496.267517 332.298248,498.849823 
	C333.788788,499.254578 335.271667,499.972443 336.771210,500.009186 
	C342.807953,500.157013 348.849823,500.094391 355.159088,501.001709 
	C355.050629,509.264008 354.942139,517.526306 353.919342,525.823914 
	C346.942566,525.986755 339.965759,526.149597 332.650909,525.850098 
M725.026245,739.996887 
	C725.681946,737.781128 726.910217,735.565735 726.911560,733.349548 
	C727.001953,586.393066 726.993347,439.436584 726.992554,292.480072 
	C726.992554,291.313812 727.313477,290.006683 726.892151,289.017639 
	C726.386719,287.831085 725.244690,286.915741 724.150879,285.096680 
	C723.469055,282.816711 722.787231,280.536743 722.105042,278.255402 
	C720.695068,278.123047 719.380432,277.999664 717.764099,277.211487 
	C715.517090,276.124420 713.340881,274.334229 711.008057,274.099426 
	C706.422119,273.637817 701.749207,274.040649 696.237610,273.995209 
	C690.987244,273.719086 693.046204,277.760254 693.044861,279.987671 
	C692.952820,435.121582 692.961548,590.255554 692.961975,745.389526 
	C692.961975,746.389343 693.074524,747.403503 692.945923,748.386292 
	C692.499939,751.794006 694.325073,752.405090 698.037537,752.029602 
	C704.880676,751.587708 712.301941,754.102051 718.871521,747.983704 
	C724.990601,748.226379 722.372314,742.597717 725.026245,739.996887 
z"/>
<path fill="#393939" opacity="1.000000" stroke="none" 
	d="
M748.576416,752.191650 
	C748.191162,747.032654 748.123901,741.713806 748.123718,736.394958 
	C748.118042,587.457886 748.120300,438.520844 748.113831,289.583771 
	C748.113647,284.588074 748.036987,279.592407 748.115601,274.116089 
	C751.049805,274.039520 752.412598,275.618683 752.434814,278.506287 
	C752.464355,282.331848 752.737122,286.156311 752.737549,289.981232 
	C752.754333,438.551849 752.757751,587.122498 752.723022,735.693115 
	C752.722046,740.001587 752.508911,744.339844 751.926025,748.599976 
	C751.753967,749.857239 749.970642,750.894043 748.576416,752.191650 
z"/>
<path fill="#7B7B7B" opacity="1.000000" stroke="none" 
	d="
M714.868896,245.720474 
	C714.172058,246.790649 713.387512,247.973358 712.496765,248.059631 
	C709.857727,248.315170 707.176880,248.130951 704.512329,248.131378 
	C583.607971,248.151031 462.703613,248.176559 341.799255,248.141785 
	C340.272369,248.141357 338.745636,247.372696 337.111053,246.564651 
	C338.160614,245.465271 339.247406,244.379471 340.491547,244.151184 
	C342.428253,243.795807 344.471863,244.005890 346.470184,244.005829 
	C466.879883,244.001907 587.289612,243.993484 707.699280,244.055359 
	C710.043884,244.056564 712.388184,244.887894 714.868896,245.720474 
z"/>
<path fill="#838383" opacity="1.000000" stroke="none" 
	d="
M337.134644,780.191406 
	C338.488007,779.133728 339.978546,777.879578 341.469818,777.878723 
	C464.376190,777.805969 587.282654,777.826416 710.189026,777.899780 
	C711.714417,777.900635 713.239319,778.671997 714.880005,779.478271 
	C714.319275,780.569336 713.724243,781.733154 712.950012,781.868042 
	C711.170166,782.178284 709.303162,781.998718 707.471497,781.998718 
	C587.243713,781.999512 467.015900,782.009216 346.788116,781.938049 
	C343.615875,781.936157 340.444122,781.052490 337.134644,780.191406 
z"/>
<path fill="#A7A7A7" opacity="1.000000" stroke="none" 
	d="
M278.970245,440.068054 
	C287.064545,440.068054 295.158844,440.068054 304.156128,440.068054 
	C304.156128,446.074097 304.156158,451.148468 304.156158,456.222839 
	C304.156158,468.006378 304.167877,479.789948 304.150879,491.573456 
	C304.142883,497.123016 301.265930,499.933258 295.807587,500.087646 
	C288.892853,500.283142 281.982635,500.639679 274.710968,501.141357 
	C274.351440,499.764526 274.351440,498.173126 274.351440,496.138306 
	C282.910828,496.138306 291.011932,496.138306 299.553436,496.138306 
	C299.553436,479.009064 299.553436,462.323608 299.553436,444.788727 
	C292.545746,444.788727 285.463715,444.640228 278.392609,444.854462 
	C275.099823,444.954224 273.748352,443.826538 274.623840,440.257996 
	C276.377014,439.973663 277.673615,440.020874 278.970245,440.068054 
z"/>
<path fill="#A7A7A7" opacity="1.000000" stroke="none" 
	d="
M274.214905,525.069031 
	C281.444427,525.038879 288.525574,525.539856 295.615540,525.799561 
	C301.131012,526.001709 304.142700,528.765503 304.147400,534.185364 
	C304.160675,549.473450 304.134521,564.761475 303.643433,580.525879 
	C302.102173,580.996033 301.041382,580.989807 299.980591,580.983582 
	C299.980591,564.197327 299.980591,547.411133 299.980591,530.154968 
	C291.354248,530.154968 283.249603,530.154968 274.734894,530.154968 
	C274.474731,528.331055 274.272522,526.913635 274.214905,525.069031 
z"/>
<path fill="#A7A7A7" opacity="1.000000" stroke="none" 
	d="
M301.008789,357.161407 
	C302.073792,358.817261 304.043091,360.462067 304.063568,362.130707 
	C304.262634,378.373505 304.123596,394.620270 304.114929,410.865906 
	C304.113678,413.224182 303.989197,415.313721 300.294189,414.248383 
	C299.830231,412.812378 299.786591,411.805725 299.742981,410.799103 
	C299.795807,393.941864 299.848602,377.084595 300.156677,359.621460 
	C300.610901,358.397522 300.809845,357.779480 301.008789,357.161407 
z"/>
<path fill="#2B2B2B" opacity="1.000000" stroke="none" 
	d="
M304.041718,329.083588 
	C303.910004,330.525208 303.778320,331.966797 303.598145,333.938690 
	C296.755402,333.938690 290.176910,334.134552 283.617798,333.862793 
	C279.875885,333.707764 278.665009,334.969940 278.869812,338.660004 
	C279.153198,343.766205 278.956879,348.899017 278.625916,354.508453 
	C277.038483,354.944336 275.791107,354.892181 274.543762,354.840057 
	C274.459869,348.259888 274.375946,341.679688 274.640869,334.589661 
	C276.065186,332.531403 277.140656,330.983032 278.216125,329.434692 
	C285.174438,329.371246 292.132782,329.307800 299.946350,329.188782 
	C301.881622,329.116669 302.961670,329.100128 304.041718,329.083588 
z"/>
<path fill="#A7A7A7" opacity="1.000000" stroke="none" 
	d="
M299.868164,611.787720 
	C301.122101,611.340820 302.393616,611.340820 304.063782,611.340820 
	C304.063782,629.751099 304.063782,647.830200 303.568970,666.345154 
	C302.002045,666.736816 300.929932,666.692627 299.857788,666.648438 
	C299.867096,648.510498 299.876404,630.372620 299.868164,611.787720 
z"/>
<path fill="#2B2B2B" opacity="1.000000" stroke="none" 
	d="
M299.403992,666.724609 
	C300.929932,666.692627 302.002045,666.736816 303.476868,666.793823 
	C304.337097,669.680603 303.474060,671.121521 300.201691,671.014221 
	C294.375702,670.823181 288.536194,671.074707 282.706848,670.942566 
	C279.940369,670.879883 278.819244,671.809509 278.895538,674.668274 
	C279.042175,680.163391 278.922821,685.665588 278.535095,691.641052 
	C276.930115,692.029907 275.703827,691.942627 274.477509,691.855286 
	C274.420471,685.252747 274.363434,678.650146 274.669159,671.591309 
	C275.363495,670.530029 275.695099,669.924988 276.301208,669.177490 
	C277.055023,668.396423 277.534302,667.757935 278.013580,667.119446 
	C284.992462,667.013245 291.971313,666.907043 299.403992,666.724609 
z"/>
<path fill="#A7A7A7" opacity="1.000000" stroke="none" 
	d="
M304.089783,328.611115 
	C302.961670,329.100128 301.881622,329.116669 300.401489,329.067505 
	C300.003723,315.354767 299.942596,301.707153 300.071991,288.061371 
	C300.093140,285.832977 300.955231,283.612579 302.055786,281.259705 
	C303.178558,281.406097 303.674133,281.681274 304.169739,281.956451 
	C304.159119,297.350525 304.148468,312.744568 304.089783,328.611115 
z"/>
<path fill="#A7A7A7" opacity="1.000000" stroke="none" 
	d="
M303.943451,697.039429 
	C304.018921,712.385437 304.094391,727.731445 303.753540,743.524658 
	C302.587494,744.333801 301.837830,744.695740 301.088135,745.057617 
	C300.737610,743.139404 300.097229,741.223389 300.082947,739.302673 
	C299.980438,725.525879 300.005157,711.748047 300.371765,697.494202 
	C301.817200,697.025024 302.880310,697.032227 303.943451,697.039429 
z"/>
<path fill="#646464" opacity="1.000000" stroke="none" 
	d="
M303.951263,696.619873 
	C302.880310,697.032227 301.817200,697.025024 300.355347,697.028198 
	C292.672668,696.925476 285.386414,696.661133 278.105682,696.768982 
	C274.922058,696.816162 273.937225,695.557190 274.389038,692.264526 
	C275.703827,691.942627 276.930115,692.029907 278.523468,692.116638 
	C285.883240,692.180420 292.877899,692.363647 299.867859,692.253052 
	C302.834869,692.206116 304.251251,693.162964 303.951263,696.619873 
z"/>
<path fill="#646464" opacity="1.000000" stroke="none" 
	d="
M299.526123,581.103027 
	C301.041382,580.989807 302.102173,580.996033 303.560394,580.986450 
	C303.957825,582.398132 303.957825,583.825562 303.957825,585.924255 
	C295.606140,585.924255 287.774109,585.924255 279.143616,585.867188 
	C278.132568,585.717834 277.919983,585.625549 277.796600,585.203125 
	C278.006744,583.735779 278.127686,582.598694 278.248596,581.461548 
	C285.189606,581.381897 292.130646,581.302185 299.526123,581.103027 
z"/>
<path fill="#2B2B2B" opacity="1.000000" stroke="none" 
	d="
M277.707397,585.533325 
	C277.919983,585.625549 278.132568,585.717834 278.677368,585.912476 
	C278.991394,594.026672 278.973236,602.038513 278.979431,610.517395 
	C277.564026,610.984497 276.124268,610.984497 274.284546,610.984497 
	C274.284546,602.886414 274.284546,595.027222 274.624939,586.602295 
	C275.879333,585.868835 276.793365,585.701111 277.707397,585.533325 
z"/>
<path fill="#2B2B2B" opacity="1.000000" stroke="none" 
	d="
M278.956787,439.594727 
	C277.673615,440.020874 276.377014,439.973663 274.699738,439.830261 
	C274.302856,431.888763 274.286621,424.043518 274.617249,415.623535 
	C276.311462,415.039307 277.658813,415.029785 279.006165,415.020264 
	C278.985229,423.053986 278.964294,431.087677 278.956787,439.594727 
z"/>
<path fill="#646464" opacity="1.000000" stroke="none" 
	d="
M274.468018,355.261292 
	C275.791107,354.892181 277.038483,354.944336 278.661133,354.972778 
	C284.607056,354.987122 290.181152,354.927002 295.746246,355.123230 
	C297.409058,355.181854 299.046600,355.957611 300.852234,356.783112 
	C300.809845,357.779480 300.610901,358.397522 300.107178,359.176453 
	C292.401764,359.262390 285.000427,359.099609 277.600891,359.159729 
	C274.969208,359.181091 273.960266,358.230225 274.468018,355.261292 
z"/>
<path fill="#D1D1D1" opacity="1.000000" stroke="none" 
	d="
M279.468079,414.938354 
	C277.658813,415.029785 276.311462,415.039307 274.577026,415.175385 
	C273.613617,411.903107 275.353912,410.899292 278.441986,410.928406 
	C285.245239,410.992584 292.049866,410.914124 299.298431,410.846497 
	C299.786591,411.805725 299.830231,412.812378 299.892578,414.196075 
	C293.250854,414.667572 286.590454,414.761993 279.468079,414.938354 
z"/>
<path fill="#575757" opacity="1.000000" stroke="none" 
	d="
M301.138489,745.421631 
	C301.837830,744.695740 302.587494,744.333801 303.656860,743.984741 
	C305.604675,748.113159 307.232758,752.228821 308.640533,756.634888 
	C307.169556,756.603516 305.918915,756.281616 305.828308,756.258301 
	C304.053619,752.252258 302.621216,749.018860 301.138489,745.421631 
z"/>
<path fill="#2B2B2B" opacity="1.000000" stroke="none" 
	d="
M304.437469,281.714905 
	C303.674133,281.681274 303.178558,281.406097 302.398071,281.065063 
	C302.892181,277.762909 303.671173,274.526581 304.752075,270.861267 
	C306.243347,270.128448 307.432739,269.824615 308.622101,269.520813 
	C307.654175,272.456696 306.684387,275.391998 305.719238,278.328827 
	C305.375397,279.375061 305.042877,280.425049 304.437469,281.714905 
z"/>
<path fill="#D1D1D1" opacity="1.000000" stroke="none" 
	d="
M308.612030,269.130737 
	C307.432739,269.824615 306.243347,270.128448 304.681732,270.456757 
	C304.081207,266.509155 307.089539,262.401886 310.812531,262.085388 
	C310.308929,264.307190 309.455444,266.523926 308.612030,269.130737 
z"/>
<path fill="#A7A7A7" opacity="1.000000" stroke="none" 
	d="
M277.796600,585.203125 
	C276.793365,585.701111 275.879333,585.868835 274.630920,586.150635 
	C274.236023,583.881287 272.837769,580.673767 277.844055,581.311890 
	C278.127686,582.598694 278.006744,583.735779 277.796600,585.203125 
z"/>
<path fill="#575757" opacity="1.000000" stroke="none" 
	d="
M308.528809,760.093628 
	C309.903351,759.982239 311.164368,760.190308 313.027924,760.497864 
	C312.125946,761.445129 311.610809,761.986084 310.989929,762.832031 
	C308.025146,764.074463 309.069824,761.473633 308.528809,760.093628 
z"/>
<path fill="#838383" opacity="1.000000" stroke="none" 
	d="
M277.817474,329.283020 
	C277.140656,330.983032 276.065186,332.531403 274.670898,334.134338 
	C274.022766,331.683533 272.914886,328.706024 277.817474,329.283020 
z"/>
<path fill="#393939" opacity="1.000000" stroke="none" 
	d="
M745.236084,757.709351 
	C745.582764,757.377075 746.195312,756.827393 747.073364,756.205811 
	C747.564270,757.002808 747.789734,757.871704 748.100586,759.069946 
	C746.993225,758.397522 746.247559,757.944763 745.236084,757.709351 
z"/>
<path fill="#393939" opacity="1.000000" stroke="none" 
	d="
M747.543091,269.691833 
	C746.895325,269.528137 746.411438,269.174042 745.944763,268.630493 
	C746.470520,268.053040 746.979065,267.665100 747.895142,266.966187 
	C747.816040,268.031616 747.761475,268.766541 747.543091,269.691833 
z"/>
<path fill="#646464" opacity="1.000000" stroke="none" 
	d="
M276.026672,669.320007 
	C275.695099,669.924988 275.363495,670.530029 274.745422,671.138184 
	C274.420563,669.974487 274.382172,668.807800 274.750763,667.841919 
	C275.447418,668.468506 275.737061,668.894226 276.026672,669.320007 
z"/>
<path fill="#A7A7A7" opacity="1.000000" stroke="none" 
	d="
M276.301239,669.177490 
	C275.737061,668.894226 275.447418,668.468506 275.091736,667.795654 
	C275.891754,667.229736 276.757843,666.910950 277.818756,666.855835 
	C277.534302,667.757935 277.055023,668.396423 276.301239,669.177490 
z"/>
<path fill="#FFFFFF" opacity="1.000000" stroke="none" 
	d="
M331.202881,284.963043 
	C330.882050,278.864227 333.080750,276.446442 340.637268,275.375763 
	C343.330505,276.493286 345.633606,277.912720 347.938202,277.915222 
	C454.260071,278.030090 560.582092,278.021332 666.997742,278.485657 
	C667.098755,435.794678 667.106201,592.644897 667.107361,749.495178 
	C667.107361,750.324890 667.017883,751.154602 666.970154,751.984314 
	C611.219666,752.008850 555.469238,752.046143 499.718750,752.054321 
	C447.129547,752.062012 394.540314,752.039001 341.400391,751.630493 
	C339.931885,750.765625 339.014069,750.299683 338.096252,749.833801 
	C333.583801,748.530884 330.032043,746.470276 331.385071,740.437988 
	C332.513702,738.493774 333.889618,736.961609 333.910248,735.411377 
	C334.080627,722.604004 333.999908,709.793152 334.451111,696.864624 
	C341.561096,696.668091 348.215149,696.590393 355.280487,696.609131 
	C357.516174,696.502686 359.848236,697.332886 359.809998,693.999695 
	C359.709381,685.228516 359.776001,676.455383 359.776001,667.340210 
	C357.855988,667.239563 356.421814,667.164368 354.530090,666.983948 
	C347.407257,666.794006 340.741913,666.709229 334.064301,666.179443 
	C334.060333,647.614197 334.068695,629.493896 334.077026,611.373657 
	C341.058380,611.275024 348.039734,611.176453 355.894836,611.086365 
	C359.234100,611.506287 359.922424,610.347900 359.865417,608.016235 
	C359.686859,600.709778 359.668152,593.399353 359.629883,585.679626 
	C360.075867,582.304077 358.835663,581.208923 355.813080,581.228210 
	C348.556183,581.274475 341.297485,581.035645 334.029755,580.448730 
	C334.047821,563.392395 334.075623,546.799072 334.559784,530.140625 
	C340.668243,530.058044 346.328339,530.203613 351.967468,529.924683 
	C353.672485,529.840332 355.319305,528.579773 357.354614,527.769958 
	C358.439087,526.098511 359.731934,524.534180 359.785583,522.928467 
	C360.016510,516.017578 360.041046,509.087921 359.752777,502.181305 
	C359.693939,500.771484 357.962677,499.431458 356.826843,497.695129 
	C355.006897,496.872589 353.374908,496.077637 351.715881,496.016510 
	C345.851562,495.800415 339.978027,495.835510 334.080566,495.321625 
	C334.040192,478.254242 334.027283,461.640656 334.473969,444.931458 
	C342.963776,444.835846 350.993958,444.835846 359.360413,444.835846 
	C359.471893,442.736023 359.547363,441.315094 359.712158,439.440369 
	C359.813507,432.180176 359.717896,425.371094 359.886475,418.568542 
	C359.961975,415.520905 359.161499,414.084503 355.931183,415.132141 
	C348.952087,415.020599 341.972961,414.909088 334.542114,414.262634 
	C334.080200,395.612274 334.070007,377.496918 334.516602,359.290710 
	C341.647919,359.130981 348.322418,359.062073 355.425415,359.066895 
	C358.771179,359.514709 359.993500,358.477631 359.880798,355.307312 
	C359.668701,349.343079 359.948486,343.363251 359.866028,337.392059 
	C359.778687,331.068390 357.912628,329.333069 351.387207,329.207703 
	C345.588348,329.096283 339.788696,329.025604 333.996399,328.472656 
	C334.006012,315.447754 334.120361,302.885101 333.886200,290.328888 
	C333.852539,288.524231 332.138977,286.750885 331.202881,284.963043 
M446.063049,653.894531 
	C501.249481,653.894531 556.435913,653.894531 611.835144,653.894531 
	C611.728333,652.207947 611.655823,651.063171 611.789246,649.012573 
	C611.722534,642.060547 611.655823,635.108459 611.785278,627.304077 
	C612.426514,624.001465 610.394653,623.974426 607.979492,623.976074 
	C554.500916,624.012024 501.022278,623.985840 447.543884,624.085083 
	C446.019867,624.087891 444.498138,625.331726 442.270905,626.362488 
	C441.816925,627.909729 441.002502,629.449829 440.971924,631.005371 
	C440.845154,637.455261 441.124329,643.915466 440.910492,650.360413 
	C440.795074,653.838623 442.466370,654.220337 446.063049,653.894531 
M443.272827,596.868530 
	C445.453247,597.333679 447.633087,598.201904 449.814178,598.205078 
	C501.878601,598.280701 553.943176,598.263367 606.007690,598.263062 
	C607.789368,598.263062 609.571045,598.263062 611.661438,598.263062 
	C611.661438,596.416443 611.661438,595.136353 611.810425,592.948547 
	C611.760864,586.328430 611.711304,579.708252 611.869568,572.268433 
	C612.731750,567.868225 609.714233,568.400879 607.021301,568.401428 
	C554.458069,568.411621 501.894867,568.403076 449.331665,568.428284 
	C447.872711,568.428955 446.413849,568.759155 444.083069,568.813721 
	C441.174408,568.358826 440.961548,570.144409 440.976044,572.358337 
	C441.019043,578.918335 440.848511,585.481934 441.026642,592.036926 
	C441.064362,593.424011 442.228333,594.780518 443.272827,596.868530 
M611.868286,384.342834 
	C610.568848,382.260162 609.269409,380.177460 607.356934,377.752258 
	C605.333252,373.698273 602.301208,371.967743 597.536316,371.980988 
	C550.461914,372.111877 503.386841,371.991241 456.312439,372.116730 
	C453.049561,372.125397 449.543915,373.044067 446.645630,374.514191 
	C445.411255,375.140320 445.575531,378.323547 444.859894,380.254150 
	C444.483276,381.270203 443.580383,382.091125 442.204742,383.347900 
	C441.782928,385.080170 440.996460,386.811707 440.993073,388.544830 
	C440.921997,424.668549 440.922821,460.792419 441.003815,496.916077 
	C441.006897,498.295990 441.952148,499.673798 442.271576,501.781281 
	C443.674591,504.463074 444.453247,507.985504 446.641113,509.610535 
	C449.283997,511.573425 453.117065,512.828552 456.441925,512.843506 
	C502.494263,513.050110 548.548401,513.091370 594.600037,512.819885 
	C598.594360,512.796326 602.618591,510.392426 606.522278,508.828156 
	C607.290833,508.520172 607.568176,506.986267 608.840454,505.954712 
	C612.376099,505.149109 612.028931,502.534790 611.811157,498.994904 
	C611.760071,461.025391 611.708984,423.055908 611.868286,384.342834 
z"/>
<path fill="#FEFEFE" opacity="1.000000" stroke="none" 
	d="
M697.112244,274.085846 
	C701.749207,274.040649 706.422119,273.637817 711.008057,274.099426 
	C713.340881,274.334229 715.517090,276.124420 717.893494,277.945679 
	C719.662659,281.448883 721.302429,284.217926 722.898865,287.454773 
	C722.864563,438.625946 722.873535,589.329285 722.606201,740.246826 
	C720.906616,743.011902 719.483459,745.562805 718.060303,748.113708 
	C712.301941,754.102051 704.880676,751.587708 697.564392,751.504761 
	C697.083130,699.324646 697.064941,647.669373 697.068909,596.014099 
	C697.077148,488.704681 697.097107,381.395264 697.112244,274.085846 
z"/>
<path fill="#343434" opacity="1.000000" stroke="none" 
	d="
M667.399170,752.014282 
	C667.017883,751.154602 667.107361,750.324890 667.107361,749.495178 
	C667.106201,592.644897 667.098755,435.794678 667.075806,278.091492 
	C667.020386,276.170624 666.980591,275.102631 666.940796,274.034668 
	C669.906677,273.484955 671.298950,274.999512 671.615479,277.730408 
	C671.806274,279.376587 671.862305,281.046387 671.862427,282.705566 
	C671.873047,437.176178 671.873291,591.646790 671.865295,746.117432 
	C671.865112,748.974121 672.854065,752.578186 667.399170,752.014282 
z"/>
<path fill="#575757" opacity="1.000000" stroke="none" 
	d="
M696.674927,274.040527 
	C697.097107,381.395264 697.077148,488.704681 697.068909,596.014099 
	C697.064941,647.669373 697.083130,699.324646 697.108215,751.442078 
	C694.325073,752.405090 692.499939,751.794006 692.945923,748.386292 
	C693.074524,747.403503 692.961975,746.389343 692.961975,745.389526 
	C692.961548,590.255554 692.952820,435.121582 693.044861,279.987671 
	C693.046204,277.760254 690.987244,273.719086 696.674927,274.040527 
z"/>
<path fill="#535353" opacity="1.000000" stroke="none" 
	d="
M722.882568,740.032654 
	C722.873535,589.329285 722.864563,438.625946 723.205505,287.380676 
	C723.829773,286.520172 724.104065,286.201569 724.378296,285.882965 
	C725.244690,286.915741 726.386719,287.831085 726.892151,289.017639 
	C727.313477,290.006683 726.992554,291.313812 726.992554,292.480072 
	C726.993347,439.436584 727.001953,586.393066 726.911560,733.349548 
	C726.910217,735.565735 725.681946,737.781128 724.295471,740.016541 
	C723.337341,740.035034 723.109924,740.033813 722.882568,740.032654 
z"/>
<path fill="#D7D7D7" opacity="1.000000" stroke="none" 
	d="
M666.477722,273.990356 
	C666.980591,275.102631 667.020386,276.170624 666.982178,277.632751 
	C560.582092,278.021332 454.260071,278.030090 347.938202,277.915222 
	C345.633606,277.912720 343.330505,276.493286 341.006042,275.329132 
	C342.645386,274.594818 344.305267,273.979248 345.965424,273.978607 
	C452.648468,273.935913 559.331543,273.943237 666.477722,273.990356 
z"/>
<path fill="#646464" opacity="1.000000" stroke="none" 
	d="
M333.989410,328.936951 
	C339.788696,329.025604 345.588348,329.096283 351.387207,329.207703 
	C357.912628,329.333069 359.778687,331.068390 359.866028,337.392059 
	C359.948486,343.363251 359.668701,349.343079 359.880798,355.307312 
	C359.993500,358.477631 358.771179,359.514709 355.456238,358.674805 
	C355.065277,357.162262 355.071899,356.115570 355.078491,355.068878 
	C355.310303,349.126282 355.604584,343.185211 355.745972,337.240448 
	C355.811035,334.505768 354.213745,333.630280 351.559235,333.693604 
	C346.090179,333.824097 340.614929,333.694977 334.635040,333.299927 
	C334.091217,331.848175 334.054596,330.769165 333.990601,329.502594 
	C333.963287,329.315063 333.989410,328.936951 333.989410,328.936951 
z"/>
<path fill="#D1D1D1" opacity="1.000000" stroke="none" 
	d="
M334.059814,359.381531 
	C334.070007,377.496918 334.080200,395.612274 334.087036,414.171875 
	C332.825592,414.616058 331.567535,414.616058 329.983856,414.616058 
	C329.983856,396.264465 329.983856,378.183502 330.444946,359.635132 
	C331.957275,359.239014 333.008545,359.310272 334.059814,359.381531 
z"/>
<path fill="#D1D1D1" opacity="1.000000" stroke="none" 
	d="
M333.648254,611.273010 
	C334.068695,629.493896 334.060333,647.614197 333.676361,666.253174 
	C332.247650,666.795349 331.194580,666.818909 330.141510,666.842468 
	C330.067169,649.208862 330.038605,631.574768 329.869812,613.942078 
	C329.844086,611.257202 331.104736,610.886292 333.648254,611.273010 
z"/>
<path fill="#D7D7D7" opacity="1.000000" stroke="none" 
	d="
M334.014343,445.027039 
	C334.027283,461.640656 334.040192,478.254242 333.795013,495.482361 
	C333.018433,496.764618 332.499939,497.432373 331.981476,498.100159 
	C331.298584,496.267517 330.041290,494.440552 330.023132,492.601349 
	C329.869690,477.058716 329.942535,461.513824 330.401733,445.460602 
	C331.908813,444.976746 332.961578,445.001892 334.014343,445.027039 
z"/>
<path fill="#D7D7D7" opacity="1.000000" stroke="none" 
	d="
M334.103394,530.205811 
	C334.075623,546.799072 334.047821,563.392395 333.635406,580.494995 
	C332.193726,580.983948 331.136658,580.963501 330.079590,580.942993 
	C330.030945,564.844971 329.959473,548.747009 329.978973,532.649048 
	C329.980438,531.422241 330.626038,530.196289 331.277802,528.579468 
	C331.583374,528.189087 331.989227,528.178223 332.132324,528.438477 
	C332.884766,529.201050 333.494080,529.703430 334.103394,530.205811 
z"/>
<path fill="#D7D7D7" opacity="1.000000" stroke="none" 
	d="
M330.980774,285.338135 
	C332.138977,286.750885 333.852539,288.524231 333.886200,290.328888 
	C334.120361,302.885101 334.006012,315.447754 333.996399,328.472656 
	C333.989410,328.936951 333.963287,329.315063 333.602051,329.364838 
	C332.153473,329.288544 331.066101,329.162476 329.978760,329.036438 
	C329.964111,315.987366 329.924530,302.938232 329.971100,289.889404 
	C329.976074,288.496429 330.484009,287.105255 330.980774,285.338135 
z"/>
<path fill="#D7D7D7" opacity="1.000000" stroke="none" 
	d="
M333.995209,696.983398 
	C333.999908,709.793152 334.080627,722.604004 333.910248,735.411377 
	C333.889618,736.961609 332.513702,738.493774 331.339905,740.025391 
	C330.586853,738.534668 329.984924,737.054565 329.976196,735.570923 
	C329.902222,723.017639 329.936462,710.463806 330.356079,697.344299 
	C331.847687,696.846802 332.921448,696.915100 333.995209,696.983398 
z"/>
<path fill="#838383" opacity="1.000000" stroke="none" 
	d="
M334.473969,444.931458 
	C332.961578,445.001892 331.908813,444.976746 330.463501,444.998352 
	C330.070984,443.616821 330.070984,442.188446 330.070984,440.068817 
	C338.715118,440.068817 346.799347,440.068817 355.706238,439.988556 
	C357.560181,439.903595 358.591492,439.898895 359.622803,439.894165 
	C359.547363,441.315094 359.471893,442.736023 359.360413,444.835846 
	C350.993958,444.835846 342.963776,444.835846 334.473969,444.931458 
z"/>
<path fill="#7B7B7B" opacity="1.000000" stroke="none" 
	d="
M330.030212,581.367920 
	C331.136658,580.963501 332.193726,580.983948 333.645142,580.958130 
	C341.297485,581.035645 348.556183,581.274475 355.813080,581.228210 
	C358.835663,581.208923 360.075867,582.304077 359.244629,585.680725 
	C357.788300,586.128113 356.759613,586.163574 355.730957,586.198975 
	C348.450745,586.034851 341.169403,585.720886 333.890900,585.777893 
	C330.826538,585.801880 329.586304,584.793213 330.030212,581.367920 
z"/>
<path fill="#646464" opacity="1.000000" stroke="none" 
	d="
M357.002380,498.059265 
	C357.962677,499.431458 359.693939,500.771484 359.752777,502.181305 
	C360.041046,509.087921 360.016510,516.017578 359.785583,522.928467 
	C359.731934,524.534180 358.439087,526.098511 357.258728,527.473877 
	C356.145203,526.773376 355.489441,526.281006 354.833649,525.788635 
	C354.942139,517.526306 355.050629,509.264008 355.361542,500.480286 
	C356.043457,499.325653 356.522919,498.692474 357.002380,498.059265 
z"/>
<path fill="#646464" opacity="1.000000" stroke="none" 
	d="
M354.987640,667.089172 
	C356.421814,667.164368 357.855988,667.239563 359.776001,667.340210 
	C359.776001,676.455383 359.709381,685.228516 359.809998,693.999695 
	C359.848236,697.332886 357.516174,696.502686 355.307709,696.244629 
	C355.004028,694.576355 355.084381,693.369019 355.164764,692.161682 
	C355.293762,685.309753 355.422791,678.457886 355.270752,670.904114 
	C354.989014,669.164551 354.988312,668.126892 354.987640,667.089172 
z"/>
<path fill="#2B2B2B" opacity="1.000000" stroke="none" 
	d="
M354.682434,692.124878 
	C355.084381,693.369019 355.004028,694.576355 354.896423,696.148193 
	C348.215149,696.590393 341.561096,696.668091 334.451111,696.864624 
	C332.921448,696.915100 331.847687,696.846802 330.379333,696.874268 
	C329.488525,693.147217 331.665802,692.046692 334.963837,692.056152 
	C341.375885,692.074524 347.787994,692.078308 354.682434,692.124878 
z"/>
<path fill="#575757" opacity="1.000000" stroke="none" 
	d="
M359.712158,439.440369 
	C358.591492,439.898895 357.560181,439.903595 356.143616,439.855591 
	C355.778778,431.884277 355.799225,423.965698 355.875427,415.589630 
	C359.161499,414.084503 359.961975,415.520905 359.886475,418.568542 
	C359.717896,425.371094 359.813507,432.180176 359.712158,439.440369 
z"/>
<path fill="#575757" opacity="1.000000" stroke="none" 
	d="
M355.748901,586.651978 
	C356.759613,586.163574 357.788300,586.128113 359.202209,586.091614 
	C359.668152,593.399353 359.686859,600.709778 359.865417,608.016235 
	C359.922424,610.347900 359.234100,611.506287 356.346313,610.971802 
	C355.871674,602.934082 355.819275,595.019470 355.748901,586.651978 
z"/>
<path fill="#535353" opacity="1.000000" stroke="none" 
	d="
M354.530090,666.983948 
	C354.988312,668.126892 354.989014,669.164551 354.997559,670.591187 
	C347.863373,670.970947 340.720703,670.905212 333.579681,670.984558 
	C331.197449,671.010986 329.629608,670.531677 330.104889,667.275635 
	C331.194580,666.818909 332.247650,666.795349 333.688660,666.698181 
	C340.741913,666.709229 347.407257,666.794006 354.530090,666.983948 
z"/>
<path fill="#2B2B2B" opacity="1.000000" stroke="none" 
	d="
M334.516602,359.290710 
	C333.008545,359.310272 331.957275,359.239014 330.509216,359.182739 
	C329.461243,355.831512 330.989319,354.868195 334.206757,354.958588 
	C340.842346,355.144958 347.486725,355.020416 354.602997,355.046356 
	C355.071899,356.115570 355.065277,357.162262 355.027802,358.601074 
	C348.322418,359.062073 341.647919,359.130981 334.516602,359.290710 
z"/>
<path fill="#A7A7A7" opacity="1.000000" stroke="none" 
	d="
M356.826843,497.695129 
	C356.522919,498.692474 356.043457,499.325653 355.226898,500.034180 
	C348.849823,500.094391 342.807953,500.157013 336.771210,500.009186 
	C335.271667,499.972443 333.788788,499.254578 332.139862,498.474976 
	C332.499939,497.432373 333.018433,496.764618 333.822449,495.936096 
	C339.978027,495.835510 345.851562,495.800415 351.715881,496.016510 
	C353.374908,496.077637 355.006897,496.872589 356.826843,497.695129 
z"/>
<path fill="#A7A7A7" opacity="1.000000" stroke="none" 
	d="
M354.376495,525.806274 
	C355.489441,526.281006 356.145203,526.773376 356.896851,527.561890 
	C355.319305,528.579773 353.672485,529.840332 351.967468,529.924683 
	C346.328339,530.203613 340.668243,530.058044 334.559784,530.140625 
	C333.494080,529.703430 332.884766,529.201050 332.231628,528.188538 
	C332.454834,527.223083 332.721893,526.767700 332.988983,526.312378 
	C339.965759,526.149597 346.942566,525.986755 354.376495,525.806274 
z"/>
<path fill="#D1D1D1" opacity="1.000000" stroke="none" 
	d="
M724.264587,285.489807 
	C724.104065,286.201569 723.829773,286.520172 723.248840,286.912842 
	C721.302429,284.217926 719.662659,281.448883 718.044373,278.278076 
	C719.380432,277.999664 720.695068,278.123047 722.105042,278.255402 
	C722.787231,280.536743 723.469055,282.816711 724.264587,285.489807 
z"/>
<path fill="#D1D1D1" opacity="1.000000" stroke="none" 
	d="
M722.606201,740.246826 
	C723.109924,740.033813 723.337341,740.035034 723.904907,740.011597 
	C722.372314,742.597717 724.990601,748.226379 718.465942,748.048706 
	C719.483459,745.562805 720.906616,743.011902 722.606201,740.246826 
z"/>
<path fill="#393939" opacity="1.000000" stroke="none" 
	d="
M329.928558,329.452332 
	C331.066101,329.162476 332.153473,329.288544 333.629395,329.552368 
	C334.054596,330.769165 334.091217,331.848175 334.188232,333.238525 
	C330.735413,334.763672 329.635590,333.112793 329.928558,329.452332 
z"/>
<path fill="#343434" opacity="1.000000" stroke="none" 
	d="
M338.109283,750.192932 
	C339.014069,750.299683 339.931885,750.765625 340.940979,751.543335 
	C339.028961,753.728271 338.310944,752.731262 338.109283,750.192932 
z"/>
<path fill="#646464" opacity="1.000000" stroke="none" 
	d="
M332.819946,526.081238 
	C332.721893,526.767700 332.454834,527.223083 332.088501,527.928345 
	C331.989227,528.178223 331.583374,528.189087 331.381195,528.170898 
	C331.415100,527.222473 328.941315,524.559998 332.819946,526.081238 
z"/>
<path fill="#020202" opacity="1.000000" stroke="none" 
	d="
M442.915100,383.000183 
	C443.580383,382.091125 444.483276,381.270203 444.859894,380.254150 
	C445.575531,378.323547 445.411255,375.140320 446.645630,374.514191 
	C449.543915,373.044067 453.049561,372.125397 456.312439,372.116730 
	C503.386841,371.991241 550.461914,372.111877 597.536316,371.980988 
	C602.301208,371.967743 605.333252,373.698273 607.698364,378.312927 
	C607.720581,380.614319 607.401428,382.355011 607.014282,384.466797 
	C608.796387,384.704590 610.227173,384.895477 611.657959,385.086365 
	C611.708984,423.055908 611.760071,461.025391 611.364014,499.459808 
	C606.936096,500.539886 607.372925,503.217590 608.072083,506.017761 
	C607.568176,506.986267 607.290833,508.520172 606.522278,508.828156 
	C602.618591,510.392426 598.594360,512.796326 594.600037,512.819885 
	C548.548401,513.091370 502.494263,513.050110 456.441925,512.843506 
	C453.117065,512.828552 449.283997,511.573425 446.641113,509.610535 
	C444.453247,507.985504 443.674591,504.463074 442.773376,501.460754 
	C443.869324,499.839691 444.979126,498.540466 444.982452,497.238434 
	C445.076111,460.631104 445.082977,424.023346 444.967651,387.416138 
	C444.963013,385.942017 443.629456,384.472046 442.915100,383.000183 
M583.723572,484.746613 
	C584.499329,483.050140 585.940552,481.357605 585.950623,479.656586 
	C586.096558,454.962250 586.116516,430.266296 585.919189,405.572662 
	C585.904236,403.704987 584.017456,401.852295 582.638306,399.273621 
	C581.454773,398.822327 580.271912,397.978729 579.087646,397.976807 
	C544.300354,397.920471 509.512878,397.983276 474.725708,397.903625 
	C471.479095,397.896210 470.558502,399.155151 470.867645,402.974609 
	C470.924042,429.634857 470.980438,456.295135 470.989655,483.816010 
	C470.651520,488.092407 473.896759,487.066040 476.109863,487.069977 
	C510.046753,487.130432 543.983887,487.146454 577.920471,487.028442 
	C579.615662,487.022552 581.306213,485.702942 583.723572,484.746613 
z"/>
<path fill="#020202" opacity="1.000000" stroke="none" 
	d="
M611.589111,628.156433 
	C611.655823,635.108459 611.722534,642.060547 611.244385,649.448608 
	C555.568115,649.891541 500.436615,649.898438 445.208496,649.451782 
	C445.162201,642.064697 445.212585,635.131042 445.714050,628.170044 
	C501.306458,628.147278 556.447815,628.151855 611.589111,628.156433 
z"/>
<path fill="#000000" opacity="1.000000" stroke="none" 
	d="
M611.661743,573.088135 
	C611.711304,579.708252 611.760864,586.328430 611.288940,593.419250 
	C555.836975,593.932678 500.906464,593.975403 445.855286,593.818115 
	C445.552582,593.361938 445.334595,593.141235 445.072754,592.490479 
	C445.097168,585.718811 445.129486,579.412720 445.616638,573.042358 
	C488.301819,572.949768 530.532227,572.904480 572.762634,572.903198 
	C585.729004,572.902832 598.695374,573.023132 611.661743,573.088135 
z"/>
<path fill="#393939" opacity="1.000000" stroke="none" 
	d="
M611.765625,572.678284 
	C598.695374,573.023132 585.729004,572.902832 572.762634,572.903198 
	C530.532227,572.904480 488.301819,572.949768 445.566406,572.627075 
	C445.025879,571.162598 444.990417,570.049194 444.954956,568.935730 
	C446.413849,568.759155 447.872711,568.428955 449.331665,568.428284 
	C501.894867,568.403076 554.458069,568.411621 607.021301,568.401428 
	C609.714233,568.400879 612.731750,567.868225 611.765625,572.678284 
z"/>
<path fill="#535353" opacity="1.000000" stroke="none" 
	d="
M445.975952,594.018066 
	C500.906464,593.975403 555.836975,593.932678 611.214478,593.873169 
	C611.661438,595.136353 611.661438,596.416443 611.661438,598.263062 
	C609.571045,598.263062 607.789368,598.263062 606.007690,598.263062 
	C553.943176,598.263367 501.878601,598.280701 449.814178,598.205078 
	C447.633087,598.201904 445.453247,597.333679 443.245972,596.254883 
	C443.810852,595.095581 444.402527,594.549866 445.239441,594.021423 
	C445.484680,594.038696 445.975952,594.018066 445.975952,594.018066 
z"/>
<path fill="#535353" opacity="1.000000" stroke="none" 
	d="
M611.687195,627.730225 
	C556.447815,628.151855 501.306458,628.147278 445.558655,627.880066 
	C444.293213,627.077271 443.634277,626.537109 442.975342,625.996948 
	C444.498138,625.331726 446.019867,624.087891 447.543884,624.085083 
	C501.022278,623.985840 554.500916,624.012024 607.979492,623.976074 
	C610.394653,623.974426 612.426514,624.001465 611.687195,627.730225 
z"/>
<path fill="#2B2B2B" opacity="1.000000" stroke="none" 
	d="
M445.305115,649.905334 
	C500.436615,649.898438 555.568115,649.891541 611.141479,649.901489 
	C611.655823,651.063171 611.728333,652.207947 611.835144,653.894531 
	C556.435913,653.894531 501.249481,653.894531 445.618530,653.431030 
	C445.217682,651.946777 445.261383,650.926086 445.305115,649.905334 
z"/>
<path fill="#7B7B7B" opacity="1.000000" stroke="none" 
	d="
M442.559906,383.174011 
	C443.629456,384.472046 444.963013,385.942017 444.967651,387.416138 
	C445.082977,424.023346 445.076111,460.631104 444.982452,497.238434 
	C444.979126,498.540466 443.869324,499.839691 442.866760,501.096375 
	C441.952148,499.673798 441.006897,498.295990 441.003815,496.916077 
	C440.922821,460.792419 440.921997,424.668549 440.993073,388.544830 
	C440.996460,386.811707 441.782928,385.080170 442.559906,383.174011 
z"/>
<path fill="#838383" opacity="1.000000" stroke="none" 
	d="
M445.208496,649.451782 
	C445.261383,650.926086 445.217682,651.946777 445.165924,653.352234 
	C442.466370,654.220337 440.795074,653.838623 440.910492,650.360413 
	C441.124329,643.915466 440.845154,637.455261 440.971924,631.005371 
	C441.002502,629.449829 441.816925,627.909729 442.623108,626.179688 
	C443.634277,626.537109 444.293213,627.077271 445.107544,627.907471 
	C445.212585,635.131042 445.162201,642.064697 445.208496,649.451782 
z"/>
<path fill="#7B7B7B" opacity="1.000000" stroke="none" 
	d="
M444.994202,594.004150 
	C444.402527,594.549866 443.810852,595.095581 443.046265,595.896240 
	C442.228333,594.780518 441.064362,593.424011 441.026642,592.036926 
	C440.848511,585.481934 441.019043,578.918335 440.976044,572.358337 
	C440.961548,570.144409 441.174408,568.358826 444.519012,568.874756 
	C444.990417,570.049194 445.025879,571.162598 445.111603,572.691284 
	C445.129486,579.412720 445.097168,585.718811 445.005554,592.748779 
	C444.962250,593.649780 444.978210,593.826904 444.994202,594.004150 
z"/>
<path fill="#393939" opacity="1.000000" stroke="none" 
	d="
M611.763123,384.714600 
	C610.227173,384.895477 608.796387,384.704590 607.014282,384.466797 
	C607.401428,382.355011 607.720581,380.614319 608.004822,378.484192 
	C609.269409,380.177460 610.568848,382.260162 611.763123,384.714600 
z"/>
<path fill="#393939" opacity="1.000000" stroke="none" 
	d="
M608.456299,505.986237 
	C607.372925,503.217590 606.936096,500.539886 611.286743,499.916779 
	C612.028931,502.534790 612.376099,505.149109 608.456299,505.986237 
z"/>
<path fill="#575757" opacity="1.000000" stroke="none" 
	d="
M471.051514,402.061096 
	C470.558502,399.155151 471.479095,397.896210 474.725708,397.903625 
	C509.512878,397.983276 544.300354,397.920471 579.087646,397.976807 
	C580.271912,397.978729 581.454773,398.822327 582.797546,399.968933 
	C582.560059,401.163055 582.163330,401.661865 581.315979,402.109985 
	C545.594238,402.096069 510.323120,402.132843 474.654541,402.118835 
	C473.188568,402.065704 472.120026,402.063385 471.051514,402.061096 
z"/>
<path fill="#575757" opacity="1.000000" stroke="none" 
	d="
M582.998962,484.995026 
	C581.306213,485.702942 579.615662,487.022552 577.920471,487.028442 
	C543.983887,487.146454 510.046753,487.130432 476.109863,487.069977 
	C473.896759,487.066040 470.651520,488.092407 471.414276,483.404938 
	C472.907013,482.951385 473.975098,482.908905 475.502686,482.948914 
	C497.196808,483.040833 518.431580,483.082458 539.666199,483.048492 
	C553.762146,483.025970 567.858032,482.895264 582.046936,483.103088 
	C582.426331,483.927155 582.712646,484.461090 582.998962,484.995026 
z"/>
<path fill="#7B7B7B" opacity="1.000000" stroke="none" 
	d="
M583.361267,484.870819 
	C582.712646,484.461090 582.426331,483.927155 582.005981,482.648834 
	C581.836853,455.323181 581.801758,428.741943 581.766663,402.160675 
	C582.163330,401.661865 582.560059,401.163055 582.978760,400.328430 
	C584.017456,401.852295 585.904236,403.704987 585.919189,405.572662 
	C586.116516,430.266296 586.096558,454.962250 585.950623,479.656586 
	C585.940552,481.357605 584.499329,483.050140 583.361267,484.870819 
z"/>
<path fill="#D7D7D7" opacity="1.000000" stroke="none" 
	d="
M475.043213,482.866455 
	C473.975098,482.908905 472.907013,482.951385 471.437866,482.974609 
	C470.980438,456.295135 470.924042,429.634857 470.959595,402.517853 
	C472.120026,402.063385 473.188568,402.065704 474.636993,402.575928 
	C475.025665,429.678040 475.034454,456.272217 475.043213,482.866455 
z"/>
<path fill="#393939" opacity="1.000000" stroke="none" 
	d="
M445.239441,594.021362 
	C444.978210,593.826904 444.962250,593.649780 445.013489,593.214294 
	C445.334595,593.141235 445.552582,593.361938 445.855286,593.818115 
	C445.975952,594.018066 445.484680,594.038696 445.239441,594.021362 
z"/>
<path fill="#FFFFFF" opacity="1.000000" stroke="none" 
	d="
M475.502686,482.948914 
	C475.034454,456.272217 475.025665,429.678040 475.034485,402.626709 
	C510.323120,402.132843 545.594238,402.096069 581.315979,402.109985 
	C581.801758,428.741943 581.836853,455.323181 581.912964,482.358704 
	C567.858032,482.895264 553.762146,483.025970 539.666199,483.048492 
	C518.431580,483.082458 497.196808,483.040833 475.502686,482.948914 
z"/>
</svg>