<?xml version="1.0" standalone="no"?>
<!DOCTYPE svg PUBLIC "-//W3C//DTD SVG 20010904//EN"
 "http://www.w3.org/TR/2001/REC-SVG-20010904/DTD/svg10.dtd">
<svg version="1.0" xmlns="http://www.w3.org/2000/svg"
 width="1080.000000pt" height="2280.000000pt" viewBox="0 0 1080.000000 2280.000000"
 preserveAspectRatio="xMidYMid meet">

<g transform="translate(0.000000,2280.000000) scale(0.100000,-0.100000)"
fill="#000000" stroke="none">
<path d="M1889 22290 c-94 -28 -146 -127 -119 -224 37 -134 202 -176 301 -77
134 134 0 357 -182 301z m117 -164 c26 -61 31 -82 22 -88 -21 -13 -22 -11 -53
59 l-29 68 -30 -68 c-16 -37 -33 -67 -38 -67 -22 0 -18 37 12 106 29 66 36 75
57 72 20 -2 31 -18 59 -82z"/>
<path d="M7186 22266 c-45 -17 -88 -46 -94 -64 -6 -19 14 -14 54 13 70 47 160
46 230 -4 42 -30 69 -26 43 5 -41 50 -163 76 -233 50z"/>
<path d="M1483 22260 c-34 -14 -43 -42 -43 -135 0 -78 2 -88 25 -110 15 -16
36 -25 55 -25 19 0 40 9 55 25 23 22 25 32 25 113 0 71 -4 94 -17 111 -21 24
-68 35 -100 21z m75 -33 c20 -15 16 -176 -5 -199 -21 -24 -46 -23 -69 3 -15
17 -19 36 -19 101 0 71 2 82 23 98 22 18 43 18 70 -3z"/>
<path d="M5874 22255 c-4 -8 -12 -15 -19 -15 -35 0 -45 -29 -45 -136 0 -144 0
-144 110 -144 110 0 110 0 110 144 0 107 -10 136 -45 136 -7 0 -15 7 -19 15
-3 10 -19 15 -46 15 -27 0 -43 -5 -46 -15z m80 -97 c20 -28 9 -44 -15 -22 -18
16 -20 16 -38 0 -10 -10 -22 -13 -25 -8 -8 14 23 52 44 52 10 0 26 -10 34 -22z
m-74 -55 c0 -5 -5 -15 -10 -23 -7 -11 -4 -16 12 -20 35 -9 34 -30 -1 -30 -35
0 -46 17 -37 55 6 22 36 37 36 18z m116 -18 c9 -38 -2 -55 -37 -55 -35 0 -36
21 -1 30 16 4 19 9 12 20 -14 21 -12 30 5 30 8 0 17 -11 21 -25z"/>
<path d="M7834 22257 c-2 -7 -3 -71 -2 -142 2 -92 7 -130 16 -133 9 -3 12 30
12 142 0 94 -4 146 -10 146 -6 0 -13 -6 -16 -13z"/>
<path d="M8093 22260 c-43 -18 -56 -77 -24 -109 18 -18 18 -19 -2 -39 -27 -28
-25 -81 4 -104 34 -28 108 -19 131 16 15 22 8 73 -12 91 -19 17 -19 18 0 43
11 13 20 33 20 42 0 46 -68 81 -117 60z m75 -33 c21 -16 14 -55 -13 -73 -23
-15 -27 -15 -50 0 -31 20 -33 59 -4 80 21 14 42 12 67 -7z m8 -135 c23 -47
-12 -90 -62 -78 -64 16 -46 110 19 104 21 -2 35 -11 43 -26z"/>
<path d="M8500 22250 c-22 -22 -24 -37 -10 -74 8 -21 16 -26 43 -26 41 0 57
15 57 55 0 57 -52 83 -90 45z m66 -27 c13 -51 -36 -85 -57 -40 -8 18 -8 30 0
46 17 30 49 27 57 -6z"/>
<path d="M741 22246 c-49 -18 -54 -39 -7 -31 l36 7 0 -116 c0 -96 3 -116 15
-116 13 0 15 22 15 135 0 147 2 143 -59 121z"/>
<path d="M961 22244 c-32 -23 -51 -74 -51 -138 0 -44 5 -60 26 -85 45 -53 115
-39 135 27 9 31 8 45 -4 75 -18 42 -50 55 -97 39 -25 -9 -30 -8 -30 4 0 23 55
74 79 74 12 0 21 5 21 10 0 16 -53 12 -79 -6z m80 -131 c14 -37 11 -61 -11
-83 -25 -25 -45 -25 -71 1 -28 28 -23 89 9 105 32 16 62 6 73 -23z"/>
<path d="M1245 22248 c-2 -7 -5 -37 -8 -66 l-4 -53 44 7 c34 5 48 3 63 -11 50
-45 3 -133 -56 -107 -13 7 -27 19 -30 27 -9 23 -33 19 -27 -5 14 -52 97 -67
138 -25 31 30 34 92 6 126 -16 19 -28 24 -66 23 -43 -1 -46 1 -41 20 3 12 6
29 6 39 0 14 9 17 55 17 30 0 55 5 55 10 0 15 -130 13 -135 -2z"/>
<path d="M2778 22115 c3 -130 5 -145 21 -145 25 0 41 20 41 51 0 26 2 27 33
22 66 -10 127 46 127 118 0 46 -56 99 -105 99 -20 0 -45 -5 -55 -10 -13 -7
-21 -7 -25 0 -3 5 -14 10 -23 10 -15 0 -17 -14 -14 -145z m146 66 c37 -41 -14
-97 -60 -66 -28 18 -31 41 -7 67 21 23 45 23 67 -1z"/>
<path d="M6228 22236 c-16 -12 -28 -27 -28 -34 0 -20 25 -14 50 13 32 34 14
51 -22 21z"/>
<path d="M6425 22249 c-8 -12 33 -59 52 -59 20 0 15 24 -10 48 -26 25 -33 27
-42 11z"/>
<path d="M6813 22238 c-18 -13 -33 -25 -33 -28 0 -3 18 -24 40 -45 l40 -39 0
67 c0 37 -3 67 -8 67 -4 0 -22 -10 -39 -22z"/>
<path d="M8260 22250 c0 -5 33 -10 74 -12 l73 -3 -48 -102 c-59 -127 -64 -143
-47 -143 10 0 86 155 124 255 5 13 -8 15 -85 15 -51 0 -91 -4 -91 -10z"/>
<path d="M6670 22243 c0 -3 11 -21 26 -40 l25 -33 -25 0 c-42 0 -62 -63 -30
-94 8 -9 29 -16 46 -16 22 0 46 -13 84 -45 28 -25 55 -45 58 -45 3 0 6 14 6
32 l0 32 28 -27 c27 -26 52 -35 52 -19 0 9 -253 262 -263 262 -4 0 -7 -3 -7
-7z"/>
<path d="M2435 22216 c-18 -13 -18 -14 3 -36 12 -13 22 -27 22 -32 0 -4 16 -8
35 -8 32 0 35 3 35 28 0 52 -53 79 -95 48z"/>
<path d="M6295 22221 c-59 -26 -91 -109 -65 -171 10 -24 10 -33 0 -45 -10 -13
-11 -18 -1 -28 10 -9 15 -8 26 7 10 14 18 16 27 9 25 -19 67 -23 107 -9 35 12
42 12 52 -1 8 -9 15 -11 22 -4 7 7 6 15 -3 26 -10 12 -10 21 0 45 33 79 -19
169 -101 176 -24 2 -53 0 -64 -5z m65 -65 c0 -28 4 -35 22 -38 12 -2 23 -9 26
-15 5 -17 -22 -27 -53 -19 -22 6 -25 11 -25 56 0 38 4 50 15 50 10 0 15 -10
15 -34z"/>
<path d="M8605 22148 c-69 -113 -77 -128 -66 -128 9 0 131 190 131 204 0 20
-21 -4 -65 -76z"/>
<path d="M1130 22206 c0 -8 4 -17 9 -20 11 -7 33 18 24 27 -12 12 -33 7 -33
-7z"/>
<path d="M7223 22200 c-42 -10 -83 -37 -83 -55 0 -20 5 -19 41 8 42 31 112 30
157 -2 34 -24 49 -23 39 3 -13 33 -98 59 -154 46z"/>
<path d="M7757 22193 c-12 -11 -8 -201 4 -209 20 -12 29 19 29 103 0 100 -9
130 -33 106z"/>
<path d="M2297 22170 c-34 -27 -43 -70 -22 -110 22 -42 49 -50 165 -50 94 0
100 1 115 24 16 23 11 54 -9 68 -6 4 -30 8 -54 8 -36 0 -44 4 -52 24 -20 54
-95 73 -143 36z"/>
<path d="M8800 22096 c0 -52 3 -101 6 -110 5 -13 23 -16 93 -16 54 0 92 5 99
12 8 8 12 47 12 110 l0 98 -105 0 -105 0 0 -94z"/>
<path d="M3317 22152 c-22 -24 -21 -45 1 -65 24 -22 45 -21 65 1 22 24 21 45
-1 65 -24 22 -45 21 -65 -1z"/>
<path d="M7208 22119 c-10 -5 -18 -17 -18 -24 0 -18 16 -20 26 -4 6 10 58 9
93 -2 25 -8 22 17 -4 29 -32 15 -74 15 -97 1z"/>
<path d="M7677 22114 c-10 -11 -8 -107 3 -124 17 -28 31 4 28 65 -3 54 -14 75
-31 59z"/>
<path d="M8632 22098 c-17 -17 -15 -74 4 -93 43 -43 109 15 82 73 -15 30 -64
42 -86 20z m72 -30 c8 -31 -11 -60 -37 -56 -16 2 -23 11 -25 33 -6 50 49 71
62 23z"/>
<path d="M1137 22063 c-4 -3 -7 -12 -7 -20 0 -15 26 -18 34 -4 7 11 -18 33
-27 24z"/>
<path d="M7244 22049 c-10 -17 13 -36 27 -22 12 12 4 33 -11 33 -5 0 -12 -5
-16 -11z"/>
<path d="M7600 22009 c0 -38 24 -35 28 4 2 19 -1 27 -12 27 -11 0 -16 -10 -16
-31z"/>
<path d="M562 21155 c-17 -14 -46 -56 -64 -93 -31 -63 -33 -72 -33 -177 0
-105 2 -114 33 -177 18 -37 47 -79 64 -93 30 -25 32 -26 38 -9 5 13 -2 31 -21
54 -42 54 -59 118 -59 225 0 107 17 171 59 225 19 23 26 41 21 54 -6 17 -8 16
-38 -9z"/>
<path d="M2358 21163 c-2 -10 8 -34 23 -53 42 -54 59 -119 59 -224 0 -108 -17
-174 -58 -225 -20 -24 -27 -42 -22 -55 6 -17 9 -16 43 13 60 54 90 129 95 243
3 74 0 110 -14 154 -19 60 -63 127 -101 151 -19 13 -22 12 -25 -4z"/>
<path d="M1635 21146 c-33 -14 -53 -46 -57 -91 -2 -22 -9 -31 -25 -33 -15 -2
-23 -10 -23 -22 0 -12 8 -20 23 -22 21 -3 22 -7 25 -130 l3 -128 29 0 30 0 0
130 0 130 30 0 c23 0 30 4 30 20 0 15 -7 20 -25 20 -31 0 -42 23 -26 56 10 23
16 25 69 23 55 -3 57 -2 60 23 3 21 -2 26 -29 32 -47 9 -80 7 -114 -8z"/>
<path d="M1900 20935 l0 -215 35 0 35 0 0 215 0 215 -35 0 -35 0 0 -215z"/>
<path d="M758 21014 c-16 -8 -28 -10 -28 -4 0 5 -13 10 -30 10 l-30 0 0 -210
0 -210 30 0 30 0 0 76 0 75 22 -15 c12 -9 42 -16 66 -16 73 0 112 57 112 161
0 115 -85 181 -172 133z m82 -59 c31 -33 34 -117 7 -158 -23 -35 -78 -38 -101
-5 -24 35 -22 142 4 168 27 27 62 25 90 -5z"/>
<path d="M1092 21008 c-19 -19 -22 -20 -22 -5 0 12 -8 17 -30 17 l-30 0 0
-150 0 -150 30 0 30 0 0 103 c0 117 8 135 60 146 28 5 36 12 38 34 3 24 0 27
-25 27 -16 0 -38 -10 -51 -22z"/>
<path d="M1273 21010 c-52 -31 -70 -82 -65 -179 2 -24 13 -44 41 -72 36 -36
43 -39 94 -39 45 0 61 5 87 27 39 33 51 63 51 130 0 92 -54 153 -136 153 -22
0 -54 -9 -72 -20z m117 -50 c25 -25 34 -61 27 -111 -7 -53 -31 -79 -73 -79
-52 0 -77 40 -72 114 4 46 9 63 27 77 30 25 66 24 91 -1z"/>
<path d="M2113 21011 c-51 -32 -69 -81 -64 -179 1 -22 12 -45 35 -70 34 -36
36 -37 105 -37 60 0 74 3 93 22 21 21 21 24 6 39 -15 15 -18 15 -39 0 -24 -16
-65 -21 -94 -10 -14 6 -45 53 -45 69 0 3 45 5 100 5 l100 0 0 35 c0 44 -20 94
-49 119 -31 28 -108 32 -148 7z m109 -48 c9 -10 19 -28 22 -40 7 -22 5 -23
-63 -23 -39 0 -71 2 -71 5 0 14 31 64 42 68 27 11 55 6 70 -10z"/>
<path d="M1750 20870 l0 -150 35 0 35 0 0 150 0 150 -35 0 -35 0 0 -150z"/>
<path d="M3260 19641 c-7 -15 -6 -24 6 -36 31 -31 82 6 55 39 -18 22 -48 20
-61 -3z"/>
<path d="M450 19605 l0 -25 235 0 235 0 0 25 0 25 -235 0 -235 0 0 -25z"/>
<path d="M1883 19530 c-83 -50 -93 -189 -19 -257 31 -29 43 -33 90 -33 44 0
60 5 86 27 39 33 51 63 51 130 0 92 -54 153 -136 153 -22 0 -54 -9 -72 -20z
m117 -50 c25 -25 34 -61 27 -111 -7 -53 -31 -79 -73 -79 -52 0 -77 40 -72 114
4 46 9 63 27 77 30 25 66 24 91 -1z"/>
<path d="M2502 19533 c-95 -47 -97 -229 -3 -278 47 -24 124 -20 158 9 24 21
26 26 14 40 -12 15 -16 15 -37 1 -26 -17 -77 -20 -104 -5 -10 5 -23 23 -28 40
l-11 30 100 0 99 0 0 41 c0 109 -93 169 -188 122z m94 -41 c13 -8 34 -46 34
-61 0 -7 -26 -11 -65 -11 -58 0 -65 2 -65 20 0 42 62 75 96 52z"/>
<path d="M2836 19529 c-21 -17 -26 -18 -26 -5 0 11 -9 16 -30 16 l-30 0 0
-150 0 -150 29 0 29 0 4 111 c4 122 12 139 70 139 24 0 28 4 28 30 0 25 -4 30
-24 30 -13 0 -35 -9 -50 -21z"/>
<path d="M3459 19527 c-89 -59 -89 -217 0 -270 40 -23 117 -22 159 3 35 22 39
32 17 50 -11 9 -19 8 -37 -4 -34 -24 -85 -20 -113 9 -47 47 -36 55 75 55 l100
0 -1 33 c-2 119 -109 185 -200 124z m109 -43 c12 -8 22 -26 22 -40 0 -23 -3
-24 -65 -24 -74 0 -83 13 -40 55 28 29 51 31 83 9z"/>
<path d="M3865 19538 c-2 -7 -16 -55 -31 -106 -15 -51 -29 -90 -32 -88 -2 3
-14 47 -26 98 -21 92 -22 93 -53 96 l-32 3 25 -93 c58 -217 54 -208 83 -208
25 0 28 6 55 98 16 53 32 100 35 104 4 4 21 -38 37 -95 30 -98 32 -102 59
-102 28 0 29 2 67 140 21 77 38 143 38 148 0 4 -13 7 -29 7 -33 0 -32 3 -57
-118 -10 -45 -21 -79 -25 -75 -4 5 -19 47 -33 95 -13 49 -28 92 -31 98 -9 14
-45 12 -50 -2z"/>
<path d="M2130 19533 c0 -4 22 -71 49 -148 47 -135 50 -140 78 -143 30 -3 30
-3 78 135 26 76 50 144 53 151 3 8 -7 12 -30 12 l-34 0 -24 -82 c-42 -148 -38
-146 -74 -28 -31 103 -32 105 -64 108 -17 2 -32 0 -32 -5z"/>
<path d="M2942 19528 c3 -7 26 -75 53 -150 46 -132 49 -138 75 -138 17 0 31 7
35 18 13 31 95 272 95 278 0 3 -15 4 -32 2 -33 -3 -33 -4 -62 -105 -16 -56
-32 -100 -36 -98 -3 2 -19 49 -35 104 l-28 101 -35 0 c-23 0 -33 -4 -30 -12z"/>
<path d="M3260 19390 l0 -150 30 0 30 0 0 150 0 150 -30 0 -30 0 0 -150z"/>
<path d="M450 19475 l0 -25 235 0 235 0 0 25 0 25 -235 0 -235 0 0 -25z"/>
<path d="M450 19345 l0 -25 235 0 235 0 0 25 0 25 -235 0 -235 0 0 -25z"/>
<path d="M4245 18153 c-69 -9 -227 -45 -291 -66 -64 -22 -69 -26 -72 -55 -2
-18 -5 -32 -6 -32 -2 0 -19 7 -38 15 -34 14 -38 13 -104 -19 -38 -19 -94 -50
-124 -70 -48 -31 -52 -36 -30 -37 19 -1 15 -3 -14 -10 -81 -19 -269 -193 -389
-360 -81 -113 -174 -299 -215 -429 -51 -161 -51 -153 13 -267 42 -76 58 -114
62 -155 8 -75 -22 -141 -93 -208 l-55 -52 4 -981 c3 -972 3 -983 25 -1072 36
-147 71 -243 133 -370 205 -418 572 -705 1049 -822 103 -26 115 -26 523 -30
229 -3 417 -2 417 2 0 3 -29 98 -65 210 -36 113 -65 207 -65 209 0 2 38 -9 85
-25 164 -55 245 -56 405 -3 143 47 350 162 483 266 l37 30 0 -285 c0 -241 2
-286 15 -297 10 -8 15 -30 15 -62 l0 -50 328 5 c289 4 337 7 417 26 144 34
242 69 370 132 428 210 725 599 831 1089 18 80 19 154 19 1265 0 1111 -1 1185
-19 1265 -106 490 -403 879 -831 1089 -127 62 -223 97 -370 133 l-90 22 -1165
2 c-641 1 -1178 0 -1195 -3z m1434 -98 c153 -37 281 -140 350 -285 34 -71 36
-80 36 -180 0 -89 -3 -112 -23 -150 -12 -25 -20 -34 -17 -20 42 189 12 288
-132 433 -156 157 -431 208 -703 130 -30 -9 -62 -18 -70 -20 -39 -11 62 39
116 57 148 50 320 64 443 35z m-155 -195 c210 -53 346 -187 346 -339 0 -25
-11 -89 -25 -141 -49 -185 -57 -232 -53 -320 5 -99 27 -156 84 -220 111 -123
274 -172 501 -149 143 14 176 8 300 -52 211 -101 311 -281 270 -483 -21 -100
-68 -191 -183 -351 -142 -197 -164 -246 -226 -500 -15 -60 -4 -163 22 -218 24
-51 67 -101 109 -128 l25 -16 -66 -99 c-95 -145 -201 -269 -379 -446 -221
-219 -355 -323 -550 -427 -104 -55 -182 -84 -292 -107 -59 -12 -85 -13 -142
-3 -131 21 -345 118 -511 230 -238 160 -574 496 -727 727 l-55 83 54 51 c94
89 120 188 74 283 -28 58 -81 103 -205 171 -160 89 -160 90 -184 193 -12 48
-21 98 -21 110 0 65 103 176 232 249 l76 43 41 -22 c23 -12 59 -22 80 -23 l38
-1 -2 -44 c-3 -38 -7 -45 -35 -59 -31 -15 -59 -56 -47 -68 3 -3 18 2 34 13 28
19 78 43 90 43 4 0 -3 -10 -14 -22 -11 -13 -24 -33 -27 -45 -9 -30 12 -40 23
-10 5 13 21 31 35 40 24 16 29 16 56 2 115 -59 344 -76 499 -36 47 12 87 24
90 28 3 3 -5 3 -19 0 -202 -48 -442 -27 -601 54 -54 27 -59 32 -59 63 0 40 60
136 115 185 37 32 151 91 176 91 6 0 -8 -21 -30 -46 -40 -46 -44 -57 -44 -119
0 -51 12 -83 45 -121 111 -126 313 -58 325 109 5 65 -26 131 -77 165 l-35 24
35 -7 c61 -13 153 -60 214 -110 l59 -48 -34 48 c-100 140 -266 207 -437 176
-80 -14 -174 -56 -216 -96 l-28 -28 -44 22 c-27 13 -53 35 -65 56 -27 44 -44
46 -35 3 7 -34 67 -104 98 -114 10 -3 16 -9 13 -14 -8 -13 -87 1 -127 23 l-36
20 13 41 c7 22 21 59 30 81 15 33 17 59 12 148 -3 59 -4 107 -2 107 2 0 10 3
18 6 19 7 67 -60 67 -93 0 -31 14 -29 63 9 23 18 44 34 46 35 2 2 -5 27 -16
57 l-20 55 43 7 c52 7 138 -2 203 -22 25 -8 80 -19 122 -24 93 -12 175 -40
239 -79 127 -78 212 -64 226 40 9 68 -9 82 -151 123 -228 65 -352 88 -491 94
-108 4 -142 1 -188 -13 -31 -10 -58 -16 -60 -14 -2 2 -27 47 -55 100 -117 220
-100 384 57 551 80 85 122 110 232 138 93 25 132 47 65 36 -35 -5 -37 -4 -15
5 14 6 36 16 50 23 14 6 90 50 170 97 317 189 447 237 641 238 65 1 121 -5
173 -19z m542 -566 c-59 -201 -26 -377 90 -483 l53 -49 -42 10 c-68 15 -124
47 -166 94 -48 54 -71 118 -71 194 0 52 5 65 56 146 31 49 64 101 73 116 22
37 23 30 7 -28z m-2001 -3 c-101 -140 -125 -295 -70 -451 22 -61 19 -61 -19
-2 -57 89 -57 189 1 349 19 55 36 83 69 113 24 22 46 40 49 40 3 0 -11 -22
-30 -49z m15 -713 c0 -18 -16 -6 -33 25 l-19 32 26 -24 c14 -14 26 -28 26 -33z
m480 -487 c20 -38 -13 -71 -51 -51 -21 12 -25 40 -7 58 18 18 46 14 58 -7z
m-392 -51 c6 0 12 -6 12 -14 0 -19 -120 -33 -146 -17 -11 6 -13 11 -6 11 6 0
12 12 12 28 0 16 3 31 6 34 3 4 29 -5 57 -18 29 -13 58 -24 65 -24z m497 -90
c0 -22 -29 -18 -33 3 -3 14 1 18 15 15 10 -2 18 -10 18 -18z m-988 -312 c-3
-8 -6 -5 -6 6 -1 11 2 17 5 13 3 -3 4 -12 1 -19z m337 -428 c38 -64 15 -158
-51 -210 -41 -32 -49 -10 -19 54 32 67 34 133 6 195 l-20 44 32 -25 c18 -14
42 -40 52 -58z"/>
<path d="M6145 16644 c-100 -17 -329 -75 -415 -106 -65 -23 -65 -23 -68 -65
-4 -53 20 -101 55 -109 20 -5 95 16 283 79 281 96 361 110 461 87 78 -18 165
-67 235 -132 34 -32 64 -58 67 -58 11 0 -36 75 -91 144 -61 76 -147 138 -226
161 -61 18 -192 18 -301 -1z"/>
<path d="M6020 16260 c-160 -22 -273 -112 -325 -260 -8 -24 -14 -42 -11 -39 2
2 24 32 49 65 55 74 118 120 201 145 33 10 63 19 65 19 1 0 -11 -17 -28 -37
-18 -21 -35 -43 -39 -48 -18 -22 -14 -123 6 -162 65 -126 232 -140 319 -26 25
32 28 45 28 108 0 63 -3 76 -29 109 -28 38 -28 38 -5 31 48 -15 80 -36 145
-98 71 -65 119 -131 109 -148 -11 -17 -82 -48 -172 -75 -140 -41 -291 -43
-498 -9 -60 10 11 -13 92 -31 104 -22 279 -22 361 -1 35 10 67 17 72 17 4 0
17 -20 29 -45 12 -25 26 -43 31 -40 15 9 12 48 -5 71 -20 27 -19 31 13 42 33
11 66 -7 88 -49 19 -37 34 -37 34 0 0 20 -9 37 -31 56 -17 14 -30 27 -28 29 2
2 14 9 27 15 13 7 22 21 22 34 0 18 6 23 33 25 48 4 98 34 119 73 16 30 17 34
2 37 -9 2 -26 -5 -37 -16 -28 -25 -73 -48 -114 -57 -50 -10 -60 5 -16 25 44
20 93 72 93 101 0 27 -5 24 -45 -20 -40 -44 -92 -59 -112 -32 -17 22 -16 31 3
31 9 0 31 15 50 34 57 57 38 79 -23 26 -18 -16 -43 -30 -55 -30 -12 0 -44 17
-72 39 -28 21 -64 45 -81 54 -67 33 -177 49 -265 37z m58 -162 c18 -18 14 -46
-7 -58 -38 -20 -71 13 -51 51 12 21 40 25 58 7z m112 -142 c0 -8 -5 -18 -11
-22 -14 -8 -33 11 -25 25 10 16 36 13 36 -3z"/>
<path d="M5191 15955 c-1 -93 -24 -303 -42 -384 -9 -44 -30 -79 -119 -200 -53
-72 -55 -118 -6 -167 38 -38 77 -44 131 -20 29 13 32 12 87 -40 41 -40 64 -54
85 -54 41 0 116 50 150 102 49 71 49 75 2 35 -61 -52 -130 -97 -149 -97 -9 0
-54 31 -100 69 -83 67 -116 85 -72 38 12 -13 22 -26 22 -30 0 -14 -78 -27
-103 -18 -49 19 -71 77 -45 124 6 12 36 51 66 87 31 36 63 83 73 105 26 59 39
178 38 343 -1 165 -16 255 -18 107z"/>
<path d="M5002 15910 c0 -19 2 -27 5 -17 2 9 2 25 0 35 -3 9 -5 1 -5 -18z"/>
<path d="M5671 15929 c-1 -9 7 -23 17 -30 15 -12 16 -12 6 1 -6 8 -14 22 -17
30 -5 13 -6 12 -6 -1z"/>
<path d="M5680 15328 c28 -62 26 -92 -11 -122 -35 -30 -81 -34 -134 -12 -50
21 -43 9 8 -14 69 -32 121 -24 159 24 25 30 22 72 -7 123 -33 55 -40 55 -15 1z"/>
<path d="M5075 14838 c-22 -5 -85 -21 -139 -34 -54 -13 -107 -24 -117 -24 -16
0 -16 -2 4 -23 12 -13 51 -58 86 -100 104 -125 189 -179 328 -211 94 -21 143
-20 238 4 113 29 189 74 331 197 34 29 68 53 77 53 9 0 18 4 21 8 3 5 -7 7
-22 5 -17 -3 -61 12 -122 40 -190 88 -246 94 -367 42 l-61 -27 -68 41 c-72 44
-107 49 -189 29z"/>
<path d="M2135 12913 c-39 -20 -83 -62 -100 -93 -8 -16 -31 -31 -63 -42 -139
-49 -174 -213 -66 -308 34 -30 36 -30 144 -30 61 0 110 4 110 9 0 15 -28 21
-96 21 -102 0 -162 43 -171 124 -9 74 37 128 129 151 16 4 37 23 54 51 30 47
106 94 152 94 84 0 171 -64 192 -140 7 -25 14 -50 15 -56 2 -6 23 -16 48 -22
102 -26 130 -136 47 -185 -20 -12 -51 -17 -108 -17 -83 0 -112 -6 -112 -21 0
-5 56 -9 124 -9 l124 0 30 35 c37 41 48 91 32 139 -13 41 -70 92 -111 101 -22
5 -31 16 -43 50 -35 106 -121 165 -235 165 -40 -1 -78 -7 -96 -17z"/>
<path d="M2167 12681 c-57 -58 -60 -63 -44 -78 16 -16 19 -15 52 17 l35 34 0
-107 0 -107 25 0 25 0 0 107 0 107 35 -34 c32 -31 36 -33 51 -18 15 15 13 20
-32 68 -76 81 -76 81 -147 11z"/>
<path d="M528 12201 c11 -6 11 -20 3 -66 -17 -89 -15 -878 2 -870 6 4 1 -3
-13 -14 l-25 -21 42 0 43 0 2 490 3 490 -35 0 c-23 0 -30 -3 -22 -9z"/>
<path d="M10218 11720 l2 -490 43 0 42 0 -25 21 c-14 11 -19 18 -12 14 16 -8
18 781 1 870 -8 46 -8 60 3 66 8 6 1 9 -22 9 l-35 0 3 -490z"/>
<path d="M2551 11446 c-12 -13 -24 -40 -28 -60 -4 -26 -11 -36 -24 -36 -11 0
-19 -7 -19 -15 0 -8 9 -15 20 -15 19 0 20 -7 20 -120 l0 -120 25 0 25 0 0 120
0 120 25 0 c16 0 25 6 25 15 0 9 -9 15 -25 15 -21 0 -25 5 -25 28 0 40 17 52
72 52 34 0 48 4 48 14 0 18 -22 26 -74 26 -32 0 -48 -6 -65 -24z"/>
<path d="M2800 11275 l0 -195 25 0 25 0 0 195 0 195 -25 0 -25 0 0 -195z"/>
<path d="M880 11265 l0 -185 25 0 24 0 3 141 3 141 56 -138 c42 -103 62 -140
75 -142 16 -2 30 24 78 143 32 80 60 145 62 145 2 0 1 -65 -3 -145 l-6 -145
26 0 27 0 0 186 0 185 -31 -3 c-30 -3 -33 -8 -88 -145 -31 -78 -59 -144 -62
-147 -3 -3 -32 61 -65 144 l-59 150 -32 0 -33 0 0 -185z"/>
<path d="M1710 11265 l0 -185 25 0 c23 0 24 3 27 73 l3 72 77 5 c63 4 81 9
102 29 33 31 42 78 23 123 -21 50 -65 68 -171 68 l-86 0 0 -185z m197 123 c30
-28 31 -78 2 -104 -16 -14 -36 -19 -82 -19 l-62 0 -3 73 -3 72 62 0 c51 0 67
-4 86 -22z"/>
<path d="M2102 11344 c-12 -8 -22 -10 -22 -5 0 6 -9 11 -20 11 -19 0 -20 -7
-20 -135 0 -128 1 -135 20 -135 19 0 20 7 20 99 0 110 8 127 61 138 20 4 29
12 29 24 0 24 -36 25 -68 3z"/>
<path d="M2262 11343 c-42 -20 -63 -61 -63 -121 -1 -60 13 -94 47 -121 33 -26
104 -28 141 -4 55 36 71 143 30 204 -39 58 -93 73 -155 42z m106 -46 c57 -61
23 -187 -51 -187 -10 0 -32 13 -48 29 -33 34 -39 92 -14 141 24 46 78 54 113
17z"/>
<path d="M2984 11345 c-36 -18 -61 -58 -64 -100 -5 -77 0 -97 34 -131 30 -30
41 -34 84 -34 59 0 111 32 91 56 -9 11 -15 11 -36 -6 -36 -28 -70 -25 -105 10
-51 51 -37 65 71 68 79 2 92 5 87 18 -3 9 -6 26 -6 40 0 13 -12 37 -27 54 -34
37 -85 47 -129 25z m100 -47 c33 -47 23 -58 -55 -58 -68 0 -70 1 -63 23 17 58
87 79 118 35z"/>
<path d="M1303 11338 c75 -200 89 -250 81 -281 -7 -24 -17 -34 -42 -42 -40
-11 -45 -45 -8 -45 50 0 74 37 131 203 30 87 55 163 55 168 0 6 -9 9 -21 7
-17 -2 -27 -22 -52 -102 l-32 -98 -33 101 c-31 93 -35 101 -59 101 -16 0 -23
-5 -20 -12z"/>
<path d="M2670 11215 l0 -135 25 0 25 0 0 135 0 135 -25 0 -25 0 0 -135z"/>
<path d="M1720 8635 c0 -188 1 -195 20 -195 17 0 20 7 20 49 0 32 5 53 16 62
18 14 18 14 89 -75 22 -28 36 -37 52 -35 21 4 19 9 -32 76 -30 40 -55 76 -55
81 0 6 21 33 46 61 42 47 44 51 23 51 -15 0 -44 -21 -81 -57 l-58 -57 0 117
c0 110 -1 117 -20 117 -19 0 -20 -7 -20 -195z"/>
<path d="M1040 8667 c0 -156 -7 -179 -56 -191 -31 -8 -69 13 -79 44 -9 28 -45
27 -45 -2 1 -48 45 -78 113 -78 55 0 93 27 107 78 5 20 10 94 10 165 l0 127
-25 0 -25 0 0 -143z"/>
<path d="M1982 8788 c2 -15 10 -23 23 -23 30 0 27 39 -3 43 -20 3 -23 0 -20
-20z"/>
<path d="M2520 8625 l0 -185 25 0 24 0 3 141 3 141 56 -138 c42 -103 62 -140
75 -142 16 -2 30 24 78 143 32 80 60 145 62 145 2 0 1 -65 -3 -145 l-6 -145
26 0 27 0 0 186 0 185 -31 -3 c-30 -3 -33 -8 -88 -145 -31 -78 -59 -144 -62
-147 -3 -3 -32 61 -65 144 l-59 150 -32 0 -33 0 0 -185z"/>
<path d="M3532 8788 c2 -15 10 -23 23 -23 30 0 27 39 -3 43 -20 3 -23 0 -20
-20z"/>
<path d="M3662 8788 c2 -15 10 -23 23 -23 30 0 27 39 -3 43 -20 3 -23 0 -20
-20z"/>
<path d="M1230 8713 c-23 -9 -60 -45 -60 -60 0 -20 34 -15 48 7 25 41 112 18
112 -30 0 -14 -11 -20 -52 -25 -61 -8 -103 -27 -112 -50 -22 -58 18 -115 81
-115 21 0 48 7 60 15 19 13 22 13 27 0 3 -8 14 -15 24 -15 18 0 19 7 15 103
-2 56 -6 112 -9 125 -7 37 -86 63 -134 45z m100 -170 c0 -39 -27 -63 -71 -63
-49 0 -69 29 -44 66 13 20 24 24 65 24 48 0 50 -1 50 -27z"/>
<path d="M1498 8704 c-46 -24 -62 -70 -59 -162 1 -24 11 -44 35 -68 29 -29 41
-34 79 -34 51 0 107 37 107 71 0 28 -35 24 -48 -6 -22 -49 -102 -42 -122 11
-17 44 -12 109 11 138 30 39 84 37 107 -4 18 -32 52 -41 52 -14 0 65 -95 105
-162 68z"/>
<path d="M2164 8705 c-36 -18 -61 -58 -64 -100 -5 -77 0 -97 34 -131 30 -30
41 -34 84 -34 59 0 111 32 91 56 -9 11 -15 11 -36 -6 -36 -28 -70 -25 -105 10
-51 51 -37 65 71 68 79 2 92 5 87 18 -3 9 -6 26 -6 40 0 13 -12 37 -27 54 -34
37 -85 47 -129 25z m100 -47 c33 -47 23 -58 -55 -58 -68 0 -70 1 -63 23 17 58
87 79 118 35z"/>
<path d="M3303 8705 c-35 -15 -49 -48 -39 -89 4 -18 19 -29 53 -41 84 -30 93
-35 100 -51 4 -11 -2 -24 -17 -36 -29 -24 -77 -18 -102 12 -17 20 -48 27 -48
11 0 -42 48 -71 115 -71 56 0 95 32 95 78 0 38 -18 52 -94 77 -63 21 -80 42
-56 70 19 23 77 19 92 -5 11 -18 58 -29 58 -14 0 17 -24 46 -50 59 -36 18 -65
19 -107 0z"/>
<path d="M3858 8704 c-16 -8 -28 -10 -28 -4 0 5 -9 10 -20 10 -19 0 -20 -7
-20 -135 0 -128 1 -135 20 -135 19 0 20 7 20 98 0 119 12 145 68 140 50 -4 62
-31 62 -145 0 -86 1 -93 20 -93 19 0 20 7 20 100 0 112 14 140 68 140 46 0 52
-15 52 -132 l0 -108 25 0 25 0 0 105 c0 114 -9 147 -47 164 -35 16 -64 14
-102 -10 -19 -11 -37 -16 -40 -11 -21 32 -80 40 -123 16z"/>
<path d="M4304 8705 c-36 -18 -61 -58 -64 -100 -5 -77 0 -97 34 -131 30 -30
41 -34 84 -34 59 0 111 32 91 56 -9 11 -15 11 -36 -6 -36 -28 -70 -25 -105 10
-51 51 -37 65 71 68 79 2 92 5 87 18 -3 9 -6 26 -6 40 0 13 -12 37 -27 54 -34
37 -85 47 -129 25z m100 -47 c33 -47 23 -58 -55 -58 -68 0 -70 1 -63 23 17 58
87 79 118 35z"/>
<path d="M1980 8575 l0 -135 25 0 25 0 0 135 0 135 -25 0 -25 0 0 -135z"/>
<path d="M2970 8601 c0 -94 3 -112 21 -135 16 -20 29 -26 60 -26 22 0 50 5 62
11 16 9 22 9 25 0 2 -6 12 -11 23 -11 18 0 19 9 19 135 0 126 -1 135 -19 135
-17 0 -19 -10 -23 -100 -4 -107 -11 -123 -60 -135 -19 -5 -32 -1 -47 14 -19
19 -21 33 -21 121 0 93 -1 100 -20 100 -19 0 -20 -7 -20 -109z"/>
<path d="M3530 8575 l0 -135 25 0 25 0 0 135 0 135 -25 0 -25 0 0 -135z"/>
<path d="M3660 8575 l0 -135 25 0 25 0 0 135 0 135 -25 0 -25 0 0 -135z"/>
<path d="M943 5923 c-47 -18 -63 -30 -63 -44 0 -23 -1 -23 43 -4 20 8 41 15
47 15 6 0 10 -55 10 -155 0 -148 1 -155 20 -155 19 0 20 7 20 185 0 102 -3
185 -7 184 -5 0 -36 -12 -70 -26z"/>
<path d="M1189 5921 c-17 -17 -29 -40 -29 -55 0 -38 31 -33 50 7 21 45 61 57
98 30 55 -41 44 -76 -63 -196 -47 -53 -85 -103 -85 -112 0 -13 18 -15 120 -15
113 0 120 1 120 20 0 19 -7 20 -92 20 l-92 0 46 48 c83 85 118 140 118 182 0
21 -3 46 -6 55 -10 25 -58 45 -109 45 -38 0 -52 -5 -76 -29z"/>
<path d="M1479 5921 c-34 -35 -39 -71 -9 -71 11 0 20 5 20 10 0 19 48 60 70
60 12 0 32 -11 46 -26 45 -44 14 -104 -53 -104 -26 0 -33 -4 -33 -20 0 -16 7
-20 33 -20 47 0 77 -24 77 -64 0 -42 -17 -64 -55 -72 -33 -6 -85 25 -85 52 0
8 -9 14 -20 14 -32 0 -26 -44 11 -74 23 -19 42 -26 74 -26 60 0 91 16 110 57
20 42 12 86 -21 112 l-25 19 26 26 c36 36 34 88 -4 127 -25 25 -37 29 -81 29
-44 0 -56 -4 -81 -29z"/>
<path d="M1828 5853 c-80 -123 -108 -169 -108 -177 0 -3 38 -6 85 -6 l85 0 0
-45 c0 -41 2 -45 25 -45 23 0 25 4 25 45 0 41 2 45 25 45 16 0 25 6 25 15 0 9
-9 15 -25 15 l-25 0 0 125 0 125 -24 0 c-20 0 -37 -18 -88 -97z m62 -63 l0
-90 -55 0 c-30 0 -55 3 -55 6 0 7 103 173 108 174 1 0 2 -40 2 -90z"/>
<path d="M2069 5928 c0 -13 -3 -54 -8 -91 -4 -40 -3 -71 2 -74 5 -3 26 0 47 7
55 18 88 7 106 -37 13 -31 14 -41 2 -71 -23 -62 -105 -67 -128 -7 -9 24 -50
37 -50 15 0 -47 54 -90 114 -90 79 0 123 54 113 139 -4 35 -12 52 -38 74 -29
27 -37 29 -82 24 l-50 -6 7 37 c3 20 6 43 6 50 0 8 22 12 75 12 68 0 75 2 75
20 0 19 -7 20 -95 20 -92 0 -95 -1 -96 -22z"/>
<path d="M2436 5940 c-69 -21 -105 -90 -106 -198 0 -113 35 -162 117 -162 76
0 122 70 102 158 -16 71 -99 107 -157 66 -26 -18 -29 -6 -7 36 19 37 62 70 91
70 17 0 24 6 24 20 0 22 -16 24 -64 10z m58 -182 c25 -35 20 -94 -9 -123 -32
-32 -50 -31 -86 4 -56 57 -29 141 45 141 25 0 39 -7 50 -22z"/>
<path d="M353 3480 c-14 -6 -24 -21 -28 -42 -3 -18 -5 -254 -3 -525 2 -387 6
-495 16 -505 19 -19 10115 -19 10134 0 19 19 19 1045 0 1064 -11 11 -933 13
-5055 15 -2909 1 -5051 -2 -5064 -7z m5117 -541 l0 -181 -32 3 c-18 1 -49 -1
-69 -5 -74 -15 -125 40 -123 134 1 58 25 104 63 120 30 12 45 11 84 -5 15 -6
17 0 17 54 l0 61 30 0 30 0 0 -181z m-720 38 c0 -143 9 -167 65 -167 56 0 65
24 65 167 l0 123 30 0 30 0 0 -138 c0 -154 -6 -173 -66 -198 -75 -32 -158 -1
-181 66 -7 19 -12 88 -12 153 l-1 117 35 0 35 0 0 -123z m1090 63 c0 -25 4
-30 25 -30 20 0 25 -5 25 -25 0 -20 -5 -25 -25 -25 -26 0 -26 -1 -23 -72 3
-68 5 -73 26 -76 19 -3 23 -9 20 -30 -2 -21 -9 -28 -31 -30 -16 -2 -39 4 -53
13 -22 14 -24 21 -24 105 0 83 -1 90 -20 90 -15 0 -20 7 -20 25 0 18 5 25 20
25 16 0 20 7 20 30 0 27 3 30 30 30 27 0 30 -3 30 -30z m-686 -30 c64 -24 88
-144 43 -211 -28 -42 -67 -57 -107 -42 l-30 11 0 -54 0 -54 -35 0 -35 0 0 176
0 177 39 -6 c21 -2 45 -1 52 4 18 11 42 11 73 -1z m540 -19 c18 -18 22 -37 26
-127 l5 -105 -40 1 c-22 1 -58 -2 -80 -5 -57 -10 -95 21 -95 75 0 48 30 75 95
84 46 7 57 23 30 46 -17 14 -51 5 -59 -15 -6 -17 -66 -21 -66 -4 0 67 131 103
184 50z m414 -5 c18 -17 26 -39 30 -75 l5 -51 -83 0 c-88 0 -96 -7 -48 -43 25
-18 27 -18 62 -2 29 14 39 15 51 5 32 -26 -27 -70 -95 -70 -39 0 -93 40 -107
80 -14 40 -8 105 14 138 34 54 126 64 171 18z"/>
<path d="M5320 2941 c-5 -11 -10 -36 -10 -56 0 -51 15 -75 48 -75 40 0 52 17
52 75 0 28 -5 56 -12 63 -19 19 -66 15 -78 -7z"/>
<path d="M5072 2951 c-9 -5 -12 -27 -10 -71 3 -54 6 -64 25 -71 37 -14 66 19
66 74 0 25 -5 53 -13 61 -14 17 -47 21 -68 7z"/>
<path d="M5582 2858 c-29 -29 4 -63 46 -47 15 6 22 17 22 34 0 21 -5 25 -28
25 -15 0 -33 -5 -40 -12z"/>
<path d="M5992 2940 c-18 -29 -17 -30 38 -30 54 0 55 1 40 31 -14 26 -61 25
-78 -1z"/>
<path d="M357 2173 c-10 -3 -22 -16 -28 -29 -5 -15 -9 -210 -9 -455 l0 -429
5085 0 5086 0 -3 445 c-2 348 -6 447 -16 457 -11 11 -934 13 -5055 14 -2773 1
-5050 0 -5060 -3z m4523 -394 c9 -15 8 -24 -1 -35 -28 -33 -80 -3 -59 35 6 12
19 21 30 21 11 0 24 -9 30 -21z m-151 -3 c27 -14 51 -53 51 -81 0 -10 -10 -15
-30 -15 -23 0 -33 6 -40 24 -16 43 -92 47 -105 5 -9 -28 8 -45 66 -64 75 -25
109 -58 109 -106 0 -70 -68 -111 -155 -95 -43 8 -92 51 -101 89 -6 25 -4 27
29 27 29 0 36 -4 41 -25 7 -27 36 -39 82 -33 23 2 30 9 32 29 4 30 -7 40 -70
63 -61 22 -94 49 -102 82 -9 36 11 81 43 99 34 18 115 19 150 1z m1068 -6 c46
-28 65 -71 65 -151 1 -118 -56 -185 -151 -176 -84 9 -131 70 -131 171 0 71 29
139 68 161 39 21 111 19 149 -5z m443 -40 c0 -25 4 -30 25 -30 20 0 25 -5 25
-25 0 -20 -5 -25 -25 -25 -26 0 -26 -1 -23 -72 3 -68 5 -73 26 -76 19 -3 23
-9 20 -30 -2 -21 -9 -28 -31 -30 -16 -2 -39 4 -53 13 -22 14 -24 21 -24 105 0
83 -1 90 -20 90 -15 0 -20 7 -20 25 0 18 5 25 20 25 16 0 20 7 20 30 0 27 3
30 30 30 27 0 30 -3 30 -30z m-1127 -30 l37 1 0 -145 c0 -137 -1 -146 -23
-172 -30 -34 -108 -45 -155 -20 -36 18 -38 24 -18 51 12 17 14 17 37 2 33 -23
65 -21 83 5 21 30 20 41 -3 28 -46 -24 -111 1 -131 51 -7 17 -13 50 -13 74 0
89 45 141 113 129 19 -3 52 -5 73 -4z m260 1 c34 -13 47 -58 47 -162 l0 -89
-35 0 -34 0 -3 98 c-3 93 -4 97 -26 100 -43 6 -52 -13 -52 -109 l0 -89 -35 0
-35 0 0 126 0 127 43 -6 c23 -3 49 -2 57 3 19 12 42 12 73 1z m-493 -126 l0
-125 -30 0 -30 0 0 125 0 125 30 0 30 0 0 -125z m1092 28 l3 -98 35 0 35 0 3
98 3 97 34 0 35 0 0 -125 0 -126 -42 1 c-24 1 -55 -2 -71 -5 -40 -11 -84 11
-96 47 -6 17 -11 71 -11 119 l0 89 35 0 34 0 3 -97z"/>
<path d="M5693 1730 c-32 -13 -43 -41 -43 -113 0 -50 5 -70 21 -91 25 -32 70
-35 98 -7 43 43 39 165 -6 201 -28 22 -37 23 -70 10z"/>
<path d="M5007 1632 c-19 -21 -22 -83 -7 -113 12 -22 59 -26 78 -7 16 16 16
110 0 126 -18 18 -53 15 -71 -6z"/>
</g>
</svg>
