<?xml version="1.0" standalone="no"?>
<!DOCTYPE svg PUBLIC "-//W3C//DTD SVG 20010904//EN"
 "http://www.w3.org/TR/2001/REC-SVG-20010904/DTD/svg10.dtd">
<svg version="1.0" xmlns="http://www.w3.org/2000/svg"
 width="456.000000pt" height="392.000000pt" viewBox="0 0 456.000000 392.000000"
 preserveAspectRatio="xMidYMid meet">

<g transform="translate(0.000000,392.000000) scale(0.100000,-0.100000)"
fill="#000000" stroke="none">
<path d="M1463 3717 c10 -7 44 -28 75 -48 l57 -36 265 -462 265 -461 35 1 c19
1 45 4 57 7 21 7 7 34 -228 442 -137 239 -268 465 -290 503 l-40 67 -107 -1
c-86 0 -104 -2 -89 -12z"/>
<path d="M910 1418 c-114 -59 -118 -229 -6 -282 74 -35 158 -13 210 57 29 39
29 135 0 173 -53 72 -128 91 -204 52z m104 -38 c88 -33 81 -189 -9 -206 -76
-14 -132 41 -122 118 10 73 68 112 131 88z"/>
<path d="M2126 1430 c-62 -19 -96 -73 -96 -155 0 -99 51 -155 142 -155 67 0
98 16 98 52 0 28 0 28 -30 13 -46 -24 -87 -19 -121 14 -24 25 -29 37 -29 81 0
70 30 101 100 102 3 1 20 -2 38 -5 30 -6 32 -5 32 22 0 21 -6 30 -22 35 -31 8
-77 6 -112 -4z"/>
<path d="M412 1418 c3 -7 27 -77 53 -156 45 -133 50 -143 72 -140 22 3 30 19
73 153 28 83 50 151 50 153 0 1 -13 2 -29 2 -27 0 -29 -3 -56 -97 -16 -54 -31
-101 -35 -106 -3 -4 -21 40 -40 98 -33 102 -35 105 -63 105 -19 0 -28 -4 -25
-12z"/>
<path d="M1300 1407 c0 -20 4 -23 35 -19 l35 4 0 -136 0 -136 30 0 29 0 3 133
3 132 38 0 c32 0 37 3 37 23 0 21 -3 22 -105 22 -103 0 -105 0 -105 -23z"/>
<path d="M1690 1275 l0 -155 85 0 c84 0 85 0 85 25 0 22 -4 24 -57 27 l-58 3
0 45 0 45 43 3 c36 3 42 6 42 26 0 20 -5 23 -42 22 -41 -1 -43 0 -46 32 l-3
32 54 0 c50 0 55 2 59 25 l5 25 -83 0 -84 0 0 -155z"/>
<path d="M2460 1275 l0 -155 25 0 c23 0 24 3 27 68 l3 67 58 3 57 3 0 -71 0
-70 30 0 30 0 0 155 0 155 -30 0 -30 0 0 -60 0 -60 -60 0 -60 0 0 60 c0 57 -1
60 -25 60 l-25 0 0 -155z"/>
<path d="M2961 1408 c-23 -61 -101 -281 -101 -284 0 -2 13 -4 29 -4 25 0 31 6
41 35 11 35 12 35 70 35 l58 0 6 -35 c6 -32 10 -35 41 -35 l34 0 -40 113 c-23
61 -48 131 -56 155 -13 36 -19 42 -44 42 -21 0 -32 -6 -38 -22z m58 -107 c18
-54 15 -61 -24 -61 -40 0 -40 1 -19 64 18 51 25 50 43 -3z"/>
<path d="M3310 1275 l0 -155 30 0 30 0 0 155 0 155 -30 0 -30 0 0 -155z"/>
<path d="M3590 1275 l0 -155 30 0 30 0 0 98 1 97 62 -97 c48 -76 67 -98 85
-98 22 0 22 1 22 155 l0 155 -25 0 c-25 0 -25 0 -25 -95 0 -52 -3 -95 -7 -95
-5 1 -34 43 -67 95 -47 77 -63 95 -82 95 l-24 0 0 -155z"/>
</g>
</svg>
