<svg version="1.1" id="Layer_1" xmlns="http://www.w3.org/2000/svg" xmlns:xlink="http://www.w3.org/1999/xlink" x="0px" y="0px"
	 width="100%" viewBox="0 0 456 392" enable-background="new 0 0 456 392" xml:space="preserve">
<path fill="#FFFFFF" opacity="1.000000" stroke="none" 
	d="
M1.000000,147.000000 
	C1.000000,98.014290 1.000000,49.528580 1.000000,1.021434 
	C152.940918,1.021434 304.881866,1.021434 456.911377,1.021434 
	C456.911377,131.569031 456.911377,262.138153 456.911377,392.853638 
	C305.000092,392.853638 153.000076,392.853638 1.000000,392.853638 
	C1.000000,311.118134 1.000000,229.309067 1.000000,147.000000 
M210.478409,314.516602 
	C211.188568,313.064606 211.898727,311.612610 212.728149,309.916809 
	C211.566711,309.148895 210.464050,308.419830 209.174515,307.567230 
	C208.740219,310.401703 208.387360,312.704681 207.664566,315.630127 
	C207.487350,316.999847 207.310150,318.369537 207.132935,319.739258 
	C207.621964,319.805908 208.111008,319.872559 208.600037,319.939240 
	C209.075699,318.295807 209.551361,316.652374 210.478409,314.516602 
M179.212891,317.379669 
	C179.436615,318.019287 179.660339,318.658875 180.044632,319.821808 
	C180.755417,319.817444 182.070969,319.909882 182.089417,319.794708 
	C182.704056,315.954712 183.194809,312.094940 183.703705,308.238037 
	C183.173141,308.127197 182.642563,308.016327 182.111984,307.905487 
	C181.346832,311.110016 180.581680,314.314545 179.212891,317.379669 
M175.001328,309.994995 
	C175.001328,309.994995 175.248230,310.235626 175.176193,310.992065 
	C174.543915,313.040802 173.630859,315.057861 173.394882,317.151276 
	C173.272308,318.238586 174.346405,319.460785 175.055969,321.005280 
	C176.180786,316.839661 177.073914,313.970551 177.678558,311.041870 
	C177.875351,310.088593 177.318970,308.979828 177.107071,307.942169 
	C176.078384,308.628693 175.049698,309.315186 173.686371,310.228394 
	C173.622803,310.475983 173.559235,310.723602 173.495667,310.971191 
	C173.652573,310.630951 173.809494,310.290680 174.333237,309.738190 
	C174.333237,309.738190 174.756836,309.751892 175.001328,309.994995 
M243.634354,320.735718 
	C244.742981,319.149963 245.851608,317.564178 247.190735,315.858521 
	C247.190735,315.858521 247.264160,315.618134 247.264160,315.618134 
	C247.264160,315.618134 247.007065,316.027588 246.186279,316.026123 
	C245.168732,313.220367 244.151184,310.414581 243.133636,307.608826 
	C242.738297,307.779205 242.342972,307.949615 241.947647,308.120026 
	C242.301086,312.410645 242.654541,316.701233 242.916367,321.293854 
	C242.825089,321.404388 242.733810,321.514923 242.642532,321.625458 
	C242.684204,321.647064 242.725876,321.668701 242.767548,321.690338 
	C242.836441,321.445892 242.905334,321.201416 243.634354,320.735718 
M215.999374,318.006104 
	C215.999374,318.006104 215.762283,317.775848 215.826935,317.017578 
	C216.461044,314.967987 217.374329,312.950287 217.613571,310.855591 
	C217.736420,309.780060 216.656219,308.567108 215.940796,307.032501 
	C214.811066,311.218384 213.918015,314.081329 213.318512,317.004486 
	C213.123810,317.953888 213.696915,319.060760 213.918808,320.095612 
	C214.938766,319.396484 215.958710,318.697357 217.306091,317.771942 
	C217.370331,317.529633 217.434555,317.287354 217.498779,317.045044 
	C217.343460,317.379791 217.188141,317.714539 216.660995,318.261169 
	C216.660995,318.261169 216.233597,318.239319 215.999374,318.006104 
M280.474640,312.737671 
	C280.123810,315.099731 279.772980,317.461792 279.274628,320.816925 
	C284.028076,317.434906 281.033600,309.618530 288.486633,309.533478 
	C285.853333,308.700897 283.326324,308.417725 280.791809,308.309052 
	C280.563263,308.299255 280.286407,309.415466 279.641113,310.302307 
	C279.767151,310.866943 279.893158,311.431610 280.474640,312.737671 
M275.380432,317.715973 
	C275.247437,317.145264 275.114441,316.574524 274.554230,315.249084 
	C274.943115,312.906433 275.331970,310.563782 275.848114,307.454315 
	C270.925049,310.313812 273.065857,317.388947 267.201782,319.367310 
	C269.815918,308.149384 269.815918,308.149384 267.045258,308.295258 
	C266.642395,310.452759 266.077271,312.463501 265.941528,314.502808 
	C265.815521,316.395813 266.147797,318.319275 266.278290,320.229340 
	C268.792755,317.999329 273.169678,322.996979 275.380432,317.715973 
M214.049255,61.469353 
	C214.293640,61.319515 214.538040,61.169678 215.147141,60.415691 
	C219.158096,53.367085 223.169067,46.318478 228.088531,39.194656 
	C235.046051,39.154739 242.003555,39.114822 248.979492,39.788818 
	C247.322723,42.831402 245.738159,45.915974 243.997269,48.909645 
	C234.017090,66.071877 223.999786,83.212540 213.441879,99.898247 
	C198.788574,74.477257 184.175674,49.032688 169.389938,23.688967 
	C168.417206,22.021643 166.186401,20.156652 164.434235,20.044233 
	C158.319504,19.651911 152.157959,19.989372 145.478058,20.054510 
	C145.600952,20.449692 145.723846,20.844872 145.960205,21.624712 
	C145.960205,21.624712 146.205414,21.942059 146.264481,22.635229 
	C148.230988,26.107172 150.173630,29.592894 152.167694,33.048935 
	C172.523727,68.329117 192.888107,103.604469 213.502319,139.444611 
	C213.942032,139.445816 214.675430,139.610458 214.778885,139.424545 
	C218.191376,133.292038 221.543518,127.125916 224.932251,120.256561 
	C221.386322,113.809853 217.840408,107.363144 215.120193,101.025314 
	C215.394318,100.987274 215.668457,100.949226 216.872253,101.092102 
	C222.188705,101.108391 227.512741,100.960670 232.818588,101.206200 
	C235.722412,101.340569 237.276321,100.232101 238.670776,97.776245 
	C247.275665,82.621758 256.069733,67.574844 264.718719,52.445168 
	C270.640991,42.085312 276.429932,31.649229 282.245331,21.233528 
	C282.245331,21.233528 282.244934,21.203918 282.706268,20.956903 
	C282.475769,20.652136 282.245300,20.347368 281.084259,19.903767 
	C259.733276,19.961609 238.382278,20.019453 216.339935,20.086327 
	C212.129974,27.014074 207.873856,33.914745 203.773056,40.906525 
	C203.302002,41.709667 203.293579,43.252926 203.756302,44.059807 
	C207.045868,49.795906 210.513931,55.429623 213.975815,60.994305 
	C213.975815,60.994305 213.902267,61.081181 214.049255,61.469353 
M101.688950,281.285400 
	C111.801361,278.671753 116.981506,270.490631 114.771835,260.623291 
	C112.939224,252.439743 104.850151,247.496964 95.922760,249.105667 
	C87.542763,250.615738 81.924263,258.880615 82.937012,268.207855 
	C83.858635,276.695831 91.248131,282.151367 101.688950,281.285400 
M373.261230,273.300720 
	C374.262543,274.830811 375.404572,276.288696 376.234772,277.906586 
	C377.785065,280.927795 379.961487,281.862518 383.077881,280.512726 
	C383.077881,270.158661 383.077881,259.903839 383.077881,249.615021 
	C381.042511,249.615021 379.292389,249.615021 376.925537,249.615021 
	C376.925537,255.695541 376.925537,261.484070 376.925537,268.581604 
	C372.930481,262.315948 369.639893,257.336823 366.550812,252.235641 
	C364.942871,249.580368 363.135010,248.364319 360.293884,249.923874 
	C360.293884,260.369446 360.293884,270.601044 360.293884,281.058228 
	C362.383148,280.947327 364.113647,280.855469 366.257751,280.741669 
	C366.257751,274.722809 366.257751,269.210083 366.257751,262.624207 
	C368.900055,266.619843 370.899994,269.644104 373.261230,273.300720 
M270.041870,257.567749 
	C270.041870,254.953339 270.041870,252.338928 270.041870,249.565399 
	C267.762665,249.565399 266.038849,249.565399 263.763550,249.565399 
	C263.763550,253.756714 263.763550,257.662201 263.763550,261.527771 
	C259.822479,261.527771 256.450439,261.527771 252.727020,261.527771 
	C252.727020,257.343628 252.727020,253.559982 252.727020,249.663391 
	C250.504456,249.663391 248.648376,249.663391 246.782196,249.663391 
	C246.782196,260.265076 246.782196,270.492004 246.782196,280.769409 
	C248.892776,280.769409 250.653214,280.769409 252.906830,280.769409 
	C252.906830,276.441132 252.906830,272.350586 252.906830,268.098114 
	C256.777252,268.098114 260.144958,268.098114 264.002258,268.098114 
	C264.002258,272.515198 264.002258,276.602356 264.002258,280.727142 
	C266.237610,280.727142 267.966888,280.727142 270.041901,280.727142 
	C270.041901,273.147003 270.041901,265.849457 270.041870,257.567749 
M300.522400,249.280457 
	C299.406921,249.752487 297.573975,249.958130 297.284790,250.736969 
	C293.624420,260.594757 290.186340,270.535095 286.686096,280.469788 
	C291.204529,281.847076 293.770569,281.071198 294.948273,276.542755 
	C295.248352,275.388885 298.182373,274.246979 299.874207,274.292297 
	C302.177002,274.354004 306.150604,275.148590 306.441132,276.347656 
	C307.728149,281.659210 310.873901,281.522583 315.245300,280.584595 
	C311.675079,270.675720 308.267670,261.003845 304.621735,251.422684 
	C304.244965,250.432617 302.447266,249.983261 300.522400,249.280457 
M207.143661,253.660370 
	C202.179703,260.608826 201.757462,269.262878 206.074554,275.572296 
	C209.622025,280.756897 215.923218,282.825012 222.950943,281.111298 
	C228.471603,279.765045 229.128891,278.584839 227.555710,272.843079 
	C221.730133,276.131927 215.982071,276.195312 212.754990,273.006287 
	C209.677292,269.964874 208.951157,262.942810 211.303604,258.970551 
	C213.907410,254.573853 218.643707,253.889374 227.547516,256.623016 
	C228.307129,249.855255 227.631271,248.548767 221.069305,249.120590 
	C216.515533,249.517410 212.120224,251.732834 207.143661,253.660370 
M185.079437,275.152588 
	C182.139084,275.152588 179.198746,275.152588 176.205017,275.152588 
	C176.205017,272.097137 176.205017,269.691925 176.205017,267.097839 
	C179.085968,266.952789 181.676788,266.822357 184.289429,266.690826 
	C184.289429,264.659729 184.289429,262.964264 184.289429,261.234497 
	C181.271988,261.078522 178.677521,260.944458 175.855118,260.798584 
	C175.969360,258.719849 176.057404,257.117859 176.167786,255.109650 
	C179.868988,255.109650 183.279846,255.109650 186.608704,255.109650 
	C186.608704,252.942642 186.608704,251.205948 186.608704,249.435547 
	C180.860458,249.435547 175.435272,249.435547 169.844177,249.435547 
	C169.844177,260.063934 169.844177,270.417053 169.844177,280.752808 
	C175.848511,280.752808 181.442215,280.752808 188.230255,280.752808 
	C187.310806,278.491699 186.632233,276.822998 185.079437,275.152588 
M60.452438,271.143768 
	C62.896599,264.015045 65.340759,256.886322 67.790871,249.740219 
	C62.817284,248.315933 60.452133,249.624161 59.502327,254.347610 
	C58.504448,259.310120 56.665100,264.103394 54.807289,270.247864 
	C52.713173,264.026855 50.797260,259.252472 49.532185,254.311447 
	C48.337868,249.646790 46.081287,247.965393 41.266045,249.968140 
	C44.819344,260.216766 48.348026,270.394379 51.940746,280.756714 
	C53.836403,280.756714 55.753304,280.756714 57.486469,280.756714 
	C58.440372,277.602814 59.304688,274.745087 60.452438,271.143768 
M138.002472,274.404968 
	C138.002472,276.511658 138.002472,278.618378 138.002472,280.785797 
	C140.552277,280.785797 142.472595,280.785797 144.924454,280.785797 
	C144.924454,272.141937 144.924454,263.738495 144.924454,255.122223 
	C147.702133,254.982056 149.965500,254.867844 152.359299,254.747040 
	C152.359299,252.786423 152.359299,251.103973 152.359299,249.460403 
	C144.865707,249.460403 137.757660,249.460403 130.491333,249.460403 
	C130.491333,251.377823 130.491333,253.066376 130.491333,254.756668 
	C133.129700,254.907089 135.390121,255.035980 138.002472,255.184921 
	C138.002472,261.495392 138.002472,267.460571 138.002472,274.404968 
M338.823547,254.704468 
	C338.823547,252.967300 338.823547,251.230133 338.823547,249.638947 
	C336.072601,249.638947 334.168457,249.638947 332.294617,249.638947 
	C332.294617,260.243835 332.294617,270.478180 332.294617,280.749054 
	C334.515015,280.749054 336.425262,280.749054 338.823181,280.749054 
	C338.823181,272.202881 338.823181,263.929016 338.823547,254.704468 
M183.978867,338.576233 
	C184.288879,337.183411 184.598892,335.790619 185.079941,333.629456 
	C183.552643,334.204224 182.000839,334.363953 181.848465,334.912445 
	C180.582275,339.470062 179.452637,344.076569 178.577896,348.724030 
	C178.370834,349.824036 179.282074,351.134552 179.678925,352.348236 
	C180.556824,351.185883 181.893005,350.139099 182.221054,348.838104 
	C183.001923,345.741211 183.306213,342.524139 183.978867,338.576233 
M143.322861,320.374512 
	C150.968201,317.400665 143.103027,312.930939 144.327316,309.036774 
	C145.428574,309.187531 146.425003,309.323944 147.421417,309.460327 
	C146.277817,308.364014 144.698624,307.611053 143.816528,308.104462 
	C137.932190,311.395691 146.304214,315.281891 143.313370,319.124023 
	C142.177109,318.799408 140.936264,318.444946 138.797379,317.833923 
	C140.624237,319.085815 141.663193,319.797791 143.322861,320.374512 
M209.666000,346.345093 
	C209.516220,348.145172 209.366440,349.945221 209.216675,351.745300 
	C209.687119,351.765594 210.157562,351.785858 210.628006,351.806152 
	C211.958130,346.720551 213.288269,341.634949 214.618393,336.549347 
	C213.956802,336.362976 213.295197,336.176575 212.633606,335.990173 
	C211.716339,339.192719 210.799072,342.395294 209.666000,346.345093 
M254.340759,344.164246 
	C255.480347,346.368469 256.619965,348.572693 257.759552,350.776886 
	C258.106476,350.738037 258.453430,350.699158 258.800354,350.660309 
	C258.800354,347.399384 258.800354,344.138428 258.800354,339.945068 
	C256.871674,339.016449 254.734451,339.553833 254.340759,344.164246 
M241.330200,349.027283 
	C241.939362,346.031097 246.016922,343.115479 240.862900,339.169250 
	C239.997223,343.786835 239.256378,347.738556 238.515533,351.690277 
	C238.858582,351.843292 239.201614,351.996338 239.544662,352.149353 
	C240.067795,351.343811 240.590927,350.538269 241.330200,349.027283 
M200.983490,317.113251 
	C201.673248,314.927673 202.623245,312.776703 202.920807,310.538971 
	C203.034988,309.680328 201.660782,308.623810 200.789200,307.413666 
	C200.407227,310.000397 200.313736,311.475189 199.950394,312.880219 
	C199.500061,314.621613 198.603226,316.274353 198.360519,318.029144 
	C198.265854,318.713593 199.425934,319.571533 200.014526,320.350433 
	C200.308899,319.506470 200.603271,318.662537 200.983490,317.113251 
M190.890717,315.518463 
	C191.418961,314.133453 192.496429,312.675018 192.323837,311.383667 
	C192.144669,310.043121 190.755768,308.864258 190.004883,307.773041 
	C189.034286,312.323853 188.243652,316.030853 187.453033,319.737823 
	C187.927643,319.888367 188.402267,320.038910 188.876877,320.189453 
	C189.461838,318.870270 190.046799,317.551117 190.890717,315.518463 
M221.805588,345.398987 
	C223.060745,341.274506 223.060745,341.274506 220.354919,339.747681 
	C219.533386,343.828918 218.740997,347.765350 217.948608,351.701782 
	C218.428726,351.792145 218.908844,351.882477 219.388962,351.972839 
	C220.095795,350.022247 220.802612,348.071655 221.805588,345.398987 
M245.879333,346.476044 
	C245.613663,348.247467 245.348007,350.018921 245.082352,351.790344 
	C250.695801,340.509705 250.695801,340.509705 247.158112,340.212891 
	C246.781693,342.102081 246.422318,343.905731 245.879333,346.476044 
M163.692215,320.368500 
	C164.560471,320.220856 165.428726,320.073212 166.913071,319.820831 
	C161.107391,317.306610 165.823975,313.320526 164.376785,309.476349 
	C161.919098,313.271851 159.267670,316.175659 163.692215,320.368500 
M259.226593,313.557465 
	C258.807159,315.385590 258.387726,317.213684 257.968292,319.041809 
	C262.570343,313.613037 262.560394,311.136383 258.450806,307.462128 
	C258.667603,309.388824 258.863190,311.127014 259.226593,313.557465 
M235.104034,340.663147 
	C234.017715,340.132568 232.931396,339.601959 231.845093,339.071350 
	C231.477997,339.379822 231.110916,339.688293 230.743835,339.996765 
	C237.711624,342.171417 230.622772,346.777252 234.511963,349.917358 
	C234.857910,347.040375 235.203842,344.163361 235.104034,340.663147 
M228.778305,313.333099 
	C229.645523,311.602875 230.512741,309.872650 231.583374,307.736572 
	C227.753647,308.766846 227.083755,310.222015 228.778305,313.333099 
M253.684158,313.498230 
	C253.158813,316.099640 251.205490,319.041321 255.849640,321.362732 
	C255.263489,318.170441 254.838303,315.854736 253.684158,313.498230 
M254.698746,311.574738 
	C255.157074,310.755219 255.615402,309.935699 256.073730,309.116180 
	C255.682953,308.960602 255.292191,308.805023 254.901428,308.649475 
	C254.683701,309.476776 254.465973,310.304108 254.698746,311.574738 
M227.962921,343.637085 
	C227.437927,343.886505 226.912918,344.135925 226.387909,344.385345 
	C226.812653,344.806152 227.237381,345.226959 227.662140,345.647736 
	C227.908539,345.121490 228.154953,344.595215 227.962921,343.637085 
M227.467239,351.681519 
	C227.959000,352.048157 228.450745,352.414795 228.942474,352.781433 
	C229.144211,352.423737 229.345963,352.066040 229.547714,351.708374 
	C229.002518,351.556458 228.457306,351.404510 227.467239,351.681519 
M254.959015,351.680298 
	C254.931015,351.901337 254.903015,352.122406 254.875015,352.343475 
	C255.003906,352.338654 255.242477,352.346924 255.244843,352.327026 
	C255.270905,352.107971 255.260239,351.884491 254.959015,351.680298 
M229.519089,341.408875 
	C229.519089,341.408875 229.588913,341.523407 229.519089,341.408875 
z"/>
<path fill="#6A6B70" opacity="1.000000" stroke="none" 
	d="
M214.294495,100.916435 
	C217.840408,107.363144 221.386322,113.809853 224.499664,120.627411 
	C220.718307,121.352364 217.369522,121.706459 213.749359,121.848663 
	C196.694077,92.500519 179.719742,63.471161 163.263474,34.151020 
	C159.269806,27.035526 153.044296,24.386623 146.205414,21.942059 
	C146.205414,21.942059 145.960205,21.624712 145.962708,21.136677 
	C145.981537,20.448927 145.997864,20.249212 146.014206,20.049496 
	C152.157959,19.989372 158.319504,19.651911 164.434235,20.044233 
	C166.186401,20.156652 168.417206,22.021643 169.389938,23.688967 
	C184.175674,49.032688 198.788574,74.477257 213.749268,100.232361 
	C214.056671,100.566475 214.294495,100.916435 214.294495,100.916435 
z"/>
<path fill="#84868D" opacity="1.000000" stroke="none" 
	d="
M146.234955,22.288643 
	C153.044296,24.386623 159.269806,27.035526 163.263474,34.151020 
	C179.719742,63.471161 196.694077,92.500519 213.743439,122.309067 
	C213.755981,128.281296 213.503067,133.581238 213.250153,138.881180 
	C192.888107,103.604469 172.523727,68.329117 152.167694,33.048935 
	C150.173630,29.592894 148.230988,26.107172 146.234955,22.288643 
z"/>
<path fill="#3AB6FE" opacity="1.000000" stroke="none" 
	d="
M282.278503,21.247223 
	C276.429932,31.649229 270.640991,42.085312 264.718719,52.445168 
	C256.069733,67.574844 247.275665,82.621758 238.670776,97.776245 
	C237.276321,100.232101 235.722412,101.340569 232.818588,101.206200 
	C227.512741,100.960670 222.188705,101.108391 216.586609,100.709885 
	C218.456573,99.096085 220.503571,97.589935 222.788757,96.685867 
	C228.944275,94.250587 233.171600,90.228775 236.133102,84.145103 
	C239.684830,76.848946 244.325378,70.089615 248.342636,63.011658 
	C253.991150,53.059593 259.500000,43.028255 265.306152,32.853241 
	C265.698700,32.114365 265.853668,31.553062 266.004700,30.995533 
	C266.000793,30.999310 265.993408,31.007874 266.299255,30.865952 
	C271.829559,27.565094 277.054016,24.406160 282.278503,21.247223 
z"/>
<path fill="#2695D5" opacity="1.000000" stroke="none" 
	d="
M265.068604,33.030815 
	C259.500000,43.028255 253.991150,53.059593 248.342636,63.011658 
	C244.325378,70.089615 239.684830,76.848946 236.133102,84.145103 
	C233.171600,90.228775 228.944275,94.250587 222.788757,96.685867 
	C220.503571,97.589935 218.456573,99.096085 216.121765,100.619415 
	C215.668457,100.949226 215.394318,100.987274 214.707336,100.970871 
	C214.294495,100.916435 214.056671,100.566475 214.025879,100.463501 
	C223.999786,83.212540 234.017090,66.071877 243.997269,48.909645 
	C245.738159,45.915974 247.322723,42.831402 249.328979,39.392159 
	C254.114899,36.661335 258.551331,34.327171 263.255920,32.105263 
	C264.038971,32.488621 264.553772,32.759720 265.068604,33.030815 
z"/>
<path fill="#2594D5" opacity="1.000000" stroke="none" 
	d="
M282.261902,21.240376 
	C277.054016,24.406160 271.829559,27.565094 266.205933,30.466959 
	C265.322998,29.828335 264.840668,29.115543 264.355255,29.113445 
	C250.522980,29.053606 236.690414,29.065228 222.108047,29.065228 
	C223.992874,32.857433 225.586441,36.063656 227.180023,39.269875 
	C223.169067,46.318478 219.158096,53.367085 214.743591,60.714081 
	C214.340027,61.012474 213.902267,61.081181 213.902267,61.081181 
	C213.902267,61.081181 213.975815,60.994305 213.976074,60.573471 
	C213.964859,56.847759 214.624405,53.360027 213.785309,50.280674 
	C212.513580,45.613705 213.587860,41.916443 216.299301,38.302677 
	C220.721939,32.408283 222.225769,26.370422 217.031281,20.077295 
	C238.382278,20.019453 259.733276,19.961609 281.584961,20.267845 
	C282.138763,20.822592 282.191864,21.013256 282.244934,21.203918 
	C282.244934,21.203918 282.245331,21.233528 282.261902,21.240376 
z"/>
<path fill="#6E6F74" opacity="1.000000" stroke="none" 
	d="
M101.296021,281.378662 
	C91.248131,282.151367 83.858635,276.695831 82.937012,268.207855 
	C81.924263,258.880615 87.542763,250.615738 95.922760,249.105667 
	C104.850151,247.496964 112.939224,252.439743 114.771835,260.623291 
	C116.981506,270.490631 111.801361,278.671753 101.296021,281.378662 
M96.444481,275.149261 
	C100.499542,276.186890 104.212845,275.530212 106.565361,271.910950 
	C109.203590,267.852142 109.037949,263.356110 106.774780,259.158325 
	C104.820404,255.533264 101.403557,254.422440 97.457809,254.939072 
	C92.861748,255.540833 90.639282,258.526978 89.764030,262.821747 
	C88.606544,268.501373 90.272202,271.940552 96.444481,275.149261 
z"/>
<path fill="#6D6E72" opacity="1.000000" stroke="none" 
	d="
M373.080566,272.984558 
	C370.899994,269.644104 368.900055,266.619843 366.257751,262.624207 
	C366.257751,269.210083 366.257751,274.722809 366.257751,280.741669 
	C364.113647,280.855469 362.383148,280.947327 360.293884,281.058228 
	C360.293884,270.601044 360.293884,260.369446 360.293884,249.923874 
	C363.135010,248.364319 364.942871,249.580368 366.550812,252.235641 
	C369.639893,257.336823 372.930481,262.315948 376.925537,268.581604 
	C376.925537,261.484070 376.925537,255.695541 376.925537,249.615021 
	C379.292389,249.615021 381.042511,249.615021 383.077881,249.615021 
	C383.077881,259.903839 383.077881,270.158661 383.077881,280.512726 
	C379.961487,281.862518 377.785065,280.927795 376.234772,277.906586 
	C375.404572,276.288696 374.262543,274.830811 373.080566,272.984558 
z"/>
<path fill="#6D6E73" opacity="1.000000" stroke="none" 
	d="
M270.041870,258.059845 
	C270.041901,265.849457 270.041901,273.147003 270.041901,280.727142 
	C267.966888,280.727142 266.237610,280.727142 264.002258,280.727142 
	C264.002258,276.602356 264.002258,272.515198 264.002258,268.098114 
	C260.144958,268.098114 256.777252,268.098114 252.906830,268.098114 
	C252.906830,272.350586 252.906830,276.441132 252.906830,280.769409 
	C250.653214,280.769409 248.892776,280.769409 246.782196,280.769409 
	C246.782196,270.492004 246.782196,260.265076 246.782196,249.663391 
	C248.648376,249.663391 250.504456,249.663391 252.727020,249.663391 
	C252.727020,253.559982 252.727020,257.343628 252.727020,261.527771 
	C256.450439,261.527771 259.822479,261.527771 263.763550,261.527771 
	C263.763550,257.662201 263.763550,253.756714 263.763550,249.565399 
	C266.038849,249.565399 267.762665,249.565399 270.041870,249.565399 
	C270.041870,252.338928 270.041870,254.953339 270.041870,258.059845 
z"/>
<path fill="#6E6F74" opacity="1.000000" stroke="none" 
	d="
M300.915649,249.281738 
	C302.447266,249.983261 304.244965,250.432617 304.621735,251.422684 
	C308.267670,261.003845 311.675079,270.675720 315.245300,280.584595 
	C310.873901,281.522583 307.728149,281.659210 306.441132,276.347656 
	C306.150604,275.148590 302.177002,274.354004 299.874207,274.292297 
	C298.182373,274.246979 295.248352,275.388885 294.948273,276.542755 
	C293.770569,281.071198 291.204529,281.847076 286.686096,280.469788 
	C290.186340,270.535095 293.624420,260.594757 297.284790,250.736969 
	C297.573975,249.958130 299.406921,249.752487 300.915649,249.281738 
M298.855865,268.439545 
	C300.436554,268.439545 302.017212,268.439545 304.248291,268.439545 
	C303.008423,264.789368 301.959778,261.702148 300.911133,258.614929 
	C300.567841,258.641388 300.224579,258.667816 299.881287,258.694275 
	C299.299500,261.823212 298.717682,264.952148 298.855865,268.439545 
z"/>
<path fill="#6F7075" opacity="1.000000" stroke="none" 
	d="
M207.398880,253.398071 
	C212.120224,251.732834 216.515533,249.517410 221.069305,249.120590 
	C227.631271,248.548767 228.307129,249.855255 227.547516,256.623016 
	C218.643707,253.889374 213.907410,254.573853 211.303604,258.970551 
	C208.951157,262.942810 209.677292,269.964874 212.754990,273.006287 
	C215.982071,276.195312 221.730133,276.131927 227.555710,272.843079 
	C229.128891,278.584839 228.471603,279.765045 222.950943,281.111298 
	C215.923218,282.825012 209.622025,280.756897 206.074554,275.572296 
	C201.757462,269.262878 202.179703,260.608826 207.398880,253.398071 
z"/>
<path fill="#707176" opacity="1.000000" stroke="none" 
	d="
M185.516541,275.153442 
	C186.632233,276.822998 187.310806,278.491699 188.230255,280.752808 
	C181.442215,280.752808 175.848511,280.752808 169.844177,280.752808 
	C169.844177,270.417053 169.844177,260.063934 169.844177,249.435547 
	C175.435272,249.435547 180.860458,249.435547 186.608704,249.435547 
	C186.608704,251.205948 186.608704,252.942642 186.608704,255.109650 
	C183.279846,255.109650 179.868988,255.109650 176.167786,255.109650 
	C176.057404,257.117859 175.969360,258.719849 175.855118,260.798584 
	C178.677521,260.944458 181.271988,261.078522 184.289429,261.234497 
	C184.289429,262.964264 184.289429,264.659729 184.289429,266.690826 
	C181.676788,266.822357 179.085968,266.952789 176.205017,267.097839 
	C176.205017,269.691925 176.205017,272.097137 176.205017,275.152588 
	C179.198746,275.152588 182.139084,275.152588 185.516541,275.153442 
z"/>
<path fill="#707176" opacity="1.000000" stroke="none" 
	d="
M60.310722,271.515564 
	C59.304688,274.745087 58.440372,277.602814 57.486469,280.756714 
	C55.753304,280.756714 53.836403,280.756714 51.940746,280.756714 
	C48.348026,270.394379 44.819344,260.216766 41.266045,249.968140 
	C46.081287,247.965393 48.337868,249.646790 49.532185,254.311447 
	C50.797260,259.252472 52.713173,264.026855 54.807289,270.247864 
	C56.665100,264.103394 58.504448,259.310120 59.502327,254.347610 
	C60.452133,249.624161 62.817284,248.315933 67.790871,249.740219 
	C65.340759,256.886322 62.896599,264.015045 60.310722,271.515564 
z"/>
<path fill="#3AB6FE" opacity="1.000000" stroke="none" 
	d="
M227.634277,39.232269 
	C225.586441,36.063656 223.992874,32.857433 222.108047,29.065228 
	C236.690414,29.065228 250.522980,29.053606 264.355255,29.113445 
	C264.840668,29.115543 265.322998,29.828335 265.900085,30.608883 
	C265.993408,31.007874 266.000793,30.999310 265.664825,30.979996 
	C264.548492,31.304790 263.768097,31.648897 262.987732,31.993008 
	C258.551331,34.327171 254.114899,36.661335 249.319778,39.035202 
	C242.003555,39.114822 235.046051,39.154739 227.634277,39.232269 
z"/>
<path fill="#747579" opacity="1.000000" stroke="none" 
	d="
M138.002472,273.915344 
	C138.002472,267.460571 138.002472,261.495392 138.002472,255.184921 
	C135.390121,255.035980 133.129700,254.907089 130.491333,254.756668 
	C130.491333,253.066376 130.491333,251.377823 130.491333,249.460403 
	C137.757660,249.460403 144.865707,249.460403 152.359299,249.460403 
	C152.359299,251.103973 152.359299,252.786423 152.359299,254.747040 
	C149.965500,254.867844 147.702133,254.982056 144.924454,255.122223 
	C144.924454,263.738495 144.924454,272.141937 144.924454,280.785797 
	C142.472595,280.785797 140.552277,280.785797 138.002472,280.785797 
	C138.002472,278.618378 138.002472,276.511658 138.002472,273.915344 
z"/>
<path fill="#3BB6FE" opacity="1.000000" stroke="none" 
	d="
M216.685608,20.081810 
	C222.225769,26.370422 220.721939,32.408283 216.299301,38.302677 
	C213.587860,41.916443 212.513580,45.613705 213.785309,50.280674 
	C214.624405,53.360027 213.964859,56.847759 213.950745,60.624290 
	C210.513931,55.429623 207.045868,49.795906 203.756302,44.059807 
	C203.293579,43.252926 203.302002,41.709667 203.773056,40.906525 
	C207.873856,33.914745 212.129974,27.014074 216.685608,20.081810 
z"/>
<path fill="#727377" opacity="1.000000" stroke="none" 
	d="
M338.823364,255.179810 
	C338.823181,263.929016 338.823181,272.202881 338.823181,280.749054 
	C336.425262,280.749054 334.515015,280.749054 332.294617,280.749054 
	C332.294617,270.478180 332.294617,260.243835 332.294617,249.638947 
	C334.168457,249.638947 336.072601,249.638947 338.823547,249.638947 
	C338.823547,251.230133 338.823547,252.967300 338.823364,255.179810 
z"/>
<path fill="#8D8F95" opacity="1.000000" stroke="none" 
	d="
M213.376236,139.162903 
	C213.503067,133.581238 213.755981,128.281296 214.014832,122.520950 
	C217.369522,121.706459 220.718307,121.352364 224.485809,120.981506 
	C221.543518,127.125916 218.191376,133.292038 214.778885,139.424545 
	C214.675430,139.610458 213.942032,139.445816 213.376236,139.162903 
z"/>
<path fill="#5FC4FF" opacity="1.000000" stroke="none" 
	d="
M274.968536,317.989960 
	C273.169678,322.996979 268.792755,317.999329 266.278290,320.229340 
	C266.147797,318.319275 265.815521,316.395813 265.941528,314.502808 
	C266.077271,312.463501 266.642395,310.452759 267.045258,308.295258 
	C269.815918,308.149384 269.815918,308.149384 267.201782,319.367310 
	C273.065857,317.388947 270.925049,310.313812 275.848114,307.454315 
	C275.331970,310.563782 274.943115,312.906433 274.778320,315.621796 
	C275.002411,315.994507 275.017181,315.975433 274.675934,316.019165 
	C274.564423,316.719910 274.794128,317.376923 275.011780,318.020691 
	C274.999725,318.007385 274.968536,317.989960 274.968536,317.989960 
z"/>
<path fill="#5FC4FF" opacity="1.000000" stroke="none" 
	d="
M183.890945,338.965942 
	C183.306213,342.524139 183.001923,345.741211 182.221054,348.838104 
	C181.893005,350.139099 180.556824,351.185883 179.678925,352.348236 
	C179.282074,351.134552 178.370834,349.824036 178.577896,348.724030 
	C179.452637,344.076569 180.582275,339.470062 181.848465,334.912445 
	C182.000839,334.363953 183.552643,334.204224 185.079941,333.629456 
	C184.598892,335.790619 184.288879,337.183411 183.890945,338.965942 
z"/>
<path fill="#5AC3FF" opacity="1.000000" stroke="none" 
	d="
M280.031982,310.008759 
	C280.286407,309.415466 280.563263,308.299255 280.791809,308.309052 
	C283.326324,308.417725 285.853333,308.700897 288.486633,309.533478 
	C281.033600,309.618530 284.028076,317.434906 279.274628,320.816925 
	C279.772980,317.461792 280.123810,315.099731 280.236145,312.371674 
	C279.997620,312.005676 279.982422,312.025146 280.329224,311.987823 
	C280.442657,311.288757 280.209290,310.626984 279.988098,309.978638 
	C280.000244,309.992035 280.032013,310.008759 280.031982,310.008759 
z"/>
<path fill="#5AC3FF" opacity="1.000000" stroke="none" 
	d="
M143.012497,320.442139 
	C141.663193,319.797791 140.624237,319.085815 138.797379,317.833923 
	C140.936264,318.444946 142.177109,318.799408 143.313370,319.124023 
	C146.304214,315.281891 137.932190,311.395691 143.816528,308.104462 
	C144.698624,307.611053 146.277817,308.364014 147.421417,309.460327 
	C146.425003,309.323944 145.428574,309.187531 144.327316,309.036774 
	C143.103027,312.930939 150.968201,317.400665 143.012497,320.442139 
z"/>
<path fill="#57C1FF" opacity="1.000000" stroke="none" 
	d="
M209.773911,345.971466 
	C210.799072,342.395294 211.716339,339.192719 212.633606,335.990173 
	C213.295197,336.176575 213.956802,336.362976 214.618393,336.549347 
	C213.288269,341.634949 211.958130,346.720551 210.628006,351.806152 
	C210.157562,351.785858 209.687119,351.765594 209.216675,351.745300 
	C209.366440,349.945221 209.516220,348.145172 209.773911,345.971466 
z"/>
<path fill="#5AC3FF" opacity="1.000000" stroke="none" 
	d="
M254.252075,343.808167 
	C254.734451,339.553833 256.871674,339.016449 258.800354,339.945068 
	C258.800354,344.138428 258.800354,347.399384 258.800354,350.660309 
	C258.453430,350.699158 258.106476,350.738037 257.759552,350.776886 
	C256.619965,348.572693 255.480347,346.368469 254.252075,343.808167 
M257.970764,341.572113 
	C257.777863,341.510315 257.584991,341.448517 257.392090,341.386688 
	C257.459259,341.581757 257.526428,341.776794 257.970764,341.572113 
z"/>
<path fill="#5FC4FF" opacity="1.000000" stroke="none" 
	d="
M241.222137,349.380005 
	C240.590927,350.538269 240.067795,351.343811 239.544662,352.149353 
	C239.201614,351.996338 238.858582,351.843292 238.515533,351.690277 
	C239.256378,347.738556 239.997223,343.786835 240.862900,339.169250 
	C246.016922,343.115479 241.939362,346.031097 241.222137,349.380005 
z"/>
<path fill="#5AC3FF" opacity="1.000000" stroke="none" 
	d="
M216.978653,317.998230 
	C215.958710,318.697357 214.938766,319.396484 213.918823,320.095612 
	C213.696915,319.060760 213.123810,317.953888 213.318512,317.004486 
	C213.918015,314.081329 214.811066,311.218384 215.940796,307.032501 
	C216.656219,308.567108 217.736420,309.780060 217.613571,310.855591 
	C217.374329,312.950287 216.461044,314.967987 215.625031,317.526733 
	C215.485794,318.275421 215.548447,318.514923 215.611099,318.754425 
	C215.818588,318.582703 216.026093,318.411011 216.233597,318.239319 
	C216.233597,318.239319 216.660995,318.261169 216.835983,318.139282 
	C217.010971,318.017395 216.978653,317.998230 216.978653,317.998230 
z"/>
<path fill="#5FC4FF" opacity="1.000000" stroke="none" 
	d="
M246.960236,315.978424 
	C245.851608,317.564178 244.742981,319.149963 243.310349,320.859192 
	C242.986343,320.982666 243.007980,320.991852 243.007980,320.991852 
	C242.654541,316.701233 242.301086,312.410645 241.947647,308.120026 
	C242.342972,307.949615 242.738297,307.779205 243.133636,307.608826 
	C244.151184,310.414581 245.168732,313.220367 246.588409,316.011597 
	C246.990555,315.997070 246.960236,315.978424 246.960236,315.978424 
z"/>
<path fill="#5AC3FF" opacity="1.000000" stroke="none" 
	d="
M174.756836,309.751892 
	C174.756836,309.751892 174.333237,309.738190 174.160919,309.860229 
	C173.988586,309.982300 174.021011,310.001678 174.021011,310.001678 
	C175.049698,309.315186 176.078384,308.628693 177.107071,307.942169 
	C177.318970,308.979828 177.875351,310.088593 177.678558,311.041870 
	C177.073914,313.970551 176.180786,316.839661 175.055969,321.005280 
	C174.346405,319.460785 173.272308,318.238586 173.394882,317.151276 
	C173.630859,315.057861 174.543915,313.040802 175.383926,310.479492 
	C175.527145,309.722900 175.462631,309.478912 175.398132,309.234894 
	C175.184372,309.407227 174.970612,309.579559 174.756836,309.751892 
z"/>
<path fill="#57C1FF" opacity="1.000000" stroke="none" 
	d="
M200.940582,317.465912 
	C200.603271,318.662537 200.308899,319.506470 200.014526,320.350433 
	C199.425934,319.571533 198.265854,318.713593 198.360519,318.029144 
	C198.603226,316.274353 199.500061,314.621613 199.950394,312.880219 
	C200.313736,311.475189 200.407227,310.000397 200.789200,307.413666 
	C201.660782,308.623810 203.034988,309.680328 202.920807,310.538971 
	C202.623245,312.776703 201.673248,314.927673 200.940582,317.465912 
z"/>
<path fill="#5FC4FF" opacity="1.000000" stroke="none" 
	d="
M190.761230,315.875183 
	C190.046799,317.551117 189.461838,318.870270 188.876877,320.189453 
	C188.402267,320.038910 187.927643,319.888367 187.453033,319.737823 
	C188.243652,316.030853 189.034286,312.323853 190.004883,307.773041 
	C190.755768,308.864258 192.144669,310.043121 192.323837,311.383667 
	C192.496429,312.675018 191.418961,314.133453 190.761230,315.875183 
z"/>
<path fill="#57C1FF" opacity="1.000000" stroke="none" 
	d="
M221.657516,345.760010 
	C220.802612,348.071655 220.095795,350.022247 219.388962,351.972839 
	C218.908844,351.882477 218.428726,351.792145 217.948608,351.701782 
	C218.740997,347.765350 219.533386,343.828918 220.354919,339.747681 
	C223.060745,341.274506 223.060745,341.274506 221.657516,345.760010 
z"/>
<path fill="#57C1FF" opacity="1.000000" stroke="none" 
	d="
M179.816528,317.519073 
	C180.581680,314.314545 181.346832,311.110016 182.111984,307.905487 
	C182.642563,308.016327 183.173141,308.127197 183.703705,308.238037 
	C183.194809,312.094940 182.704056,315.954712 182.089417,319.794708 
	C182.070969,319.909882 180.755417,319.817444 179.996078,319.328125 
	C179.903870,318.395966 179.860199,317.957520 179.816528,317.519073 
z"/>
<path fill="#57C1FF" opacity="1.000000" stroke="none" 
	d="
M245.971130,346.092712 
	C246.422318,343.905731 246.781693,342.102081 247.158112,340.212891 
	C250.695801,340.509705 250.695801,340.509705 245.082352,351.790344 
	C245.348007,350.018921 245.613663,348.247467 245.971130,346.092712 
z"/>
<path fill="#5FC4FF" opacity="1.000000" stroke="none" 
	d="
M163.369110,320.242279 
	C159.267670,316.175659 161.919098,313.271851 164.376785,309.476349 
	C165.823975,313.320526 161.107391,317.306610 166.913071,319.820831 
	C165.428726,320.073212 164.560471,320.220856 163.369110,320.242279 
z"/>
<path fill="#EAF7FF" opacity="1.000000" stroke="none" 
	d="
M259.142700,313.211334 
	C258.863190,311.127014 258.667603,309.388824 258.450806,307.462128 
	C262.560394,311.136383 262.570343,313.613037 257.968292,319.041809 
	C258.387726,317.213684 258.807159,315.385590 259.142700,313.211334 
z"/>
<path fill="#F2FAFF" opacity="1.000000" stroke="none" 
	d="
M235.326904,340.974762 
	C235.203842,344.163361 234.857910,347.040375 234.511963,349.917358 
	C230.622772,346.777252 237.711624,342.171417 230.743835,339.996765 
	C231.110916,339.688293 231.477997,339.379822 231.845093,339.071350 
	C232.931396,339.601959 234.017715,340.132568 235.326904,340.974762 
z"/>
<path fill="#5AC3FF" opacity="1.000000" stroke="none" 
	d="
M208.034500,315.007690 
	C208.387360,312.704681 208.740219,310.401703 209.174515,307.567230 
	C210.464050,308.419830 211.566711,309.148895 212.728149,309.916809 
	C211.898727,311.612610 211.188568,313.064606 209.920624,314.759094 
	C208.920044,315.003601 208.477280,315.005646 208.034500,315.007690 
z"/>
<path fill="#57C1FF" opacity="1.000000" stroke="none" 
	d="
M228.484344,313.543213 
	C227.083755,310.222015 227.753647,308.766846 231.583374,307.736572 
	C230.512741,309.872650 229.645523,311.602875 228.484344,313.543213 
z"/>
<path fill="#EAF7FF" opacity="1.000000" stroke="none" 
	d="
M254.048630,313.518616 
	C254.838303,315.854736 255.263489,318.170441 255.849640,321.362732 
	C251.205490,319.041321 253.158813,316.099640 254.048630,313.518616 
z"/>
<path fill="#57C1FF" opacity="1.000000" stroke="none" 
	d="
M207.849533,315.318909 
	C208.477280,315.005646 208.920044,315.003601 209.694931,315.005249 
	C209.551361,316.652374 209.075699,318.295807 208.600037,319.939240 
	C208.111008,319.872559 207.621964,319.805908 207.132935,319.739258 
	C207.310150,318.369537 207.487350,316.999847 207.849533,315.318909 
z"/>
<path fill="#EAF7FF" opacity="1.000000" stroke="none" 
	d="
M254.473495,311.353088 
	C254.465973,310.304108 254.683701,309.476776 254.901428,308.649475 
	C255.292191,308.805023 255.682953,308.960602 256.073730,309.116180 
	C255.615402,309.935699 255.157074,310.755219 254.473495,311.353088 
z"/>
<path fill="#F2FAFF" opacity="1.000000" stroke="none" 
	d="
M228.182144,343.853027 
	C228.154953,344.595215 227.908539,345.121490 227.662125,345.647736 
	C227.237381,345.226959 226.812653,344.806152 226.387909,344.385345 
	C226.912918,344.135925 227.437927,343.886505 228.182144,343.853027 
z"/>
<path fill="#F2FAFF" opacity="1.000000" stroke="none" 
	d="
M227.689667,351.467041 
	C228.457306,351.404510 229.002518,351.556458 229.547699,351.708374 
	C229.345963,352.066040 229.144211,352.423737 228.942474,352.781433 
	C228.450745,352.414795 227.959000,352.048157 227.689667,351.467041 
z"/>
<path fill="#5AC3FF" opacity="1.000000" stroke="none" 
	d="
M255.109268,351.671265 
	C255.260239,351.884491 255.270905,352.107971 255.244843,352.327026 
	C255.242477,352.346924 255.003906,352.338654 254.875015,352.343445 
	C254.903015,352.122406 254.931015,351.901337 255.109268,351.671265 
z"/>
<path fill="#5AC3FF" opacity="1.000000" stroke="none" 
	d="
M179.514709,317.449371 
	C179.860199,317.957520 179.903870,318.395966 179.915802,319.066467 
	C179.660339,318.658875 179.436615,318.019287 179.514709,317.449371 
z"/>
<path fill="#5FC4FF" opacity="1.000000" stroke="none" 
	d="
M274.991913,315.999146 
	C275.114441,316.574524 275.247437,317.145264 275.174500,317.852966 
	C274.968536,317.989960 274.999725,318.007385 275.080566,317.678436 
	C275.113312,316.891479 275.065247,316.433441 275.017181,315.975433 
	C275.017181,315.975433 275.002411,315.994507 274.991913,315.999146 
z"/>
<path fill="#5FC4FF" opacity="1.000000" stroke="none" 
	d="
M242.980286,320.969818 
	C242.905334,321.201416 242.836441,321.445892 242.767548,321.690338 
	C242.725876,321.668701 242.684204,321.647064 242.642532,321.625458 
	C242.733810,321.514923 242.825089,321.404388 242.962173,321.142853 
	C243.007980,320.991852 242.986343,320.982666 242.980286,320.969818 
z"/>
<path fill="#5AC3FF" opacity="1.000000" stroke="none" 
	d="
M217.021896,318.033325 
	C217.188141,317.714539 217.343460,317.379791 217.498779,317.045044 
	C217.434555,317.287354 217.370331,317.529633 217.142365,317.885071 
	C216.978653,317.998230 217.010971,318.017395 217.021896,318.033325 
z"/>
<path fill="#5AC3FF" opacity="1.000000" stroke="none" 
	d="
M280.008392,312.000977 
	C279.893158,311.431610 279.767151,310.866943 279.836548,310.155518 
	C280.032013,310.008759 280.000244,309.992035 279.910828,310.320435 
	C279.875061,311.107574 279.928741,311.566376 279.982422,312.025146 
	C279.982422,312.025146 279.997620,312.005676 280.008392,312.000977 
z"/>
<path fill="#5AC3FF" opacity="1.000000" stroke="none" 
	d="
M173.977493,309.966370 
	C173.809494,310.290680 173.652573,310.630951 173.495667,310.971191 
	C173.559235,310.723602 173.622803,310.475983 173.853699,310.115051 
	C174.021011,310.001678 173.988586,309.982300 173.977493,309.966370 
z"/>
<path fill="#5FC4FF" opacity="1.000000" stroke="none" 
	d="
M246.998810,316.012329 
	C247.007065,316.027588 247.264160,315.618134 247.264160,315.618134 
	C247.264160,315.618134 247.190735,315.858521 247.075485,315.918457 
	C246.960236,315.978424 246.990555,315.997070 246.998810,316.012329 
z"/>
<path fill="#F2FAFF" opacity="1.000000" stroke="none" 
	d="
M229.554001,341.466125 
	C229.588913,341.523407 229.519089,341.408875 229.554001,341.466125 
z"/>
<path fill="#3BB6FE" opacity="1.000000" stroke="none" 
	d="
M213.975769,61.275269 
	C213.902267,61.081181 214.340027,61.012474 214.561218,61.016159 
	C214.538040,61.169678 214.293640,61.319515 213.975769,61.275269 
z"/>
<path fill="#3AB6FE" opacity="1.000000" stroke="none" 
	d="
M282.475586,21.080410 
	C282.191864,21.013256 282.138763,20.822592 282.050232,20.337263 
	C282.245300,20.347368 282.475769,20.652136 282.475586,21.080410 
z"/>
<path fill="#84868D" opacity="1.000000" stroke="none" 
	d="
M145.746124,20.052002 
	C145.997864,20.249212 145.981537,20.448927 145.905975,20.944347 
	C145.723846,20.844872 145.600952,20.449692 145.746124,20.052002 
z"/>
<path fill="#2594D5" opacity="1.000000" stroke="none" 
	d="
M263.255920,32.105263 
	C263.768097,31.648897 264.548492,31.304790 265.668762,30.976219 
	C265.853668,31.553062 265.698700,32.114365 265.306152,32.853241 
	C264.553772,32.759720 264.038971,32.488621 263.255920,32.105263 
z"/>
<path fill="#FBFBFC" opacity="1.000000" stroke="none" 
	d="
M96.076866,275.065918 
	C90.272202,271.940552 88.606544,268.501373 89.764030,262.821747 
	C90.639282,258.526978 92.861748,255.540833 97.457809,254.939072 
	C101.403557,254.422440 104.820404,255.533264 106.774780,259.158325 
	C109.037949,263.356110 109.203590,267.852142 106.565361,271.910950 
	C104.212845,275.530212 100.499542,276.186890 96.076866,275.065918 
z"/>
<path fill="#F1F1F2" opacity="1.000000" stroke="none" 
	d="
M298.495880,268.260315 
	C298.717682,264.952148 299.299500,261.823212 299.881287,258.694275 
	C300.224579,258.667816 300.567841,258.641388 300.911133,258.614929 
	C301.959778,261.702148 303.008423,264.789368 304.248291,268.439545 
	C302.017212,268.439545 300.436554,268.439545 298.495880,268.260315 
z"/>
<path fill="#FFFFFF" opacity="1.000000" stroke="none" 
	d="
M274.675934,316.019165 
	C275.065247,316.433441 275.113312,316.891479 275.092621,317.691711 
	C274.794128,317.376923 274.564423,316.719910 274.675934,316.019165 
z"/>
<path fill="#FFFFFF" opacity="1.000000" stroke="none" 
	d="
M280.329224,311.987823 
	C279.928741,311.566376 279.875061,311.107574 279.898651,310.307007 
	C280.209290,310.626984 280.442657,311.288757 280.329224,311.987823 
z"/>
<path fill="#FFFFFF" opacity="1.000000" stroke="none" 
	d="
M257.782166,341.771973 
	C257.526428,341.776794 257.459259,341.581757 257.392090,341.386688 
	C257.584991,341.448517 257.777863,341.510315 257.782166,341.771973 
z"/>
<path fill="#FFFFFF" opacity="1.000000" stroke="none" 
	d="
M216.116486,318.122711 
	C216.026093,318.411011 215.818588,318.582703 215.611099,318.754425 
	C215.548447,318.514923 215.485794,318.275421 215.592712,317.905884 
	C215.762283,317.775848 215.999374,318.006104 216.116486,318.122711 
z"/>
<path fill="#FFFFFF" opacity="1.000000" stroke="none" 
	d="
M174.879089,309.873444 
	C174.970612,309.579559 175.184372,309.407227 175.398132,309.234894 
	C175.462631,309.478912 175.527145,309.722900 175.419952,310.101257 
	C175.248230,310.235626 175.001328,309.994995 174.879089,309.873444 
z"/>
</svg>